<?xml version="1.0" encoding="UTF-8" standalone="no"?>
<!-- Created with matplotlib (http://matplotlib.org/) -->

<svg
   xmlns:dc="http://purl.org/dc/elements/1.1/"
   xmlns:cc="http://creativecommons.org/ns#"
   xmlns:rdf="http://www.w3.org/1999/02/22-rdf-syntax-ns#"
   xmlns:svg="http://www.w3.org/2000/svg"
   xmlns="http://www.w3.org/2000/svg"
   xmlns:xlink="http://www.w3.org/1999/xlink"
   xmlns:sodipodi="http://sodipodi.sourceforge.net/DTD/sodipodi-0.dtd"
   xmlns:inkscape="http://www.inkscape.org/namespaces/inkscape"
   height="288pt"
   version="1.1"
   viewBox="0 0 432 288"
   width="432pt"
   id="svg499"
   sodipodi:docname="chatter-plot.svg"
   inkscape:version="0.92.1 r15371">
  <metadata
     id="metadata503">
    <rdf:RDF>
      <cc:Work
         rdf:about="">
        <dc:format>image/svg+xml</dc:format>
        <dc:type
           rdf:resource="http://purl.org/dc/dcmitype/StillImage" />
      </cc:Work>
    </rdf:RDF>
  </metadata>
  <sodipodi:namedview
     pagecolor="#ffffff"
     bordercolor="#666666"
     borderopacity="1"
     objecttolerance="10"
     gridtolerance="10"
     guidetolerance="10"
     inkscape:pageopacity="0"
     inkscape:pageshadow="2"
     inkscape:window-width="1920"
     inkscape:window-height="1181"
     id="namedview501"
     showgrid="false"
     inkscape:zoom="2.0347222"
     inkscape:cx="129.98654"
     inkscape:cy="255.44041"
     inkscape:window-x="-4"
     inkscape:window-y="-4"
     inkscape:window-maximized="1"
     inkscape:current-layer="svg499" />
  <defs
     id="defs4">
    <style
       type="text/css"
       id="style2">
*{stroke-linecap:butt;stroke-linejoin:round;}
  </style>
  </defs>
  <g
     id="figure_1"
     style="stroke-linecap:butt;stroke-linejoin:round">
    <g
       id="axes_1"
       style="stroke-linecap:butt;stroke-linejoin:round">
      <g
         id="patch_2"
         style="stroke-linecap:butt;stroke-linejoin:round">
        <path
           d="M 54,98.512941 H 388.8 V 34.56 H 54 Z"
           style="fill:#ffffff;stroke-linecap:butt;stroke-linejoin:round"
           id="path9"
           inkscape:connector-curvature="0" />
      </g>
      <g
         id="matplotlib.axis_1"
         style="stroke-linecap:butt;stroke-linejoin:round">
        <g
           id="xtick_1"
           style="stroke-linecap:butt;stroke-linejoin:round">
          <g
             id="line2d_1"
             style="stroke-linecap:butt;stroke-linejoin:round">
            <defs
               id="defs13">
              <path
                 d="M 0,0 V 3.5"
                 id="m3cc6b344ac"
                 style="stroke:#000000;stroke-width:0.80000001;stroke-linecap:butt;stroke-linejoin:round"
                 inkscape:connector-curvature="0" />
            </defs>
            <g
               id="g17"
               style="stroke-linecap:butt;stroke-linejoin:round">
              <use
                 style="stroke:#000000;stroke-width:0.80000001;stroke-linecap:butt;stroke-linejoin:round"
                 x="69.218185"
                 xlink:href="#m3cc6b344ac"
                 y="98.512939"
                 id="use15"
                 width="100%"
                 height="100%" />
            </g>
          </g>
        </g>
        <g
           id="xtick_2"
           style="stroke-linecap:butt;stroke-linejoin:round">
          <g
             id="line2d_2"
             style="stroke-linecap:butt;stroke-linejoin:round">
            <g
               id="g23"
               style="stroke-linecap:butt;stroke-linejoin:round">
              <use
                 style="stroke:#000000;stroke-width:0.80000001;stroke-linecap:butt;stroke-linejoin:round"
                 x="121.1923"
                 xlink:href="#m3cc6b344ac"
                 y="98.512939"
                 id="use21"
                 width="100%"
                 height="100%" />
            </g>
          </g>
        </g>
        <g
           id="xtick_3"
           style="stroke-linecap:butt;stroke-linejoin:round">
          <g
             id="line2d_3"
             style="stroke-linecap:butt;stroke-linejoin:round">
            <g
               id="g29"
               style="stroke-linecap:butt;stroke-linejoin:round">
              <use
                 style="stroke:#000000;stroke-width:0.80000001;stroke-linecap:butt;stroke-linejoin:round"
                 x="173.16641"
                 xlink:href="#m3cc6b344ac"
                 y="98.512939"
                 id="use27"
                 width="100%"
                 height="100%" />
            </g>
          </g>
        </g>
        <g
           id="xtick_4"
           style="stroke-linecap:butt;stroke-linejoin:round">
          <g
             id="line2d_4"
             style="stroke-linecap:butt;stroke-linejoin:round">
            <g
               id="g35"
               style="stroke-linecap:butt;stroke-linejoin:round">
              <use
                 style="stroke:#000000;stroke-width:0.80000001;stroke-linecap:butt;stroke-linejoin:round"
                 x="225.14052"
                 xlink:href="#m3cc6b344ac"
                 y="98.512939"
                 id="use33"
                 width="100%"
                 height="100%" />
            </g>
          </g>
        </g>
        <g
           id="xtick_5"
           style="stroke-linecap:butt;stroke-linejoin:round">
          <g
             id="line2d_5"
             style="stroke-linecap:butt;stroke-linejoin:round">
            <g
               id="g41"
               style="stroke-linecap:butt;stroke-linejoin:round">
              <use
                 style="stroke:#000000;stroke-width:0.80000001;stroke-linecap:butt;stroke-linejoin:round"
                 x="277.11462"
                 xlink:href="#m3cc6b344ac"
                 y="98.512939"
                 id="use39"
                 width="100%"
                 height="100%" />
            </g>
          </g>
        </g>
        <g
           id="xtick_6"
           style="stroke-linecap:butt;stroke-linejoin:round">
          <g
             id="line2d_6"
             style="stroke-linecap:butt;stroke-linejoin:round">
            <g
               id="g47"
               style="stroke-linecap:butt;stroke-linejoin:round">
              <use
                 style="stroke:#000000;stroke-width:0.80000001;stroke-linecap:butt;stroke-linejoin:round"
                 x="329.08875"
                 xlink:href="#m3cc6b344ac"
                 y="98.512939"
                 id="use45"
                 width="100%"
                 height="100%" />
            </g>
          </g>
        </g>
        <g
           id="xtick_7"
           style="stroke-linecap:butt;stroke-linejoin:round">
          <g
             id="line2d_7"
             style="stroke-linecap:butt;stroke-linejoin:round">
            <g
               id="g53"
               style="stroke-linecap:butt;stroke-linejoin:round">
              <use
                 style="stroke:#000000;stroke-width:0.80000001;stroke-linecap:butt;stroke-linejoin:round"
                 x="381.06287"
                 xlink:href="#m3cc6b344ac"
                 y="98.512939"
                 id="use51"
                 width="100%"
                 height="100%" />
            </g>
          </g>
        </g>
      </g>
      <g
         id="matplotlib.axis_2"
         style="stroke-linecap:butt;stroke-linejoin:round">
        <g
           id="ytick_1"
           style="stroke-linecap:butt;stroke-linejoin:round">
          <g
             id="line2d_8"
             style="stroke-linecap:butt;stroke-linejoin:round">
            <defs
               id="defs59">
              <path
                 d="M 0,0 H -3.5"
                 id="m1379a70371"
                 style="stroke:#000000;stroke-width:0.80000001;stroke-linecap:butt;stroke-linejoin:round"
                 inkscape:connector-curvature="0" />
            </defs>
            <g
               id="g63"
               style="stroke-linecap:butt;stroke-linejoin:round">
              <use
                 style="stroke:#000000;stroke-width:0.80000001;stroke-linecap:butt;stroke-linejoin:round"
                 x="54"
                 xlink:href="#m1379a70371"
                 y="74.022789"
                 id="use61"
                 width="100%"
                 height="100%" />
            </g>
          </g>
          <g
             id="text_1"
             style="stroke-linecap:butt;stroke-linejoin:round">
            <!-- −150 -->
            <defs
               id="defs70">
              <path
                 d="M 10.59375,35.5 H 73.1875 V 27.203125 H 10.59375 Z"
                 id="DejaVuSans-2212"
                 inkscape:connector-curvature="0"
                 style="stroke-linecap:butt;stroke-linejoin:round" />
              <path
                 d="m 12.40625,8.296875 h 16.109375 v 55.625 L 10.984375,60.40625 v 8.984375 l 17.4375,3.515625 H 38.28125 V 8.296875 H 54.390625 V 0 H 12.40625 Z"
                 id="DejaVuSans-31"
                 inkscape:connector-curvature="0"
                 style="stroke-linecap:butt;stroke-linejoin:round" />
              <path
                 d="m 10.796875,72.90625 h 38.71875 v -8.3125 h -29.6875 V 46.734375 q 2.140625,0.734375 4.28125,1.09375 2.15625,0.359375 4.3125,0.359375 Q 40.625,48.1875 47.75,41.5 54.890625,34.8125 54.890625,23.390625 54.890625,11.625 47.5625,5.09375 40.234375,-1.421875 26.90625,-1.421875 q -4.59375,0 -9.359375,0.78125 -4.75,0.78125 -9.828125,2.34375 V 11.625 q 4.390625,-2.390625 9.078125,-3.5625 4.6875,-1.171875 9.90625,-1.171875 8.453125,0 13.375,4.4375 4.9375,4.4375 4.9375,12.0625 0,7.609375 -4.9375,12.046875 -4.921875,4.453125 -13.375,4.453125 -3.953125,0 -7.890625,-0.875 -3.921875,-0.875 -8.015625,-2.734375 z"
                 id="DejaVuSans-35"
                 inkscape:connector-curvature="0"
                 style="stroke-linecap:butt;stroke-linejoin:round" />
              <path
                 d="m 31.78125,66.40625 q -7.609375,0 -11.453125,-7.5 Q 16.5,51.421875 16.5,36.375 q 0,-14.984375 3.828125,-22.484375 3.84375,-7.5 11.453125,-7.5 7.671875,0 11.5,7.5 3.84375,7.5 3.84375,22.484375 0,15.046875 -3.84375,22.53125 -3.828125,7.5 -11.5,7.5 m 0,7.8125 q 12.265625,0 18.734375,-9.703125 6.46875,-9.6875 6.46875,-28.140625 0,-18.40625 -6.46875,-28.109375 -6.46875,-9.6875 -18.734375,-9.6875 -12.25,0 -18.71875,9.6875 Q 6.59375,17.96875 6.59375,36.375 q 0,18.453125 6.46875,28.140625 6.46875,9.703125 18.71875,9.703125"
                 id="DejaVuSans-30"
                 inkscape:connector-curvature="0"
                 style="stroke-linecap:butt;stroke-linejoin:round" />
            </defs>
            <g
               transform="matrix(0.1,0,0,-0.1,19.532812,77.822004)"
               id="g80"
               style="stroke-linecap:butt;stroke-linejoin:round">
              <use
                 xlink:href="#DejaVuSans-2212"
                 id="use72"
                 style="stroke-linecap:butt;stroke-linejoin:round"
                 x="0"
                 y="0"
                 width="100%"
                 height="100%" />
              <use
                 x="83.789062"
                 xlink:href="#DejaVuSans-31"
                 id="use74"
                 style="stroke-linecap:butt;stroke-linejoin:round"
                 y="0"
                 width="100%"
                 height="100%" />
              <use
                 x="147.41211"
                 xlink:href="#DejaVuSans-35"
                 id="use76"
                 style="stroke-linecap:butt;stroke-linejoin:round"
                 y="0"
                 width="100%"
                 height="100%" />
              <use
                 x="211.03516"
                 xlink:href="#DejaVuSans-30"
                 id="use78"
                 style="stroke-linecap:butt;stroke-linejoin:round"
                 y="0"
                 width="100%"
                 height="100%" />
            </g>
          </g>
        </g>
        <g
           id="ytick_2"
           style="stroke-linecap:butt;stroke-linejoin:round">
          <g
             id="line2d_9"
             style="stroke-linecap:butt;stroke-linejoin:round">
            <g
               id="g86"
               style="stroke-linecap:butt;stroke-linejoin:round">
              <use
                 style="stroke:#000000;stroke-width:0.80000001;stroke-linecap:butt;stroke-linejoin:round"
                 x="54"
                 xlink:href="#m1379a70371"
                 y="36.274414"
                 id="use84"
                 width="100%"
                 height="100%" />
            </g>
          </g>
          <g
             id="text_2"
             style="stroke-linecap:butt;stroke-linejoin:round">
            <!-- −100 -->
            <g
               transform="matrix(0.1,0,0,-0.1,19.532812,40.073632)"
               id="g97"
               style="stroke-linecap:butt;stroke-linejoin:round">
              <use
                 xlink:href="#DejaVuSans-2212"
                 id="use89"
                 style="stroke-linecap:butt;stroke-linejoin:round"
                 x="0"
                 y="0"
                 width="100%"
                 height="100%" />
              <use
                 x="83.789062"
                 xlink:href="#DejaVuSans-31"
                 id="use91"
                 style="stroke-linecap:butt;stroke-linejoin:round"
                 y="0"
                 width="100%"
                 height="100%" />
              <use
                 x="147.41211"
                 xlink:href="#DejaVuSans-30"
                 id="use93"
                 style="stroke-linecap:butt;stroke-linejoin:round"
                 y="0"
                 width="100%"
                 height="100%" />
              <use
                 x="211.03516"
                 xlink:href="#DejaVuSans-30"
                 id="use95"
                 style="stroke-linecap:butt;stroke-linejoin:round"
                 y="0"
                 width="100%"
                 height="100%" />
            </g>
          </g>
        </g>
        <g
           id="text_3"
           style="stroke-linecap:butt;stroke-linejoin:round">
          <!-- position $[^{\circ}]$ -->
          <defs
             id="defs111">
            <path
               d="m 18.109375,8.203125 v -29 H 9.078125 V 54.6875 h 9.03125 v -8.296875 q 2.84375,4.875 7.15625,7.234375 Q 29.59375,56 35.59375,56 q 9.96875,0 16.1875,-7.90625 6.234375,-7.90625 6.234375,-20.796875 0,-12.890625 -6.234375,-20.8125 -6.21875,-7.90625 -16.1875,-7.90625 -6,0 -10.328125,2.375 -4.3125,2.375 -7.15625,7.25 M 48.6875,27.296875 q 0,9.90625 -4.078125,15.546875 -4.078125,5.640625 -11.203125,5.640625 -7.140625,0 -11.21875,-5.640625 -4.078125,-5.640625 -4.078125,-15.546875 0,-9.90625 4.078125,-15.546875 4.078125,-5.640625 11.21875,-5.640625 7.125,0 11.203125,5.640625 4.078125,5.640625 4.078125,15.546875"
               id="DejaVuSans-70"
               inkscape:connector-curvature="0"
               style="stroke-linecap:butt;stroke-linejoin:round" />
            <path
               d="m 30.609375,48.390625 q -7.21875,0 -11.421875,-5.640625 -4.203125,-5.640625 -4.203125,-15.453125 0,-9.8125 4.171875,-15.453125 4.1875,-5.640625 11.453125,-5.640625 7.1875,0 11.375,5.65625 4.203125,5.671875 4.203125,15.4375 0,9.71875 -4.203125,15.40625 -4.1875,5.6875 -11.375,5.6875 m 0,7.609375 q 11.71875,0 18.40625,-7.625 6.703125,-7.609375 6.703125,-21.078125 0,-13.421875 -6.703125,-21.078125 -6.6875,-7.640625 -18.40625,-7.640625 -11.765625,0 -18.4375,7.640625 -6.65625,7.65625 -6.65625,21.078125 0,13.46875 6.65625,21.078125 Q 18.84375,56 30.609375,56"
               id="DejaVuSans-6f"
               inkscape:connector-curvature="0"
               style="stroke-linecap:butt;stroke-linejoin:round" />
            <path
               d="m 44.28125,53.078125 v -8.5 Q 40.484375,46.53125 36.375,47.5 q -4.09375,0.984375 -8.5,0.984375 -6.6875,0 -10.03125,-2.046875 Q 14.5,44.390625 14.5,40.28125 q 0,-3.125 2.390625,-4.90625 2.390625,-1.78125 9.625,-3.390625 l 3.078125,-0.6875 Q 39.15625,29.25 43.1875,25.515625 47.21875,21.78125 47.21875,15.09375 q 0,-7.625 -6.03125,-12.078125 -6.03125,-4.4375 -16.578125,-4.4375 -4.390625,0 -9.15625,0.859375 Q 10.6875,0.296875 5.421875,2 v 9.28125 q 4.984375,-2.59375 9.8125,-3.890625 4.828125,-1.28125 9.578125,-1.28125 6.34375,0 9.75,2.171875 3.421875,2.171875 3.421875,6.125 0,3.65625 -2.46875,5.609375 -2.453125,1.953125 -10.8125,3.765625 l -3.125,0.734375 q -8.34375,1.75 -12.0625,5.390625 -3.703125,3.640625 -3.703125,9.984375 0,7.71875 5.46875,11.90625 Q 16.75,56 26.8125,56 q 4.96875,0 9.359375,-0.734375 4.40625,-0.71875 8.109375,-2.1875"
               id="DejaVuSans-73"
               inkscape:connector-curvature="0"
               style="stroke-linecap:butt;stroke-linejoin:round" />
            <path
               d="M 9.421875,54.6875 H 18.40625 V 0 H 9.421875 Z m 0,21.296875 H 18.40625 V 64.59375 H 9.421875 Z"
               id="DejaVuSans-69"
               inkscape:connector-curvature="0"
               style="stroke-linecap:butt;stroke-linejoin:round" />
            <path
               d="M 18.3125,70.21875 V 54.6875 h 18.5 v -6.984375 h -18.5 v -29.6875 q 0,-6.6875 1.828125,-8.59375 1.828125,-1.90625 7.453125,-1.90625 H 36.8125 V 0 H 27.59375 Q 17.1875,0 13.234375,3.875 9.28125,7.765625 9.28125,18.015625 v 29.6875 H 2.6875 V 54.6875 h 6.59375 v 15.53125 z"
               id="DejaVuSans-74"
               inkscape:connector-curvature="0"
               style="stroke-linecap:butt;stroke-linejoin:round" />
            <path
               d="M 54.890625,33.015625 V 0 H 45.90625 v 32.71875 q 0,7.765625 -3.03125,11.609375 -3.03125,3.859375 -9.078125,3.859375 -7.28125,0 -11.484375,-4.640625 -4.203125,-4.625 -4.203125,-12.640625 V 0 h -9.03125 v 54.6875 h 9.03125 v -8.5 q 3.234375,4.9375 7.59375,7.375 4.375,2.4375 10.09375,2.4375 9.421875,0 14.25,-5.828125 4.84375,-5.828125 4.84375,-17.15625"
               id="DejaVuSans-6e"
               inkscape:connector-curvature="0"
               style="stroke-linecap:butt;stroke-linejoin:round" />
            <path
               id="DejaVuSans-20"
               d=""
               inkscape:connector-curvature="0"
               style="stroke-linecap:butt;stroke-linejoin:round" />
            <path
               d="M 8.59375,75.984375 H 29.296875 V 69 H 17.578125 V -6.203125 h 11.71875 V -13.1875 H 8.59375 Z"
               id="DejaVuSans-5b"
               inkscape:connector-curvature="0"
               style="stroke-linecap:butt;stroke-linejoin:round" />
            <path
               d="m 31.25,40.921875 q -3.90625,0 -6.59375,-2.71875 -2.6875,-2.703125 -2.6875,-6.609375 0,-3.859375 2.6875,-6.515625 2.6875,-2.65625 6.59375,-2.65625 3.90625,0 6.59375,2.65625 2.6875,2.65625 2.6875,6.515625 0,3.859375 -2.71875,6.59375 -2.703125,2.734375 -6.5625,2.734375 m 0,6.296875 q 3.125,0 6,-1.203125 2.890625,-1.1875 4.984375,-3.4375 2.25,-2.1875 3.375,-4.984375 1.125,-2.78125 1.125,-6 0,-6.4375 -4.515625,-10.90625 -4.515625,-4.46875 -11.0625,-4.46875 -6.59375,0 -11,4.390625 Q 15.765625,25 15.765625,31.59375 q 0,6.546875 4.484375,11.078125 4.5,4.546875 11,4.546875"
               id="DejaVuSans-2218"
               inkscape:connector-curvature="0"
               style="stroke-linecap:butt;stroke-linejoin:round" />
            <path
               d="M 30.421875,75.984375 V -13.1875 H 9.71875 v 6.984375 H 21.390625 V 69 H 9.71875 v 6.984375 z"
               id="DejaVuSans-5d"
               inkscape:connector-curvature="0"
               style="stroke-linecap:butt;stroke-linejoin:round" />
          </defs>
          <g
             transform="matrix(0,-0.1,-0.1,0,13.432812,94.236471)"
             id="g137"
             style="stroke-linecap:butt;stroke-linejoin:round">
            <use
               transform="translate(0,0.015625)"
               xlink:href="#DejaVuSans-70"
               id="use113"
               style="stroke-linecap:butt;stroke-linejoin:round"
               x="0"
               y="0"
               width="100%"
               height="100%" />
            <use
               transform="translate(63.476562,0.015625)"
               xlink:href="#DejaVuSans-6f"
               id="use115"
               style="stroke-linecap:butt;stroke-linejoin:round"
               x="0"
               y="0"
               width="100%"
               height="100%" />
            <use
               transform="translate(124.6582,0.015625)"
               xlink:href="#DejaVuSans-73"
               id="use117"
               style="stroke-linecap:butt;stroke-linejoin:round"
               x="0"
               y="0"
               width="100%"
               height="100%" />
            <use
               transform="translate(176.75781,0.015625)"
               xlink:href="#DejaVuSans-69"
               id="use119"
               style="stroke-linecap:butt;stroke-linejoin:round"
               x="0"
               y="0"
               width="100%"
               height="100%" />
            <use
               transform="translate(204.54102,0.015625)"
               xlink:href="#DejaVuSans-74"
               id="use121"
               style="stroke-linecap:butt;stroke-linejoin:round"
               x="0"
               y="0"
               width="100%"
               height="100%" />
            <use
               transform="translate(243.75,0.015625)"
               xlink:href="#DejaVuSans-69"
               id="use123"
               style="stroke-linecap:butt;stroke-linejoin:round"
               x="0"
               y="0"
               width="100%"
               height="100%" />
            <use
               transform="translate(271.5332,0.015625)"
               xlink:href="#DejaVuSans-6f"
               id="use125"
               style="stroke-linecap:butt;stroke-linejoin:round"
               x="0"
               y="0"
               width="100%"
               height="100%" />
            <use
               transform="translate(332.71484,0.015625)"
               xlink:href="#DejaVuSans-6e"
               id="use127"
               style="stroke-linecap:butt;stroke-linejoin:round"
               x="0"
               y="0"
               width="100%"
               height="100%" />
            <use
               transform="translate(396.09375,0.015625)"
               xlink:href="#DejaVuSans-20"
               id="use129"
               style="stroke-linecap:butt;stroke-linejoin:round"
               x="0"
               y="0"
               width="100%"
               height="100%" />
            <use
               transform="translate(427.88086,0.015625)"
               xlink:href="#DejaVuSans-5b"
               id="use131"
               style="stroke-linecap:butt;stroke-linejoin:round"
               x="0"
               y="0"
               width="100%"
               height="100%" />
            <use
               transform="matrix(0.7,0,0,0.7,467.85156,38.296875)"
               xlink:href="#DejaVuSans-2218"
               id="use133"
               style="stroke-linecap:butt;stroke-linejoin:round"
               x="0"
               y="0"
               width="100%"
               height="100%" />
            <use
               transform="translate(514.4043,0.015625)"
               xlink:href="#DejaVuSans-5d"
               id="use135"
               style="stroke-linecap:butt;stroke-linejoin:round"
               x="0"
               y="0"
               width="100%"
               height="100%" />
          </g>
        </g>
      </g>
      <g
         id="line2d_10"
         style="stroke-linecap:butt;stroke-linejoin:round">
        <path
           clip-path="url(#p4b565d7c61)"
           d="m 69.218182,93.349934 v -0.06635 l 30.232095,-0.06636 v -0.06635 l 1.594613,-0.06636 v -0.06635 l 1.06022,-0.06635 v -0.06636 l 1.06023,-0.06635 v -0.13271 h 0.53018 v -0.132709 h 0.53061 V 92.42097 h 0.53034 v -0.199063 h 0.53029 v -0.199064 h 0.53024 v -0.199064 h 0.53061 v -0.199064 h 0.53039 v -0.199064 h 0.53107 v -0.265417 h 0.53019 V 90.96117 h 0.53014 v -0.199064 h 0.53024 v -0.265418 h 0.53019 v -0.199064 h 0.53086 v -0.265418 h 0.53013 v -0.265418 h 0.53009 v -0.265419 h 0.53013 v -0.265418 h 0.53019 v -0.331772 h 0.53009 V 88.63876 h 0.53013 v -0.265418 h 0.53009 v -0.331773 h 0.53024 v -0.265418 h 0.53018 v -0.331773 h 0.53019 v -0.331773 h 0.53014 v -0.331772 h 0.53019 V 86.44906 h 0.53206 v -0.398128 h 0.53044 v -0.398127 h 0.53024 v -0.331773 h 0.53035 v -0.398127 h 0.53034 v -0.398128 h 0.53071 v -0.862609 h 0.53544 v -0.398127 h 0.53013 v -0.464482 h 0.53034 v -0.398128 h 0.53051 v -0.530836 h 0.53008 v -0.464482 h 0.5306 v -0.398128 h 0.53009 v -0.464481 h 0.53003 v -0.464482 h 0.53055 v -0.468629 h 0.53014 v -0.464482 h 0.53107 v -0.464482 h 0.53013 v -0.464482 h 0.53024 V 77.68611 h 0.5305 v -0.530836 h 0.53035 V 76.690792 H 128.097 V 76.22631 h 0.53014 v -0.464482 h 0.52998 v -0.530836 h 0.53045 v -0.464483 h 0.53013 v -0.464481 h 0.53019 v -0.464482 h 0.53024 v -0.464482 h 0.53045 v -0.530837 h 0.5305 v -0.464481 h 0.5304 v -0.464482 h 0.53008 v -0.464483 h 0.53003 v -0.530836 h 0.53045 v -0.464482 h 0.53034 v -0.464482 h 0.53009 v -0.530837 h 0.53008 v -0.464481 h 0.53305 v -0.464482 h 0.53029 v -0.530836 h 0.52998 v -0.464483 h 0.52993 v -0.464481 h 0.53003 v -0.530837 h 0.52998 v -0.464482 h 0.53008 v -0.530836 h 0.53009 v -0.464482 h 0.53055 v -0.464482 h 0.53003 v -0.597191 h 0.52993 v -0.464482 h 0.52998 v -0.530837 h 0.52993 v -0.468629 h 0.53003 v -0.530836 h 0.52998 V 61.49145 h 0.53003 v -0.464482 h 0.52993 v -0.530836 h 0.53003 v -0.530837 h 0.52993 v -0.331772 h 0.53008 V 59.16904 h 0.53004 v -0.530836 h 0.52998 v -0.530837 h 0.53013 v -0.530836 h 0.53009 v -0.464482 h 0.52998 v -0.530836 h 0.52998 v -0.530837 h 0.52998 v -0.464481 h 0.53195 v -0.530837 h 0.53066 v -0.530836 h 0.53008 v -0.464483 h 0.53003 v -0.530836 h 0.52998 v -0.464482 h 0.53061 v -0.464482 h 0.53013 v -0.398127 h 0.52998 v -0.464483 h 0.53004 v -0.464481 h 0.53003 v -0.464482 h 0.53471 v -0.928964 h 0.53013 v -0.398128 h 0.53009 v -0.464481 h 0.53008 v -0.398128 h 0.53008 v -0.398127 h 0.53045 v -0.398127 h 0.53029 v -0.398128 h 0.53014 v -0.331772 h 0.53003 v -0.398128 h 0.53024 v -0.398127 h 0.53009 v -0.331773 h 0.53112 v -0.402275 h 0.53003 v -0.331773 h 0.53009 v -0.331772 h 0.53008 v -0.265419 h 0.53019 v -0.331773 h 0.53019 v -0.331772 h 0.53013 v -0.331773 h 0.53019 v -0.331773 h 0.53008 v -0.331772 h 0.53019 v -0.265419 h 0.53019 v -0.331773 h 0.53019 v -0.199064 h 0.53008 v -0.331772 h 0.53003 v -0.265418 h 0.53024 v -0.199064 h 0.53009 v -0.265419 h 0.53013 v -0.265417 h 0.53009 v -0.199064 h 0.53013 v -0.199064 h 0.53009 v -0.199064 h 0.5307 v -0.199064 h 0.53165 v -0.199063 h 0.53107 v -0.199064 h 0.53003 v -0.199063 h 0.53071 v -0.13271 h 0.53003 v -0.199064 h 0.52998 v -0.199063 h 0.53107 v -0.132709 h 0.53081 v -0.132709 h 0.53019 v -0.132709 h 0.53003 v -0.132709 h 0.53009 v -0.13271 h 0.53013 v -0.132709 h 0.53024 v -0.132709 l 1.06028,-0.06635 v -0.06636 l 1.06011,-0.06635 v -0.06635 l 1.0727,-0.06635 v -0.06636 l 1.59004,-0.06635 v -0.06635 l 59.9367,0.06635 v 0.06635 l 1.06308,0.06636 v 0.06635 h 0.52988 v 0.132709 l 1.05939,0.06636 v 0.06635 l 1.05985,0.06635 v 0.13271 l 1.05981,0.06635 v 0.13271 l 2.65021,0.06635 v 0.132709 h 0.5306 v 0.13271 h 0.53009 v 0.199063 h 0.53003 v 0.265418 h 0.52998 v 0.199064 l 1.06012,0.06636 v 0.06635 h 0.53003 v 0.132709 h 0.52998 v 0.13271 h 0.52998 v 0.199063 h 0.52993 v 0.265418 h 0.5306 v 0.265419 h 0.52998 v 0.132709 l 1.06012,0.06635 v 0.06636 h 0.52992 v 0.132709 h 0.53045 v 0.199063 h 0.53009 v 0.199064 h 0.52998 v 0.331773 h 0.53003 v 0.199064 h 0.53003 v 0.199064 h 0.53014 v 0.132708 h 0.53008 v 0.132709 h 0.52972 v 0.265419 h 0.53585 v 0.597191 h 0.53009 v 0.331773 h 0.5307 v 0.199064 h 0.53009 v 0.199063 h 0.53013 v 0.265418 h 0.52999 v 0.265418 h 0.53356 v 0.331774 h 0.53035 v 0.331773 h 0.53003 v 0.464481 h 0.53024 v 0.269566 h 0.53013 v 0.199064 h 0.52998 V 46.2299 h 0.53014 v 0.199063 h 0.53008 v 0.331774 h 0.53029 v 0.265418 h 0.53025 v 0.530836 h 0.53018 v 0.398128 h 0.53009 v 0.265418 h 0.53008 v 0.265418 h 0.53076 v 0.265418 h 0.53003 v 0.331773 h 0.53003 v 0.331773 h 0.53004 v 0.398127 h 0.53019 v 0.530837 h 0.53018 v 0.331772 h 0.53024 v 0.398128 h 0.53009 v 0.331773 h 0.53039 v 0.398127 h 0.53003 v 0.464482 h 0.52998 v 0.464482 h 0.53191 v 0.597191 h 0.52961 v 0.398127 h 0.52983 v 0.398128 h 0.52977 v 0.265418 h 0.52977 v 0.265418 h 0.52962 v 0.398128 h 0.52998 v 0.398127 h 0.52962 v 0.464482 h 0.52977 v 0.530837 h 0.52977 v 0.398127 h 0.52987 v 0.265418 h 0.52967 v 0.331773 h 0.52962 v 0.265418 h 0.52962 v 0.464482 h 0.52972 v 0.464482 h 0.52909 v 0.597191 h 0.52931 v 0.398128 h 0.52935 v 0.265418 h 0.52941 v 0.199063 h 0.52925 v 0.199064 h 0.52941 v 0.331773 h 0.52931 v 0.265418 h 0.53003 v 0.398127 h 0.52946 v 0.729901 h 0.52946 v 0.398127 h 0.53081 v 0.33592 h 0.53123 v 0.265418 h 0.528 v 0.265418 h 0.52962 v 0.331773 h 0.52956 v 0.331773 h 0.52889 v 0.265418 h 0.52957 v 0.663546 h 0.52961 v 0.530836 h 0.52983 v 0.331773 h 0.52966 v 0.265419 h 0.52936 v 0.199063 h 0.52977 v 0.331773 h 0.52941 v 0.331773 h 0.52951 v 0.464481 h 0.52983 v 0.663547 h 0.52946 v 0.530836 h 0.5359 v 0.464482 h 0.53024 v 0.265418 h 0.5305 v 0.265418 h 0.52998 v 0.331773 h 0.53014 V 70.2544 h 0.53014 v 0.663545 h 0.53013 v 0.398128 h 0.53029 v 0.265417 h 0.53004 v 0.265419 h 0.53018 v 0.199064 h 0.53009 v 0.331773 h 0.53029 v 0.331772 h 0.53039 v 0.530837 h 0.53009 V 73.9039 h 0.53019 v 0.331773 h 0.53008 v 0.331773 h 0.53014 v 0.265418 h 0.53019 v 0.265419 h 0.53008 v 0.398127 h 0.53117 v 0.398127 h 0.53009 v 0.530837 h 0.53019 v 0.597191 h 0.53055 v 0.398127 h 0.53024 v 0.265418 h 0.53034 v 0.265418 h 0.53144 v 0.265419 h 0.5306 v 0.331773 h 0.5304 v 0.464481 h 0.5305 v 0.663546 h 0.5305 v 0.534984 h 0.53029 v 0.199064 h 0.53013 v 0.265418 h 0.53024 v 0.199063 h 0.53066 v 0.331773 h 0.53003 v 0.331773 h 0.53035 v 0.398127 h 0.53075 v 0.663546 h 0.5303 v 0.464482 h 0.5306 v 0.265418 h 0.53008 v 0.199064 h 0.53004 v 0.132709 h 0.53143 v 0.331773 h 0.53019 v 0.265418 h 0.53055 v 0.398128 h 0.53019 v 0.59719 h 0.53003 v 0.464483 h 0.53009 v 0.199064 h 0.53008 v 0.199063 h 0.53014 v 0.199063 h 0.53003 v 0.199064 h 0.53013 v 0.331773 h 0.53009 v 0.398127 h 0.53029 v 0.530837 h 0.53008 v 0.398127 h 0.53004 v 0.199064 h 0.53013 v 0.132709 h 0.53009 v 0.199064 h 0.53039 v 0.199064 h 0.53003 v 0.265418 h 0.53004 v 0.398127 h 0.53003 v 0.464482 h 0.53024 v 0.199064 l 1.06058,0.06635 v 0.06635 l 1.05996,0.06636 v 0.132709 h 0.53024 v 0.13271 h 0.53102 v 0.398127 h 0.53455 v 0.464482 l 1.05919,0.06635 v 0.06636 h 0.52966 v 0.132709 l 1.05929,0.06636 v 0.199064 h 0.52961 v 0.398126 h 0.52936 v 0.265419 h 0.52946 v 0.132709 l 2.11831,0.06636 v 0.06635 h 0.52998 v 0.199064 h 0.53086 v 0.331772 h 0.52993 v 0.199064 h 3.1778 v 0.13271 h 0.53118 v 0.331773 h 0.5292 v 0.132709 l 3.18081,0.06635 v 0.199063 h 0.5291 v 0.265419 l 3.17707,0.06636 v 0.132709 h 0.52946 v 0.199064 l 3.70555,0.06635 v 0.132709 l 3.70705,0.06635 v 0.06635 h 8.47054 v 0"
           style="fill:none;stroke:#1f77b4;stroke-width:0.75;stroke-linecap:square;stroke-linejoin:round;stroke-miterlimit:4;stroke-dasharray:none"
           id="path141"
           inkscape:connector-curvature="0" />
      </g>
      <g
         id="patch_3"
         style="stroke-linecap:butt;stroke-linejoin:round">
        <path
           d="M 54,98.512941 V 34.56"
           style="fill:none;stroke:#000000;stroke-width:0.80000001;stroke-linecap:square;stroke-linejoin:miter"
           id="path144"
           inkscape:connector-curvature="0" />
      </g>
      <g
         id="patch_4"
         style="stroke-linecap:butt;stroke-linejoin:round">
        <path
           d="M 388.8,98.512941 V 34.56"
           style="fill:none;stroke:#000000;stroke-width:0.80000001;stroke-linecap:square;stroke-linejoin:miter"
           id="path147"
           inkscape:connector-curvature="0" />
      </g>
      <g
         id="patch_5"
         style="stroke-linecap:butt;stroke-linejoin:round">
        <path
           d="M 54,98.512941 H 388.8"
           style="fill:none;stroke:#000000;stroke-width:0.80000001;stroke-linecap:square;stroke-linejoin:miter"
           id="path150"
           inkscape:connector-curvature="0" />
      </g>
      <g
         id="patch_6"
         style="stroke-linecap:butt;stroke-linejoin:round">
        <path
           d="M 54,34.56 H 388.8"
           style="fill:none;stroke:#000000;stroke-width:0.80000001;stroke-linecap:square;stroke-linejoin:miter"
           id="path153"
           inkscape:connector-curvature="0" />
      </g>
    </g>
    <g
       id="axes_2"
       style="stroke-linecap:butt;stroke-linejoin:round">
      <g
         id="patch_7"
         style="stroke-linecap:butt;stroke-linejoin:round">
        <path
           d="M 54,175.25647 H 388.8 V 111.30353 H 54 Z"
           style="fill:#ffffff;stroke-linecap:butt;stroke-linejoin:round"
           id="path157"
           inkscape:connector-curvature="0" />
      </g>
      <g
         id="matplotlib.axis_3"
         style="stroke-linecap:butt;stroke-linejoin:round">
        <g
           id="xtick_8"
           style="stroke-linecap:butt;stroke-linejoin:round">
          <g
             id="line2d_11"
             style="stroke-linecap:butt;stroke-linejoin:round">
            <g
               id="g162"
               style="stroke-linecap:butt;stroke-linejoin:round">
              <use
                 style="stroke:#000000;stroke-width:0.80000001;stroke-linecap:butt;stroke-linejoin:round"
                 x="69.218185"
                 xlink:href="#m3cc6b344ac"
                 y="175.25647"
                 id="use160"
                 width="100%"
                 height="100%" />
            </g>
          </g>
        </g>
        <g
           id="xtick_9"
           style="stroke-linecap:butt;stroke-linejoin:round">
          <g
             id="line2d_12"
             style="stroke-linecap:butt;stroke-linejoin:round">
            <g
               id="g168"
               style="stroke-linecap:butt;stroke-linejoin:round">
              <use
                 style="stroke:#000000;stroke-width:0.80000001;stroke-linecap:butt;stroke-linejoin:round"
                 x="121.1923"
                 xlink:href="#m3cc6b344ac"
                 y="175.25647"
                 id="use166"
                 width="100%"
                 height="100%" />
            </g>
          </g>
        </g>
        <g
           id="xtick_10"
           style="stroke-linecap:butt;stroke-linejoin:round">
          <g
             id="line2d_13"
             style="stroke-linecap:butt;stroke-linejoin:round">
            <g
               id="g174"
               style="stroke-linecap:butt;stroke-linejoin:round">
              <use
                 style="stroke:#000000;stroke-width:0.80000001;stroke-linecap:butt;stroke-linejoin:round"
                 x="173.16641"
                 xlink:href="#m3cc6b344ac"
                 y="175.25647"
                 id="use172"
                 width="100%"
                 height="100%" />
            </g>
          </g>
        </g>
        <g
           id="xtick_11"
           style="stroke-linecap:butt;stroke-linejoin:round">
          <g
             id="line2d_14"
             style="stroke-linecap:butt;stroke-linejoin:round">
            <g
               id="g180"
               style="stroke-linecap:butt;stroke-linejoin:round">
              <use
                 style="stroke:#000000;stroke-width:0.80000001;stroke-linecap:butt;stroke-linejoin:round"
                 x="225.14052"
                 xlink:href="#m3cc6b344ac"
                 y="175.25647"
                 id="use178"
                 width="100%"
                 height="100%" />
            </g>
          </g>
        </g>
        <g
           id="xtick_12"
           style="stroke-linecap:butt;stroke-linejoin:round">
          <g
             id="line2d_15"
             style="stroke-linecap:butt;stroke-linejoin:round">
            <g
               id="g186"
               style="stroke-linecap:butt;stroke-linejoin:round">
              <use
                 style="stroke:#000000;stroke-width:0.80000001;stroke-linecap:butt;stroke-linejoin:round"
                 x="277.11462"
                 xlink:href="#m3cc6b344ac"
                 y="175.25647"
                 id="use184"
                 width="100%"
                 height="100%" />
            </g>
          </g>
        </g>
        <g
           id="xtick_13"
           style="stroke-linecap:butt;stroke-linejoin:round">
          <g
             id="line2d_16"
             style="stroke-linecap:butt;stroke-linejoin:round">
            <g
               id="g192"
               style="stroke-linecap:butt;stroke-linejoin:round">
              <use
                 style="stroke:#000000;stroke-width:0.80000001;stroke-linecap:butt;stroke-linejoin:round"
                 x="329.08875"
                 xlink:href="#m3cc6b344ac"
                 y="175.25647"
                 id="use190"
                 width="100%"
                 height="100%" />
            </g>
          </g>
        </g>
        <g
           id="xtick_14"
           style="stroke-linecap:butt;stroke-linejoin:round">
          <g
             id="line2d_17"
             style="stroke-linecap:butt;stroke-linejoin:round">
            <g
               id="g198"
               style="stroke-linecap:butt;stroke-linejoin:round">
              <use
                 style="stroke:#000000;stroke-width:0.80000001;stroke-linecap:butt;stroke-linejoin:round"
                 x="381.06287"
                 xlink:href="#m3cc6b344ac"
                 y="175.25647"
                 id="use196"
                 width="100%"
                 height="100%" />
            </g>
          </g>
        </g>
      </g>
      <g
         id="matplotlib.axis_4"
         style="stroke-linecap:butt;stroke-linejoin:round">
        <g
           id="ytick_3"
           style="stroke-linecap:butt;stroke-linejoin:round">
          <g
             id="line2d_18"
             style="stroke-linecap:butt;stroke-linejoin:round">
            <g
               id="g205"
               style="stroke-linecap:butt;stroke-linejoin:round">
              <use
                 style="stroke:#000000;stroke-width:0.80000001;stroke-linecap:butt;stroke-linejoin:round"
                 x="54"
                 xlink:href="#m1379a70371"
                 y="166.18347"
                 id="use203"
                 width="100%"
                 height="100%" />
            </g>
          </g>
          <g
             id="text_4"
             style="stroke-linecap:butt;stroke-linejoin:round">
            <!-- −50 -->
            <g
               transform="matrix(0.1,0,0,-0.1,25.895312,169.98269)"
               id="g214"
               style="stroke-linecap:butt;stroke-linejoin:round">
              <use
                 xlink:href="#DejaVuSans-2212"
                 id="use208"
                 style="stroke-linecap:butt;stroke-linejoin:round"
                 x="0"
                 y="0"
                 width="100%"
                 height="100%" />
              <use
                 x="83.789062"
                 xlink:href="#DejaVuSans-35"
                 id="use210"
                 style="stroke-linecap:butt;stroke-linejoin:round"
                 y="0"
                 width="100%"
                 height="100%" />
              <use
                 x="147.41211"
                 xlink:href="#DejaVuSans-30"
                 id="use212"
                 style="stroke-linecap:butt;stroke-linejoin:round"
                 y="0"
                 width="100%"
                 height="100%" />
            </g>
          </g>
        </g>
        <g
           id="ytick_4"
           style="stroke-linecap:butt;stroke-linejoin:round">
          <g
             id="line2d_19"
             style="stroke-linecap:butt;stroke-linejoin:round">
            <g
               id="g220"
               style="stroke-linecap:butt;stroke-linejoin:round">
              <use
                 style="stroke:#000000;stroke-width:0.80000001;stroke-linecap:butt;stroke-linejoin:round"
                 x="54"
                 xlink:href="#m1379a70371"
                 y="143.10378"
                 id="use218"
                 width="100%"
                 height="100%" />
            </g>
          </g>
          <g
             id="text_5"
             style="stroke-linecap:butt;stroke-linejoin:round">
            <!-- 0 -->
            <g
               transform="matrix(0.1,0,0,-0.1,40.6375,146.90299)"
               id="g225"
               style="stroke-linecap:butt;stroke-linejoin:round">
              <use
                 xlink:href="#DejaVuSans-30"
                 id="use223"
                 style="stroke-linecap:butt;stroke-linejoin:round"
                 x="0"
                 y="0"
                 width="100%"
                 height="100%" />
            </g>
          </g>
        </g>
        <g
           id="ytick_5"
           style="stroke-linecap:butt;stroke-linejoin:round">
          <g
             id="line2d_20"
             style="stroke-linecap:butt;stroke-linejoin:round">
            <g
               id="g231"
               style="stroke-linecap:butt;stroke-linejoin:round">
              <use
                 style="stroke:#000000;stroke-width:0.80000001;stroke-linecap:butt;stroke-linejoin:round"
                 x="54"
                 xlink:href="#m1379a70371"
                 y="120.02408"
                 id="use229"
                 width="100%"
                 height="100%" />
            </g>
          </g>
          <g
             id="text_6"
             style="stroke-linecap:butt;stroke-linejoin:round">
            <!-- 50 -->
            <g
               transform="matrix(0.1,0,0,-0.1,34.275,123.82329)"
               id="g238"
               style="stroke-linecap:butt;stroke-linejoin:round">
              <use
                 xlink:href="#DejaVuSans-35"
                 id="use234"
                 style="stroke-linecap:butt;stroke-linejoin:round"
                 x="0"
                 y="0"
                 width="100%"
                 height="100%" />
              <use
                 x="63.623047"
                 xlink:href="#DejaVuSans-30"
                 id="use236"
                 style="stroke-linecap:butt;stroke-linejoin:round"
                 y="0"
                 width="100%"
                 height="100%" />
            </g>
          </g>
        </g>
        <g
           id="text_7"
           style="stroke-linecap:butt;stroke-linejoin:round">
          <!-- velocity $[^{\circ}/s]$ -->
          <defs
             id="defs249">
            <path
               d="M 2.984375,54.6875 H 12.5 L 29.59375,8.796875 46.6875,54.6875 h 9.515625 L 35.6875,0 H 23.484375 Z"
               id="DejaVuSans-76"
               inkscape:connector-curvature="0"
               style="stroke-linecap:butt;stroke-linejoin:round" />
            <path
               d="m 56.203125,29.59375 v -4.390625 h -41.3125 q 0.59375,-9.28125 5.59375,-14.140625 5,-4.859375 13.9375,-4.859375 5.171875,0 10.03125,1.265625 4.859375,1.265625 9.65625,3.8125 v -8.5 q -4.84375,-2.046875 -9.921875,-3.125 -5.078125,-1.078125 -10.296875,-1.078125 -13.09375,0 -20.734375,7.609375 -7.640625,7.625 -7.640625,20.625 0,13.421875 7.25,21.296875 Q 20.015625,56 32.328125,56 q 11.03125,0 17.453125,-7.109375 6.421875,-7.09375 6.421875,-19.296875 m -8.984375,2.640625 q -0.09375,7.359375 -4.125,11.75 -4.03125,4.40625 -10.671875,4.40625 -7.515625,0 -12.03125,-4.25 -4.515625,-4.25 -5.203125,-11.96875 z"
               id="DejaVuSans-65"
               inkscape:connector-curvature="0"
               style="stroke-linecap:butt;stroke-linejoin:round" />
            <path
               d="M 9.421875,75.984375 H 18.40625 V 0 H 9.421875 Z"
               id="DejaVuSans-6c"
               inkscape:connector-curvature="0"
               style="stroke-linecap:butt;stroke-linejoin:round" />
            <path
               d="M 48.78125,52.59375 V 44.1875 q -3.8125,2.109375 -7.640625,3.15625 -3.828125,1.046875 -7.734375,1.046875 -8.75,0 -13.59375,-5.546875 -4.828125,-5.53125 -4.828125,-15.546875 0,-10.015625 4.828125,-15.5625 4.84375,-5.53125 13.59375,-5.53125 3.90625,0 7.734375,1.046875 3.828125,1.046875 7.640625,3.15625 v -8.3125 q -3.765625,-1.75 -7.796875,-2.625 -4.015625,-0.890625 -8.5625,-0.890625 -12.359375,0 -19.640625,7.765625 -7.265625,7.765625 -7.265625,20.953125 0,13.375 7.34375,21.03125 Q 20.21875,56 33.015625,56 q 4.140625,0 8.09375,-0.859375 3.953125,-0.84375 7.671875,-2.546875"
               id="DejaVuSans-63"
               inkscape:connector-curvature="0"
               style="stroke-linecap:butt;stroke-linejoin:round" />
            <path
               d="M 32.171875,-5.078125 Q 28.375,-14.84375 24.75,-17.8125 q -3.609375,-2.984375 -9.65625,-2.984375 h -7.1875 v 7.515625 h 5.28125 q 3.703125,0 5.75,1.765625 2.0625,1.75 4.546875,8.296875 L 25.09375,0.875 2.984375,54.6875 H 12.5 L 29.59375,11.921875 46.6875,54.6875 h 9.515625 z"
               id="DejaVuSans-79"
               inkscape:connector-curvature="0"
               style="stroke-linecap:butt;stroke-linejoin:round" />
            <path
               d="M 25.390625,72.90625 H 33.6875 L 8.296875,-9.28125 H 0 Z"
               id="DejaVuSans-2f"
               inkscape:connector-curvature="0"
               style="stroke-linecap:butt;stroke-linejoin:round" />
            <path
               d="m 50,53.078125 -1.703125,-8.5 Q 44.734375,46.53125 40.765625,47.5 36.8125,48.484375 32.625,48.484375 q -7.09375,0 -11.171875,-2.421875 -4.0625,-2.40625 -4.0625,-6.5625 0,-4.828125 9.46875,-7.421875 0.734375,-0.1875 1.078125,-0.296875 l 2.875,-0.875 q 8.984375,-2.484375 11.984375,-5.21875 3,-2.734375 3,-7.46875 0,-8.703125 -6.90625,-14.171875 -6.90625,-5.46875 -18.09375,-5.46875 -4.34375,0 -9.125,0.84375 Q 6.890625,0.25 1.125,2 l 1.75,9.28125 q 4.9375,-2.546875 9.71875,-3.859375 4.796875,-1.3125 9.1875,-1.3125 6.59375,0 10.71875,2.828125 4.125,2.828125 4.125,7.171875 0,4.6875 -10.84375,7.578125 l -0.921875,0.234375 -3.078125,0.78125 Q 14.9375,26.515625 11.765625,29.46875 8.59375,32.421875 8.59375,37.015625 8.59375,45.75 15.15625,50.875 21.734375,56 33.015625,56 q 4.4375,0 8.65625,-0.734375 Q 45.90625,54.546875 50,53.078125"
               id="DejaVuSans-Oblique-73"
               inkscape:connector-curvature="0"
               style="stroke-linecap:butt;stroke-linejoin:round" />
          </defs>
          <g
             transform="matrix(0,-0.1,-0.1,0,19.795312,174.98)"
             id="g279"
             style="stroke-linecap:butt;stroke-linejoin:round">
            <use
               transform="translate(0,0.015625)"
               xlink:href="#DejaVuSans-76"
               id="use251"
               style="stroke-linecap:butt;stroke-linejoin:round"
               x="0"
               y="0"
               width="100%"
               height="100%" />
            <use
               transform="translate(59.179688,0.015625)"
               xlink:href="#DejaVuSans-65"
               id="use253"
               style="stroke-linecap:butt;stroke-linejoin:round"
               x="0"
               y="0"
               width="100%"
               height="100%" />
            <use
               transform="translate(120.70313,0.015625)"
               xlink:href="#DejaVuSans-6c"
               id="use255"
               style="stroke-linecap:butt;stroke-linejoin:round"
               x="0"
               y="0"
               width="100%"
               height="100%" />
            <use
               transform="translate(148.48633,0.015625)"
               xlink:href="#DejaVuSans-6f"
               id="use257"
               style="stroke-linecap:butt;stroke-linejoin:round"
               x="0"
               y="0"
               width="100%"
               height="100%" />
            <use
               transform="translate(209.66797,0.015625)"
               xlink:href="#DejaVuSans-63"
               id="use259"
               style="stroke-linecap:butt;stroke-linejoin:round"
               x="0"
               y="0"
               width="100%"
               height="100%" />
            <use
               transform="translate(264.64844,0.015625)"
               xlink:href="#DejaVuSans-69"
               id="use261"
               style="stroke-linecap:butt;stroke-linejoin:round"
               x="0"
               y="0"
               width="100%"
               height="100%" />
            <use
               transform="translate(292.43164,0.015625)"
               xlink:href="#DejaVuSans-74"
               id="use263"
               style="stroke-linecap:butt;stroke-linejoin:round"
               x="0"
               y="0"
               width="100%"
               height="100%" />
            <use
               transform="translate(331.64062,0.015625)"
               xlink:href="#DejaVuSans-79"
               id="use265"
               style="stroke-linecap:butt;stroke-linejoin:round"
               x="0"
               y="0"
               width="100%"
               height="100%" />
            <use
               transform="translate(390.82031,0.015625)"
               xlink:href="#DejaVuSans-20"
               id="use267"
               style="stroke-linecap:butt;stroke-linejoin:round"
               x="0"
               y="0"
               width="100%"
               height="100%" />
            <use
               transform="translate(422.60742,0.015625)"
               xlink:href="#DejaVuSans-5b"
               id="use269"
               style="stroke-linecap:butt;stroke-linejoin:round"
               x="0"
               y="0"
               width="100%"
               height="100%" />
            <use
               transform="matrix(0.7,0,0,0.7,462.57812,38.296875)"
               xlink:href="#DejaVuSans-2218"
               id="use271"
               style="stroke-linecap:butt;stroke-linejoin:round"
               x="0"
               y="0"
               width="100%"
               height="100%" />
            <use
               transform="translate(509.13086,0.015625)"
               xlink:href="#DejaVuSans-2f"
               id="use273"
               style="stroke-linecap:butt;stroke-linejoin:round"
               x="0"
               y="0"
               width="100%"
               height="100%" />
            <use
               transform="translate(542.82227,0.015625)"
               xlink:href="#DejaVuSans-Oblique-73"
               id="use275"
               style="stroke-linecap:butt;stroke-linejoin:round"
               x="0"
               y="0"
               width="100%"
               height="100%" />
            <use
               transform="translate(594.92187,0.015625)"
               xlink:href="#DejaVuSans-5d"
               id="use277"
               style="stroke-linecap:butt;stroke-linejoin:round"
               x="0"
               y="0"
               width="100%"
               height="100%" />
          </g>
        </g>
      </g>
      <g
         id="line2d_21"
         style="stroke-linecap:butt;stroke-linejoin:round">
        <path
           clip-path="url(#pe1b631375b)"
           d="m 69.218182,143.04546 h 0.5305 v 0 0 h 0.530499 v 0 0 h 0.5305 v 0 0 h 0.53024 v 0 0 h 0.530136 v 0 0 h 0.530708 v 0 0 h 0.530084 v 0 0 h 0.530136 v 0 0 h 0.530084 v 0 0 h 0.530136 v 0 0 h 0.530292 v 0 0 h 0.530447 v 0 0 h 0.530188 v 0 0 h 0.530188 v 0 0 h 0.530136 v 0 0 h 0.530188 v 0 0 h 0.530292 v 0 0 h 0.530188 v 0 0 h 0.530084 v 0 0 h 0.5305 v 0 0 h 0.530032 v 0 0 h 0.530032 v 0 0 h 0.530084 v 0 0 h 0.52998 v 0 0 h 0.531747 v 0 0 h 0.530188 v 0 0 h 0.536373 v 0 0 h 0.530967 v 0.23327 h 0.530032 v -0.17495 l 10.074195,0.0583 v 0.1775 h 0.53024 v -0.1775 h 0.530188 v 0.1775 h 0.530656 v 0.11663 l 1.060895,0.0583 v 0.29667 l 1.060636,0.0583 v 0.23581 h 0.530136 v 0.23581 h 0.530188 v 0.47163 h 0.530084 v 0.29413 h 0.530289 v 0.70743 h 0.53424 v 0.47163 h 0.53014 v 0.59079 h 0.53008 v 0.82408 h 0.53009 v 1.12074 h 0.53014 v 1.12074 h 0.53018 v 0.5908 h 0.53061 v 1.17906 h 0.53034 v 1.29569 h 0.53029 v 1.06242 h 0.53024 v 0.23582 h 0.53061 v 0.47162 h 0.53039 v 0.47162 h 1.06126 v 0.47163 h 0.53014 v -0.11664 h 0.53024 v 0.23581 h 0.53019 v 0.82407 h 0.53086 v 0.29667 h 0.53013 v 0.64658 h 0.53009 v 0.29667 h 0.53013 v 0.17496 h 0.53019 v 0.59079 h 0.53009 v 0.5908 h 0.53013 v 0.23581 h 0.53009 v 0.47163 h 0.53024 v 0.58826 h 0.53018 v 0.82661 h 0.53019 v 0.47162 h 0.53014 v 0.11664 h 0.53019 v 0.64912 h 0.53206 v -0.11664 h 0.53044 v 1.17906 h 0.53024 v 1.23738 h 0.53035 V 164.626 h 0.53034 v 0.11663 h 0.53071 v 2.24148 h 0.53544 v -0.29413 h 0.53013 v 0.82408 h 0.53034 v 0.35498 h 0.53051 v 0.41331 l 1.06068,-0.0609 v 0.1775 h 0.53009 v 0.59079 h 0.53003 v 0.41331 h 0.53055 v -0.88493 h 0.53014 v -0.11917 h 0.53107 v 1.29823 h 0.53013 v 0.82407 h 0.53024 v -1.05988 h 0.5305 v 0.64911 h 0.53035 v 0.76576 h 0.53018 v -0.47163 h 0.53014 v -1.00156 h 0.52998 v 0.35245 h 0.53045 v 0.5908 h 0.53013 v -0.7683 h 0.53019 v -0.58826 h 0.53024 v 0.64912 h 0.53045 v 0.29413 h 0.5305 v -0.70744 h 0.5304 v 0.52995 h 0.53008 v 0.82661 h 0.53003 v -0.47163 h 0.53045 v -0.64911 h 0.53034 v 0.58826 h 0.53009 v 0.4133 h 0.53008 v -0.47162 h 0.53305 v -0.17749 h 0.53029 v 0.47162 h 0.52998 v -0.17496 h 0.52993 v -0.29666 h 0.53003 v 1.0041 h 0.52998 v -0.23581 h 0.53008 v 0.17495 l 1.06064,0.0609 v 0.4133 h 0.53003 v -0.11917 h 0.52993 v -0.23581 h 0.52998 v 0.23581 h 0.52993 v 0.23581 h 0.53003 v -0.35245 h 0.52998 v 0.11664 h 0.53003 v 0.82661 h 2.65001 v 0.35245 h 1.06011 v -0.47162 h 0.53009 v 0.23581 h 0.52998 v 0.29413 h 0.52998 v -0.94325 h 0.52998 v -0.17496 h 0.53195 v -0.59079 h 0.53066 v -0.64912 h 0.53008 v 0.4133 h 0.53003 v -0.76575 h 0.52998 v -0.35499 h 0.53061 v 0.35499 h 0.53013 v -0.41331 h 0.52998 v -0.88492 h 0.53004 v 0.47162 h 0.53003 v -0.11664 h 0.53471 v -1.59236 h 0.53013 v 0.11664 h 0.53009 v -0.29413 h 0.53008 v -0.82661 h 0.53008 v -0.94325 h 0.53045 v -0.58826 h 0.53029 v 0.23581 h 0.53014 v -0.5908 h 0.53003 v -0.64912 l 1.06033,0.0609 v -0.47416 h 0.53112 v -0.17496 h 0.53003 v -0.70743 h 0.53009 v -0.82661 l 2.12059,-0.0583 v -0.82661 l 1.06027,-0.0583 v -0.11917 h 0.53019 v -0.70744 h 0.53019 v -0.82407 h 0.53019 v -0.41331 h 0.53008 v -0.29413 h 0.53003 v -0.64912 h 0.53024 v -0.76575 h 0.53009 v -0.4133 h 0.53013 v -0.52995 h 0.53009 v -0.64911 l 1.06022,0.0583 v -0.4133 h 0.5307 v -0.52994 h 0.53165 v -0.29413 h 0.53107 v -0.35499 h 0.53003 v -0.35245 h 0.53071 v -0.5908 h 0.53003 v -0.35498 l 1.06105,-0.0583 v -0.41331 h 0.53081 v -1.00156 h 0.53019 v -0.1775 l 1.06012,-0.0583 v -0.82661 h 0.53013 v -1.00157 h 0.53024 v -0.29413 h 0.53009 V 148.35 h 0.53019 v -0.88492 h 0.53013 v -0.64658 h 0.52998 v -0.29667 h 0.53003 v -0.11664 h 0.54267 v -0.52994 h 0.53008 v -0.53248 h 0.53003 v -0.41331 h 0.52993 v -0.29413 h 0.53149 v -0.58826 h 0.52993 v -0.76829 h 0.52987 v -0.17495 l 46.68066,-0.0583 v -0.11664 h 0.53013 v 0.11664 h 3.71142 v -0.11664 h 0.52998 v 0.11664 h 2.65151 v -0.11664 h 1.05996 v 0.11664 h 0.53066 v -0.11664 h 0.53003 v -0.29667 h 0.53003 v -0.47162 h 0.53004 v -0.58826 h 0.52992 v -0.82661 h 0.53107 v -1.23738 h 0.53165 v -0.52995 h 0.53143 v -0.11917 h 0.52988 v -0.35245 h 0.52837 v -0.11917 h 0.53102 v -0.76576 h 0.52993 v -0.23581 h 0.52992 v -0.70744 h 0.52993 v 0.23582 h 0.52988 v 1.76732 h 0.5305 v 2.41897 h 0.52993 v 1.8865 h 0.52992 v -0.94325 h 0.52998 v -5.24872 h 0.52988 v -2.1223 h 0.5306 v 0.58826 h 0.53009 v -3.30137 h 0.53003 v 1.23992 h 0.52998 v 3.18219 h 0.53008 v 0.82661 h 0.53004 v -0.41331 h 0.53003 v -5.72034 h 0.52998 v 3.00724 h 0.52998 v -1.05989 h 0.52993 v -3.53971 h 0.5306 v 3.95302 h 0.52998 v 3.06555 h 0.53008 v 1.47319 h 0.53004 v -3.0073 h 0.52992 v -0.94325 h 0.53045 v -0.47162 h 0.53009 v -2.94892 h 0.52998 v -1.82818 h 0.53003 v 4.48296 h 0.53003 v 0.41331 h 0.53014 v -0.53248 h 0.53008 v -4.65792 h 0.52972 v 2.06399 h 0.53585 v -5.30703 h 0.53009 v 3.42054 h 0.5307 v 1.65068 h 0.53009 v 0.35498 h 0.53013 v -3.83384 h 0.52999 v -1.00157 h 0.53356 v -0.4133 h 0.53035 v -3.77553 h 0.53003 v 4.30547 h 0.53024 v 4.24461 h 0.53013 v 0.88493 h 0.52998 v -2.18062 h 0.53014 v -5.12954 h 0.53008 v 3.65381 h 0.53029 v -1.88649 h 0.53025 v -4.95205 h 0.53018 v 5.89529 h 0.53009 v 2.41898 h 0.53008 v -2.24148 h 0.53076 v -5.60117 h 0.53003 v 4.48043 h 0.53003 v -2.35812 h 0.53004 v -4.65792 h 0.53019 v 2.12231 h 0.53018 v 2.53561 h 0.53024 v 0.35498 h 0.53009 v -4.01133 h 0.53039 v -3.42054 h 0.53003 v 2.47729 h 0.52998 v -3.65635 h 0.53191 v 1.41487 h 0.52961 v 4.95458 h 0.52983 v 3.95049 h 0.52977 v 2.06398 h 0.52977 v -8.78589 h 0.52962 v 2.7131 h 0.52998 v -0.23581 h 0.52962 v -5.13208 h 0.52977 v 4.36379 h 0.52977 v 4.36379 h 0.52987 v 1.12074 h 0.52967 v -2.12231 h 0.52962 v -5.48453 h 0.52962 v 3.65636 h 0.52972 v -4.12798 h 0.52909 v -1.65068 h 0.52931 v 9.6125 h 0.52935 v 5.30704 h 0.52941 v -0.29667 h 0.52925 v -11.37983 h 0.52941 v 5.60117 h 0.52931 v 0.41331 h 0.53003 v -5.01291 h 0.52946 v -3.42054 h 0.52946 v 7.66769 h 0.53081 v 1.94482 h 0.53123 v -1.17906 h 0.528 v -8.13678 h 0.52962 v 6.54441 h 0.52956 v -2.65225 h 0.52889 v -2.8906 h 0.52957 v -3.06555 h 0.52961 v 6.66359 h 0.52983 v 3.30136 h 0.52966 v 3.53718 h 0.52936 v -6.7219 h 0.52977 v -4.1863 h 0.52941 v 4.65792 h 0.52951 v -4.65792 h 0.52983 v -3.42054 h 0.52946 v 8.37259 h 0.5359 v 6.13364 h 0.53024 v -9.43501 h 0.5305 v 4.36379 h 0.52998 v 0.5908 h 0.53014 v -4.66046 h 0.53014 v -2.53561 h 0.53013 v 8.61094 h 0.53029 v 4.30293 h 0.53004 v -2.41643 h 0.53018 V 117.1594 h 0.53009 v 8.25595 h 0.53029 v -2.83228 h 0.53039 v -5.7178 l 1.06028,0.0583 v 6.60526 h 0.53008 v 2.47476 h 0.53014 v -1.35655 h 0.53019 v -8.07846 h 0.53008 v 7.25438 h 0.53117 v -3.95048 h 0.53009 v -4.71877 h 0.53019 v 5.0129 h 0.53055 v 5.95615 h 0.53024 v 1.17906 h 0.53034 v -4.54128 h 0.53144 v -6.48609 h 0.5306 v 7.66515 h 0.5304 v -5.30703 h 0.5305 v -4.24462 h 0.5305 v 9.14088 h 0.53029 v 6.13111 h 0.53013 v -1.00156 h 0.53024 v -8.96339 h 0.53066 v 2.65225 h 0.53003 v 1.76986 h 0.53035 v -3.71468 h 0.53075 v -3.24304 h 0.5303 v 8.19509 h 0.5306 v 5.01291 h 0.53008 v -0.47163 h 0.53004 v -9.90663 h 0.53143 v 8.49176 h 0.53019 v -2.94891 h 0.53055 v -5.24872 h 0.53019 v -2.18063 h 0.53003 v 8.25596 h 0.53009 v 4.30546 h 0.53008 v 0.41077 h 0.53014 v -9.60996 h 0.53003 v 6.7219 h 0.53013 v -2.65478 h 0.53009 v -4.24462 h 0.53029 v 0.11664 h 0.53008 v 7.3127 h 0.53004 v 5.01291 h 0.53013 v -2.35812 h 0.53009 v -8.25595 h 0.53039 v 7.72347 h 0.53003 v -3.30136 h 0.53004 v -4.48043 h 0.53003 v 3.95048 h 0.53024 v 8.55008 h 0.5306 v 3.42054 h 0.52998 v -5.24871 h 0.53003 v -5.24872 h 0.52993 v 7.96182 h 0.53024 v -2.77142 h 0.53102 v -7.37102 h 0.53455 v 12.50056 h 1.05919 v -6.36945 l 1.05912,-0.0583 v 3.77299 h 0.52983 v -3.95049 h 0.52961 v -4.24461 h 0.52936 v 6.25028 h 0.52946 v 6.01447 h 0.53003 v 0.47163 h 0.52915 v -2.71311 h 0.52941 v -8.31427 h 0.52972 v 8.84675 h 0.52998 v -4.18883 h 0.53086 v -4.48043 h 0.52993 v 8.96339 h 0.52951 v 4.24462 l 1.05903,-0.0583 v -5.01291 h 0.52972 v -1.94481 h 0.52977 v 4.77709 h 0.52977 v -3.12641 h 0.53118 v -4.18629 h 0.5292 v 6.3086 h 0.52977 v 2.24148 h 0.53019 v -0.5908 h 0.52915 v -5.24618 h 0.52961 v 4.12544 h 0.52941 v -2.06145 h 0.53268 v -3.42054 h 0.5291 v 2.06399 h 0.5292 v 4.95205 h 0.52962 v 0.59079 h 0.52935 v -2.2998 h 0.53024 v -3.18472 h 0.52941 v 4.83541 h 0.52925 v -3.95049 h 0.52946 v 1.00157 h 0.52957 v 3.83385 h 0.52941 v 0.11663 h 0.5292 v -0.52994 h 0.52987 v -2.35812 h 0.529 v -0.11917 h 0.52925 v 1.0041 h 0.52925 v -0.47416 h 0.52946 v 2.59647 h 1.58802 v -0.29667 h 0.52946 v -0.47162 h 0.52961 v -0.23581 h 0.5305 v 1.06242 h 2.1194 v -0.1775 h 0.52936 v 0.23582 h 1.58781 v -0.23582 h 0.5292 v 0.23582 h 3.70477 v 0"
           style="fill:none;stroke:#1f77b4;stroke-width:0.75;stroke-linecap:square;stroke-linejoin:round;stroke-miterlimit:4;stroke-dasharray:none"
           id="path283"
           inkscape:connector-curvature="0" />
      </g>
      <g
         id="patch_8"
         style="stroke-linecap:butt;stroke-linejoin:round">
        <path
           d="M 54,175.25647 V 111.30353"
           style="fill:none;stroke:#000000;stroke-width:0.80000001;stroke-linecap:square;stroke-linejoin:miter"
           id="path286"
           inkscape:connector-curvature="0" />
      </g>
      <g
         id="patch_9"
         style="stroke-linecap:butt;stroke-linejoin:round">
        <path
           d="M 388.8,175.25647 V 111.30353"
           style="fill:none;stroke:#000000;stroke-width:0.80000001;stroke-linecap:square;stroke-linejoin:miter"
           id="path289"
           inkscape:connector-curvature="0" />
      </g>
      <g
         id="patch_10"
         style="stroke-linecap:butt;stroke-linejoin:round">
        <path
           d="M 54,175.25647 H 388.8"
           style="fill:none;stroke:#000000;stroke-width:0.80000001;stroke-linecap:square;stroke-linejoin:miter"
           id="path292"
           inkscape:connector-curvature="0" />
      </g>
      <g
         id="patch_11"
         style="stroke-linecap:butt;stroke-linejoin:round">
        <path
           d="M 54,111.30353 H 388.8"
           style="fill:none;stroke:#000000;stroke-width:0.80000001;stroke-linecap:square;stroke-linejoin:miter"
           id="path295"
           inkscape:connector-curvature="0" />
      </g>
    </g>
    <g
       id="axes_3"
       style="stroke-linecap:butt;stroke-linejoin:round">
      <g
         id="patch_12"
         style="stroke-linecap:butt;stroke-linejoin:round">
        <path
           d="M 54,252 H 388.8 V 188.04706 H 54 Z"
           style="fill:#ffffff;stroke-linecap:butt;stroke-linejoin:round"
           id="path299"
           inkscape:connector-curvature="0" />
      </g>
      <g
         id="matplotlib.axis_5"
         style="stroke-linecap:butt;stroke-linejoin:round">
        <g
           id="xtick_15"
           style="stroke-linecap:butt;stroke-linejoin:round">
          <g
             id="line2d_22"
             style="stroke-linecap:butt;stroke-linejoin:round">
            <g
               id="g304"
               style="stroke-linecap:butt;stroke-linejoin:round">
              <use
                 style="stroke:#000000;stroke-width:0.80000001;stroke-linecap:butt;stroke-linejoin:round"
                 x="69.218185"
                 xlink:href="#m3cc6b344ac"
                 y="252"
                 id="use302"
                 width="100%"
                 height="100%" />
            </g>
          </g>
          <g
             id="text_8"
             style="stroke-linecap:butt;stroke-linejoin:round">
            <!-- 0 -->
            <g
               transform="matrix(0.1,0,0,-0.1,66.036932,266.59844)"
               id="g309"
               style="stroke-linecap:butt;stroke-linejoin:round">
              <use
                 xlink:href="#DejaVuSans-30"
                 id="use307"
                 style="stroke-linecap:butt;stroke-linejoin:round"
                 x="0"
                 y="0"
                 width="100%"
                 height="100%" />
            </g>
          </g>
        </g>
        <g
           id="xtick_16"
           style="stroke-linecap:butt;stroke-linejoin:round">
          <g
             id="line2d_23"
             style="stroke-linecap:butt;stroke-linejoin:round">
            <g
               id="g315"
               style="stroke-linecap:butt;stroke-linejoin:round">
              <use
                 style="stroke:#000000;stroke-width:0.80000001;stroke-linecap:butt;stroke-linejoin:round"
                 x="121.1923"
                 xlink:href="#m3cc6b344ac"
                 y="252"
                 id="use313"
                 width="100%"
                 height="100%" />
            </g>
          </g>
          <g
             id="text_9"
             style="stroke-linecap:butt;stroke-linejoin:round">
            <!-- 1 -->
            <g
               transform="matrix(0.1,0,0,-0.1,118.01105,266.59844)"
               id="g320"
               style="stroke-linecap:butt;stroke-linejoin:round">
              <use
                 xlink:href="#DejaVuSans-31"
                 id="use318"
                 style="stroke-linecap:butt;stroke-linejoin:round"
                 x="0"
                 y="0"
                 width="100%"
                 height="100%" />
            </g>
          </g>
        </g>
        <g
           id="xtick_17"
           style="stroke-linecap:butt;stroke-linejoin:round">
          <g
             id="line2d_24"
             style="stroke-linecap:butt;stroke-linejoin:round">
            <g
               id="g326"
               style="stroke-linecap:butt;stroke-linejoin:round">
              <use
                 style="stroke:#000000;stroke-width:0.80000001;stroke-linecap:butt;stroke-linejoin:round"
                 x="173.16641"
                 xlink:href="#m3cc6b344ac"
                 y="252"
                 id="use324"
                 width="100%"
                 height="100%" />
            </g>
          </g>
          <g
             id="text_10"
             style="stroke-linecap:butt;stroke-linejoin:round">
            <!-- 2 -->
            <defs
               id="defs330">
              <path
                 d="M 19.1875,8.296875 H 53.609375 V 0 H 7.328125 v 8.296875 q 5.609375,5.8125 15.296875,15.59375 9.703125,9.796875 12.1875,12.640625 4.734375,5.3125 6.609375,9 1.890625,3.6875 1.890625,7.25 0,5.8125 -4.078125,9.46875 -4.078125,3.671875 -10.625,3.671875 -4.640625,0 -9.796875,-1.609375 -5.140625,-1.609375 -11,-4.890625 v 9.96875 Q 13.765625,71.78125 18.9375,73 q 5.1875,1.21875 9.484375,1.21875 11.328125,0 18.0625,-5.671875 6.734375,-5.65625 6.734375,-15.125 0,-4.5 -1.6875,-8.53125 Q 49.859375,40.875 45.40625,35.40625 44.1875,33.984375 37.640625,27.21875 31.109375,20.453125 19.1875,8.296875"
                 id="DejaVuSans-32"
                 inkscape:connector-curvature="0"
                 style="stroke-linecap:butt;stroke-linejoin:round" />
            </defs>
            <g
               transform="matrix(0.1,0,0,-0.1,169.98516,266.59844)"
               id="g334"
               style="stroke-linecap:butt;stroke-linejoin:round">
              <use
                 xlink:href="#DejaVuSans-32"
                 id="use332"
                 style="stroke-linecap:butt;stroke-linejoin:round"
                 x="0"
                 y="0"
                 width="100%"
                 height="100%" />
            </g>
          </g>
        </g>
        <g
           id="xtick_18"
           style="stroke-linecap:butt;stroke-linejoin:round">
          <g
             id="line2d_25"
             style="stroke-linecap:butt;stroke-linejoin:round">
            <g
               id="g340"
               style="stroke-linecap:butt;stroke-linejoin:round">
              <use
                 style="stroke:#000000;stroke-width:0.80000001;stroke-linecap:butt;stroke-linejoin:round"
                 x="225.14052"
                 xlink:href="#m3cc6b344ac"
                 y="252"
                 id="use338"
                 width="100%"
                 height="100%" />
            </g>
          </g>
          <g
             id="text_11"
             style="stroke-linecap:butt;stroke-linejoin:round">
            <!-- 3 -->
            <defs
               id="defs344">
              <path
                 d="M 40.578125,39.3125 Q 47.65625,37.796875 51.625,33 q 3.984375,-4.78125 3.984375,-11.8125 0,-10.78125 -7.421875,-16.703125 -7.421875,-5.90625 -21.09375,-5.90625 -4.578125,0 -9.4375,0.90625 -4.859375,0.90625 -10.03125,2.71875 v 9.515625 q 4.09375,-2.390625 8.96875,-3.609375 4.890625,-1.21875 10.21875,-1.21875 9.265625,0 14.125,3.65625 4.859375,3.65625 4.859375,10.640625 0,6.453125 -4.515625,10.078125 -4.515625,3.640625 -12.5625,3.640625 h -8.5 v 8.109375 h 8.890625 q 7.265625,0 11.125,2.90625 3.859375,2.90625 3.859375,8.375 0,5.609375 -3.984375,8.609375 -3.96875,3.015625 -11.390625,3.015625 -4.0625,0 -8.703125,-0.890625 Q 15.375,64.15625 9.8125,62.3125 v 8.78125 q 5.625,1.5625 10.53125,2.34375 4.90625,0.78125 9.25,0.78125 11.234375,0 17.765625,-5.109375 6.546875,-5.09375 6.546875,-13.78125 0,-6.0625 -3.46875,-10.234375 -3.46875,-4.171875 -9.859375,-5.78125"
                 id="DejaVuSans-33"
                 inkscape:connector-curvature="0"
                 style="stroke-linecap:butt;stroke-linejoin:round" />
            </defs>
            <g
               transform="matrix(0.1,0,0,-0.1,221.95927,266.59844)"
               id="g348"
               style="stroke-linecap:butt;stroke-linejoin:round">
              <use
                 xlink:href="#DejaVuSans-33"
                 id="use346"
                 style="stroke-linecap:butt;stroke-linejoin:round"
                 x="0"
                 y="0"
                 width="100%"
                 height="100%" />
            </g>
          </g>
        </g>
        <g
           id="xtick_19"
           style="stroke-linecap:butt;stroke-linejoin:round">
          <g
             id="line2d_26"
             style="stroke-linecap:butt;stroke-linejoin:round">
            <g
               id="g354"
               style="stroke-linecap:butt;stroke-linejoin:round">
              <use
                 style="stroke:#000000;stroke-width:0.80000001;stroke-linecap:butt;stroke-linejoin:round"
                 x="277.11462"
                 xlink:href="#m3cc6b344ac"
                 y="252"
                 id="use352"
                 width="100%"
                 height="100%" />
            </g>
          </g>
          <g
             id="text_12"
             style="stroke-linecap:butt;stroke-linejoin:round">
            <!-- 4 -->
            <defs
               id="defs358">
              <path
                 d="M 37.796875,64.3125 12.890625,25.390625 h 24.90625 z m -2.59375,8.59375 h 12.40625 V 25.390625 h 10.40625 V 17.1875 H 47.609375 V 0 h -9.8125 V 17.1875 H 4.890625 v 9.515625 z"
                 id="DejaVuSans-34"
                 inkscape:connector-curvature="0"
                 style="stroke-linecap:butt;stroke-linejoin:round" />
            </defs>
            <g
               transform="matrix(0.1,0,0,-0.1,273.93339,266.59844)"
               id="g362"
               style="stroke-linecap:butt;stroke-linejoin:round">
              <use
                 xlink:href="#DejaVuSans-34"
                 id="use360"
                 style="stroke-linecap:butt;stroke-linejoin:round"
                 x="0"
                 y="0"
                 width="100%"
                 height="100%" />
            </g>
          </g>
        </g>
        <g
           id="xtick_20"
           style="stroke-linecap:butt;stroke-linejoin:round">
          <g
             id="line2d_27"
             style="stroke-linecap:butt;stroke-linejoin:round">
            <g
               id="g368"
               style="stroke-linecap:butt;stroke-linejoin:round">
              <use
                 style="stroke:#000000;stroke-width:0.80000001;stroke-linecap:butt;stroke-linejoin:round"
                 x="329.08875"
                 xlink:href="#m3cc6b344ac"
                 y="252"
                 id="use366"
                 width="100%"
                 height="100%" />
            </g>
          </g>
          <g
             id="text_13"
             style="stroke-linecap:butt;stroke-linejoin:round">
            <!-- 5 -->
            <g
               transform="matrix(0.1,0,0,-0.1,325.9075,266.59844)"
               id="g373"
               style="stroke-linecap:butt;stroke-linejoin:round">
              <use
                 xlink:href="#DejaVuSans-35"
                 id="use371"
                 style="stroke-linecap:butt;stroke-linejoin:round"
                 x="0"
                 y="0"
                 width="100%"
                 height="100%" />
            </g>
          </g>
        </g>
        <g
           id="xtick_21"
           style="stroke-linecap:butt;stroke-linejoin:round">
          <g
             id="line2d_28"
             style="stroke-linecap:butt;stroke-linejoin:round">
            <g
               id="g379"
               style="stroke-linecap:butt;stroke-linejoin:round">
              <use
                 style="stroke:#000000;stroke-width:0.80000001;stroke-linecap:butt;stroke-linejoin:round"
                 x="381.06287"
                 xlink:href="#m3cc6b344ac"
                 y="252"
                 id="use377"
                 width="100%"
                 height="100%" />
            </g>
          </g>
          <g
             id="text_14"
             style="stroke-linecap:butt;stroke-linejoin:round">
            <!-- 6 -->
            <defs
               id="defs383">
              <path
                 d="m 33.015625,40.375 q -6.640625,0 -10.53125,-4.546875 -3.875,-4.53125 -3.875,-12.4375 0,-7.859375 3.875,-12.4375 3.890625,-4.5625 10.53125,-4.5625 6.640625,0 10.515625,4.5625 3.875,4.578125 3.875,12.4375 0,7.90625 -3.875,12.4375 Q 39.65625,40.375 33.015625,40.375 M 52.59375,71.296875 V 62.3125 q -3.71875,1.75 -7.5,2.671875 -3.78125,0.9375 -7.5,0.9375 -9.765625,0 -14.921875,-6.59375 -5.140625,-6.59375 -5.875,-19.921875 2.875,4.25 7.21875,6.515625 4.359375,2.265625 9.578125,2.265625 10.984375,0 17.359375,-6.671875 6.375,-6.65625 6.375,-18.125 0,-11.234375 -6.640625,-18.03125 -6.640625,-6.78125 -17.671875,-6.78125 -12.65625,0 -19.34375,9.6875 -6.6875,9.703125 -6.6875,28.109375 0,17.28125 8.203125,27.5625 8.203125,10.28125 22.015625,10.28125 3.71875,0 7.5,-0.734375 3.78125,-0.734375 7.890625,-2.1875"
                 id="DejaVuSans-36"
                 inkscape:connector-curvature="0"
                 style="stroke-linecap:butt;stroke-linejoin:round" />
            </defs>
            <g
               transform="matrix(0.1,0,0,-0.1,377.88162,266.59844)"
               id="g387"
               style="stroke-linecap:butt;stroke-linejoin:round">
              <use
                 xlink:href="#DejaVuSans-36"
                 id="use385"
                 style="stroke-linecap:butt;stroke-linejoin:round"
                 x="0"
                 y="0"
                 width="100%"
                 height="100%" />
            </g>
          </g>
        </g>
        <g
           id="text_15"
           style="stroke-linecap:butt;stroke-linejoin:round">
          <!-- time $[s]$ -->
          <defs
             id="defs392">
            <path
               d="M 52,44.1875 Q 55.375,50.25 60.0625,53.125 64.75,56 71.09375,56 q 8.546875,0 13.1875,-5.984375 4.640625,-5.96875 4.640625,-17 V 0 h -9.03125 v 32.71875 q 0,7.859375 -2.796875,11.65625 -2.78125,3.8125 -8.484375,3.8125 -6.984375,0 -11.046875,-4.640625 -4.046875,-4.625 -4.046875,-12.640625 V 0 h -9.03125 v 32.71875 q 0,7.90625 -2.78125,11.6875 -2.78125,3.78125 -8.59375,3.78125 -6.890625,0 -10.953125,-4.65625 -4.046875,-4.65625 -4.046875,-12.625 V 0 h -9.03125 v 54.6875 h 9.03125 v -8.5 q 3.078125,5.03125 7.375,7.421875 Q 29.78125,56 35.6875,56 41.65625,56 45.828125,52.96875 50,49.953125 52,44.1875"
               id="DejaVuSans-6d"
               inkscape:connector-curvature="0"
               style="stroke-linecap:butt;stroke-linejoin:round" />
          </defs>
          <g
             transform="matrix(0.1,0,0,-0.1,202,280.27656)"
             id="g410"
             style="stroke-linecap:butt;stroke-linejoin:round">
            <use
               transform="translate(0,0.015625)"
               xlink:href="#DejaVuSans-74"
               id="use394"
               style="stroke-linecap:butt;stroke-linejoin:round"
               x="0"
               y="0"
               width="100%"
               height="100%" />
            <use
               transform="translate(39.208984,0.015625)"
               xlink:href="#DejaVuSans-69"
               id="use396"
               style="stroke-linecap:butt;stroke-linejoin:round"
               x="0"
               y="0"
               width="100%"
               height="100%" />
            <use
               transform="translate(66.992188,0.015625)"
               xlink:href="#DejaVuSans-6d"
               id="use398"
               style="stroke-linecap:butt;stroke-linejoin:round"
               x="0"
               y="0"
               width="100%"
               height="100%" />
            <use
               transform="translate(164.4043,0.015625)"
               xlink:href="#DejaVuSans-65"
               id="use400"
               style="stroke-linecap:butt;stroke-linejoin:round"
               x="0"
               y="0"
               width="100%"
               height="100%" />
            <use
               transform="translate(225.92773,0.015625)"
               xlink:href="#DejaVuSans-20"
               id="use402"
               style="stroke-linecap:butt;stroke-linejoin:round"
               x="0"
               y="0"
               width="100%"
               height="100%" />
            <use
               transform="translate(257.71484,0.015625)"
               xlink:href="#DejaVuSans-5b"
               id="use404"
               style="stroke-linecap:butt;stroke-linejoin:round"
               x="0"
               y="0"
               width="100%"
               height="100%" />
            <use
               transform="translate(296.72852,0.015625)"
               xlink:href="#DejaVuSans-Oblique-73"
               id="use406"
               style="stroke-linecap:butt;stroke-linejoin:round"
               x="0"
               y="0"
               width="100%"
               height="100%" />
            <use
               transform="translate(348.82812,0.015625)"
               xlink:href="#DejaVuSans-5d"
               id="use408"
               style="stroke-linecap:butt;stroke-linejoin:round"
               x="0"
               y="0"
               width="100%"
               height="100%" />
          </g>
        </g>
      </g>
      <g
         id="matplotlib.axis_6"
         style="stroke-linecap:butt;stroke-linejoin:round">
        <g
           id="ytick_6"
           style="stroke-linecap:butt;stroke-linejoin:round">
          <g
             id="line2d_29"
             style="stroke-linecap:butt;stroke-linejoin:round">
            <g
               id="g416"
               style="stroke-linecap:butt;stroke-linejoin:round">
              <use
                 style="stroke:#000000;stroke-width:0.80000001;stroke-linecap:butt;stroke-linejoin:round"
                 x="54"
                 xlink:href="#m1379a70371"
                 y="245.93059"
                 id="use414"
                 width="100%"
                 height="100%" />
            </g>
          </g>
          <g
             id="text_16"
             style="stroke-linecap:butt;stroke-linejoin:round">
            <!-- −5 -->
            <g
               transform="matrix(0.1,0,0,-0.1,32.257812,249.72981)"
               id="g423"
               style="stroke-linecap:butt;stroke-linejoin:round">
              <use
                 xlink:href="#DejaVuSans-2212"
                 id="use419"
                 style="stroke-linecap:butt;stroke-linejoin:round"
                 x="0"
                 y="0"
                 width="100%"
                 height="100%" />
              <use
                 x="83.789062"
                 xlink:href="#DejaVuSans-35"
                 id="use421"
                 style="stroke-linecap:butt;stroke-linejoin:round"
                 y="0"
                 width="100%"
                 height="100%" />
            </g>
          </g>
        </g>
        <g
           id="ytick_7"
           style="stroke-linecap:butt;stroke-linejoin:round">
          <g
             id="line2d_30"
             style="stroke-linecap:butt;stroke-linejoin:round">
            <g
               id="g429"
               style="stroke-linecap:butt;stroke-linejoin:round">
              <use
                 style="stroke:#000000;stroke-width:0.80000001;stroke-linecap:butt;stroke-linejoin:round"
                 x="54"
                 xlink:href="#m1379a70371"
                 y="207.88144"
                 id="use427"
                 width="100%"
                 height="100%" />
            </g>
          </g>
          <g
             id="text_17"
             style="stroke-linecap:butt;stroke-linejoin:round">
            <!-- 0 -->
            <g
               transform="matrix(0.1,0,0,-0.1,40.6375,211.68066)"
               id="g434"
               style="stroke-linecap:butt;stroke-linejoin:round">
              <use
                 xlink:href="#DejaVuSans-30"
                 id="use432"
                 style="stroke-linecap:butt;stroke-linejoin:round"
                 x="0"
                 y="0"
                 width="100%"
                 height="100%" />
            </g>
          </g>
        </g>
        <g
           id="text_18"
           style="stroke-linecap:butt;stroke-linejoin:round">
          <!-- torque $[Nm]$ -->
          <defs
             id="defs443">
            <path
               d="m 41.109375,46.296875 q -1.515625,0.875 -3.296875,1.28125 Q 36.03125,48 33.890625,48 26.265625,48 22.1875,43.046875 18.109375,38.09375 18.109375,28.8125 V 0 h -9.03125 v 54.6875 h 9.03125 v -8.5 q 2.84375,4.984375 7.375,7.390625 Q 30.03125,56 36.53125,56 q 0.921875,0 2.046875,-0.125 1.125,-0.109375 2.484375,-0.359375 z"
               id="DejaVuSans-72"
               inkscape:connector-curvature="0"
               style="stroke-linecap:butt;stroke-linejoin:round" />
            <path
               d="m 14.796875,27.296875 q 0,-9.90625 4.078125,-15.546875 4.078125,-5.640625 11.203125,-5.640625 7.125,0 11.21875,5.640625 4.109375,5.640625 4.109375,15.546875 0,9.90625 -4.109375,15.546875 -4.09375,5.640625 -11.21875,5.640625 -7.125,0 -11.203125,-5.640625 -4.078125,-5.640625 -4.078125,-15.546875 M 45.40625,8.203125 q -2.828125,-4.875 -7.15625,-7.25 -4.3125,-2.375 -10.375,-2.375 -9.90625,0 -16.140625,7.90625 -6.21875,7.921875 -6.21875,20.8125 0,12.890625 6.21875,20.796875 Q 17.96875,56 27.875,56 q 6.0625,0 10.375,-2.375 4.328125,-2.359375 7.15625,-7.234375 V 54.6875 h 8.984375 V -20.796875 H 45.40625 Z"
               id="DejaVuSans-71"
               inkscape:connector-curvature="0"
               style="stroke-linecap:butt;stroke-linejoin:round" />
            <path
               d="M 8.5,21.578125 V 54.6875 h 8.984375 V 21.921875 q 0,-7.765625 3.015625,-11.65625 3.03125,-3.875 9.09375,-3.875 7.265625,0 11.484375,4.640625 4.234375,4.640625 4.234375,12.65625 v 31 h 8.984375 V 0 H 45.3125 V 8.40625 Q 42.046875,3.421875 37.71875,1 33.40625,-1.421875 27.6875,-1.421875 18.265625,-1.421875 13.375,4.4375 8.5,10.296875 8.5,21.578125 M 31.109375,56 Z"
               id="DejaVuSans-75"
               inkscape:connector-curvature="0"
               style="stroke-linecap:butt;stroke-linejoin:round" />
            <path
               d="m 16.890625,72.90625 h 13.28125 l 20.125,-62.5 12.203125,62.5 h 9.625 L 57.90625,0 H 44.578125 L 24.515625,62.890625 12.3125,0 h -9.625 z"
               id="DejaVuSans-Oblique-4e"
               inkscape:connector-curvature="0"
               style="stroke-linecap:butt;stroke-linejoin:round" />
            <path
               d="M 89.796875,33.015625 83.40625,0 h -8.984375 l 6.296875,32.71875 q 0.390625,2.09375 0.578125,3.609375 Q 81.5,37.84375 81.5,38.921875 81.5,43.3125 79.046875,45.75 q -2.4375,2.4375 -6.828125,2.4375 -6.546875,0 -11.671875,-4.90625 -5.125,-4.90625 -6.640625,-12.765625 L 47.90625,0 H 38.921875 L 45.3125,32.71875 q 0.390625,1.796875 0.578125,3.328125 0.203125,1.546875 0.203125,2.765625 0,4.453125 -2.4375,6.90625 -2.4375,2.46875 -6.734375,2.46875 -6.640625,0 -11.78125,-4.90625 Q 20.015625,38.375 18.5,30.515625 L 12.5,0 H 3.515625 l 10.6875,54.6875 H 23.1875 l -1.703125,-8.5 q 3.65625,4.796875 8.5625,7.296875 Q 34.96875,56 40.578125,56 q 5.953125,0 9.78125,-3.125 3.84375,-3.125 4.625,-8.6875 4.09375,5.765625 9.484375,8.78125 Q 69.875,56 75.875,56 q 7.03125,0 10.859375,-4.046875 3.84375,-4.046875 3.84375,-11.46875 0,-1.609375 -0.203125,-3.546875 -0.1875,-1.921875 -0.578125,-3.921875"
               id="DejaVuSans-Oblique-6d"
               inkscape:connector-curvature="0"
               style="stroke-linecap:butt;stroke-linejoin:round" />
          </defs>
          <g
             transform="matrix(0,-0.1,-0.1,0,26.157812,250.62353)"
             id="g467"
             style="stroke-linecap:butt;stroke-linejoin:round">
            <use
               transform="translate(0,0.015625)"
               xlink:href="#DejaVuSans-74"
               id="use445"
               style="stroke-linecap:butt;stroke-linejoin:round"
               x="0"
               y="0"
               width="100%"
               height="100%" />
            <use
               transform="translate(39.208984,0.015625)"
               xlink:href="#DejaVuSans-6f"
               id="use447"
               style="stroke-linecap:butt;stroke-linejoin:round"
               x="0"
               y="0"
               width="100%"
               height="100%" />
            <use
               transform="translate(100.39063,0.015625)"
               xlink:href="#DejaVuSans-72"
               id="use449"
               style="stroke-linecap:butt;stroke-linejoin:round"
               x="0"
               y="0"
               width="100%"
               height="100%" />
            <use
               transform="translate(141.50391,0.015625)"
               xlink:href="#DejaVuSans-71"
               id="use451"
               style="stroke-linecap:butt;stroke-linejoin:round"
               x="0"
               y="0"
               width="100%"
               height="100%" />
            <use
               transform="translate(204.98047,0.015625)"
               xlink:href="#DejaVuSans-75"
               id="use453"
               style="stroke-linecap:butt;stroke-linejoin:round"
               x="0"
               y="0"
               width="100%"
               height="100%" />
            <use
               transform="translate(268.35937,0.015625)"
               xlink:href="#DejaVuSans-65"
               id="use455"
               style="stroke-linecap:butt;stroke-linejoin:round"
               x="0"
               y="0"
               width="100%"
               height="100%" />
            <use
               transform="translate(329.88281,0.015625)"
               xlink:href="#DejaVuSans-20"
               id="use457"
               style="stroke-linecap:butt;stroke-linejoin:round"
               x="0"
               y="0"
               width="100%"
               height="100%" />
            <use
               transform="translate(361.66992,0.015625)"
               xlink:href="#DejaVuSans-5b"
               id="use459"
               style="stroke-linecap:butt;stroke-linejoin:round"
               x="0"
               y="0"
               width="100%"
               height="100%" />
            <use
               transform="translate(400.68359,0.015625)"
               xlink:href="#DejaVuSans-Oblique-4e"
               id="use461"
               style="stroke-linecap:butt;stroke-linejoin:round"
               x="0"
               y="0"
               width="100%"
               height="100%" />
            <use
               transform="translate(475.48828,0.015625)"
               xlink:href="#DejaVuSans-Oblique-6d"
               id="use463"
               style="stroke-linecap:butt;stroke-linejoin:round"
               x="0"
               y="0"
               width="100%"
               height="100%" />
            <use
               transform="translate(572.90039,0.015625)"
               xlink:href="#DejaVuSans-5d"
               id="use465"
               style="stroke-linecap:butt;stroke-linejoin:round"
               x="0"
               y="0"
               width="100%"
               height="100%" />
          </g>
        </g>
      </g>
      <g
         id="line2d_31"
         style="stroke-linecap:butt;stroke-linejoin:round">
        <path
           clip-path="url(#p6b3da093d2)"
           d="m 69.218182,223.29407 v 0.0158 h 0.5305 v -0.13095 l 2.652083,0.0977 v 0.0174 l 1.06022,-0.0237 v -0.153 l 1.590512,0.0378 v 0.13721 l 1.060635,-0.0378 v -0.0773 l 4.241608,-0.0395 v 0.17043 l 1.060116,0.0474 v -0.16089 l 1.061727,-0.0112 v -0.1609 h 0.530188 v 0.20827 l 1.06734,0.0632 v 0.0678 h 0.530032 v -0.20663 l 5.301776,-0.002 v 0.11516 l 2.651043,-0.0852 v -0.0931 l 1.060324,0.0474 v 0.079 l 2.12148,-0.11055 v -0.17505 h 0.530656 v 0.11516 l 2.121531,-0.11054 v -0.20037 l 1.590408,0.0283 v -0.17505 h 0.530289 v -0.35039 h 0.53424 v -0.38035 h 0.53014 v 0.3787 l 1.06017,-0.0299 v -0.55077 h 0.53014 v -0.53827 h 0.53018 v 0.6202 h 0.53061 v -0.52217 l 1.06063,-0.076 v 0.81431 h 0.53024 v 0.91235 h 0.53061 v 0.56657 l 1.06146,-0.0632 v -0.86795 h 0.53019 v -0.18161 l 1.06038,0.0395 v -0.153 h 0.53019 v 0.45438 h 0.53086 v -0.78109 h 0.53013 v 0.49386 h 0.53009 v 0.23524 l 1.06032,0.0836 v -0.29051 h 0.53009 v -0.72582 h 0.53013 v 0.38824 h 0.53009 v 0.30927 h 0.53024 v -0.61394 h 0.53018 v 0.16879 h 0.53019 v -0.12931 h 0.53014 v 0.49879 h 0.53019 v 0.81103 h 0.53206 v -0.48597 h 0.53044 v -1.523 h 0.53024 v -1.1476 h 0.53035 v 1.84183 h 0.53034 v 1.49799 h 0.53071 v -0.84129 h 0.53544 v -1.08442 h 0.53013 v 0.49878 h 0.53034 v 0.99429 h 0.53051 v -0.39613 h 0.53008 v -0.56493 h 0.5306 v 0.60276 h 0.53009 v 0.12798 h 0.53003 v 0.16879 l 1.06069,0.0204 v -0.59323 h 0.53107 v 0.49222 h 0.53013 v -0.91696 h 0.53024 v 0.32969 h 0.5305 v 0.59219 h 0.53035 v 0.58236 h 0.53018 v -0.67577 h 0.53014 v 0.55405 h 0.52998 v 0.67875 h 0.53045 v -0.2336 h 0.53013 v -0.9788 l 1.06043,0.0569 v 0.71659 h 0.53045 v -0.38199 h 0.5305 v -0.67874 h 0.5304 v 1.20583 h 0.53008 v -0.44023 h 0.53003 v -0.92188 h 0.53045 v 0.61394 h 0.53034 v 0.42013 h 0.53009 v 0.37542 h 0.53008 v 0.54913 h 0.53305 v -0.70377 h 0.53029 v -0.92189 h 0.52998 v 0.46392 h 0.52993 v 0.26385 h 0.53003 v 0.23493 l 1.06006,0.0457 v 0.43561 h 0.53009 v -0.36455 h 0.53055 v -0.87912 h 0.53003 v 0.88538 h 0.52993 v 0.79391 h 0.52998 v 0.34876 h 0.52993 v -0.68501 l 1.06001,-0.0553 v -0.49386 l 1.05996,-0.0665 v 0.37707 h 0.53003 v 0.15955 h 0.52993 v 0.80642 h 0.53008 v -0.27143 l 1.59015,0.0915 v 0.40105 h 0.53009 v 0.1688 h 0.52998 v 0.34383 l 1.05996,-0.0362 v 0.39777 h 0.53195 v 0.53171 h 0.53066 v -0.60112 l 1.59009,0.0267 v 0.29676 h 0.53061 v -0.17371 h 0.53013 v -0.55866 h 0.52998 v 0.838 h 0.53004 v 0.42608 h 0.53003 v -0.6202 h 0.53471 v 0.85216 l 1.06022,-0.0944 v 0.92784 h 0.53008 v -0.37409 l 1.06053,0.0836 v -0.20037 h 0.53029 v 0.42443 h 0.53014 v -0.96896 h 0.53003 v 0.38824 h 0.53024 v 0.81596 l 1.06121,0.006 v -0.74653 h 0.53003 v 0.89 h 0.53009 v -1.0351 h 0.53008 v 1.4582 h 0.53019 v -0.52709 h 0.53019 v -0.9469 l 1.06032,0.0645 v 0.76561 h 0.53008 v 0.96269 h 0.53019 v -0.25266 h 0.53019 v 0.38198 h 0.53019 v -0.18459 h 0.53008 v -0.16253 h 0.53003 v -0.21945 h 0.53024 v 0.55868 h 0.53009 v 0.24477 l 1.06022,0.0882 v -0.44977 h 0.53013 v -0.30138 h 0.53009 v -0.25267 h 0.5307 v 0.86661 h 0.53165 v 0.36619 h 0.53107 v -0.14049 h 0.53003 v -0.2905 l 1.06074,0.0316 v -0.2336 h 0.52998 v -0.15464 h 0.53107 v 0.49551 h 0.53081 v 0.70243 h 0.53019 v -0.1974 h 0.53003 v -0.6044 h 0.53009 v 0.29184 h 0.53013 v 0.59979 h 0.53024 v 0.2257 h 0.53009 v -0.5965 h 0.53019 v -0.40404 h 0.53013 v 0.1405 l 1.06001,0.0898 v 0.0694 l 1.07275,0.0648 v 0.17832 l 1.05996,-0.01 V 229.582 l 1.06142,0.0615 v 0.27144 h 0.52987 v -0.29513 h 0.52998 v -0.6929 h 0.52998 v -0.39778 h 0.52993 v 0.15628 h 0.52993 v 0.35368 h 0.52993 v 0.48597 h 0.52998 v -0.17505 h 0.52998 v -0.26846 h 0.52992 v -0.3945 l 1.06012,0.0615 v 0.31092 h 0.53024 v 0.25729 l 1.06552,-0.0599 v -0.12797 h 0.52998 v -0.2777 l 1.5902,-0.0299 v 0.35502 l 1.5902,0.0316 v -0.33297 l 1.5901,-0.0457 v 0.32507 h 0.52982 v 0.12306 h 0.52993 v -0.15464 h 0.52972 v -0.21781 l 1.06053,-0.0395 v 0.21945 l 30.77471,-0.10101 v -0.0158 h 0.52998 v 0.15137 l 2.65068,-0.10727 v -0.0441 h 0.53018 v 0.14675 l 1.59067,-0.008 v -0.12469 h 0.52998 v -0.12932 h 0.53071 v 0.19085 l 4.24145,0.0427 v 0.20828 h 0.53003 v 0.39449 h 0.53004 v 0.20992 h 0.52992 v 0.81595 l 1.06272,0.079 v -0.65342 h 0.53143 v -1.22624 h 0.52988 v -0.72613 h 0.52837 v 0.38034 h 0.53102 v 1.49471 h 0.52993 v 0.86497 h 0.52992 v -0.23985 h 0.52993 v -3.32536 h 0.52988 v -3.7422 h 0.5305 v -1.83885 h 0.52993 v 3.37899 h 0.52992 v 8.21648 h 0.52998 v 4.04747 h 0.52988 v 0.3139 h 0.5306 v -2.02896 h 0.53009 v -8.92233 h 0.53003 v -8.11772 h 0.52998 v -0.88793 h 0.53008 v 2.18093 h 0.53004 v 16.60905 h 0.53003 v 3.94512 h 0.52998 V 238.585 h 0.52998 v -2.96067 h 0.52993 v -17.04972 h 0.5306 v -2.90601 l 1.06006,-0.009 v 11.82208 h 0.53004 v 15.06265 h 0.52992 v -2.34863 h 0.53045 v -2.44149 h 0.53009 v -7.06829 h 0.52998 v -15.19987 h 0.53003 v 1.06786 h 0.53003 v 2.39709 h 0.53014 v 16.05888 h 0.53008 v 5.53562 h 0.52972 v -1.73784 h 0.53585 v -3.1466 h 0.53009 v -17.12898 h 0.5307 v -2.12923 h 0.53009 v 0.72181 h 0.53013 v 12.75424 h 0.52999 v 8.11025 h 0.53356 v 0.72599 h 0.53035 v -2.77772 h 0.53003 V 224.1316 h 0.53024 v -13.4014 h 0.53013 v 1.07441 h 0.52998 v 5.95039 h 0.53014 v 19.16777 h 0.53008 v 5.13547 h 0.53029 v -0.77739 h 0.53025 v -5.66255 h 0.53018 v -22.41728 h 0.53009 v -4.00457 h 0.53008 v 5.8772 h 0.53076 v 15.23193 h 0.53003 v 12.86672 h 0.53003 v -2.98613 h 0.53004 v -4.5929 h 0.53019 V 219.7062 h 0.53018 v -6.83353 h 0.53024 v 0.74459 h 0.53009 v 12.66338 h 0.53039 v 10.26554 h 0.53003 v 3.58294 h 0.52998 v -15.52463 h 0.53191 v -14.55882 h 0.52961 v -3.3808 h 0.52983 v 2.87515 h 0.52977 v 22.69649 h 0.52977 v 9.75218 h 0.52962 v -0.51592 h 0.52998 v -5.62368 h 0.52962 v -19.85946 h 0.52977 v -11.07749 h 0.52977 v 2.66016 h 0.52987 v 13.09004 h 0.52967 v 16.67326 h 0.52962 v 4.69614 h 0.52962 v -3.29498 h 0.52972 v -6.43514 h 0.52909 v -27.53739 h 0.52931 v -5.71933 h 0.52935 v 3.81982 h 0.52941 v 11.40985 h 0.52925 v 22.69933 h 0.52941 v 8.65196 h 0.52931 v -1.57888 h 0.53003 v -7.82738 h 0.52946 v -27.28873 h 0.52946 v -8.76967 h 0.53081 v 4.83658 h 0.53123 v 16.13013 h 0.528 v 15.92585 h 0.52962 v 6.88759 h 0.52956 v -5.00093 h 0.52889 v -4.03824 h 0.52957 v -29.23975 h 0.52961 v -3.23691 h 0.52983 v 1.70121 h 0.52966 v 22.03443 h 0.52936 v 13.09837 h 0.52977 v 2.71694 h 0.52941 v -2.33332 h 0.52951 v -3.74534 h 0.52983 v -30.9128 h 0.52946 v -7.90604 h 0.5359 v 3.53394 h 0.53024 v 30.99611 h 0.5305 v 14.39227 h 0.52998 v -3.49877 h 0.53014 v -3.92665 h 0.53014 v -13.54905 h 0.53013 v -27.33805 h 0.53029 v -0.97957 h 0.53004 v 7.04224 h 0.53018 v 33.77979 h 0.53009 v 11.34401 h 0.53029 v -7.63322 h 0.53039 v -5.25809 h 0.53009 v -16.28131 h 0.53019 v -22.28261 h 0.53008 v 1.40082 h 0.53014 v 11.77203 h 0.53019 v 26.77613 h 0.53008 v 9.60885 h 0.53117 v -7.88753 h 0.53009 v -2.66646 h 0.53019 v -24.72509 h 0.53055 v -12.73951 h 0.53024 v 0.39061 h 0.53034 v 18.42602 h 0.53144 v 18.60867 h 0.5306 v 8.79155 h 0.5304 v -5.37472 h 0.5305 v -36.49535 h 0.5305 v -10.4217 h 0.53029 v 6.098 h 0.53013 v 29.11078 h 0.53024 v 16.03684 l 1.06069,-0.09 v -1.24459 h 0.53035 v -13.60699 h 0.53075 v -32.41169 h 0.5303 v -5.82271 h 0.5306 v 11.09401 h 0.53008 v 32.50334 h 0.53004 v 14.54169 h 0.53143 v -6.86761 h 0.53019 v -5.10092 h 0.53055 v -13.34897 h 0.53019 V 196.7593 h 0.53003 v -1.24416 h 0.53009 v 9.5588 h 0.53008 v 29.0625 h 0.53014 v 13.33617 h 0.53003 v -7.49334 h 0.53013 v -3.23867 h 0.53009 v -17.28349 h 0.53029 v -20.345 h 0.53008 v -4.04047 h 0.53004 v 15.9111 h 0.53013 v 26.20659 h 0.53009 v 11.40821 h 0.53039 v -8.9414 h 0.53003 v -3.75117 h 0.53004 V 214.8206 h 0.53003 v -19.51744 h 0.53024 v -2.12564 h 0.5306 v 23.75544 h 0.52998 v 19.64601 h 0.53003 v 12.41143 h 0.52993 v -6.87551 h 0.53024 v -4.67156 h 0.53102 v -14.00701 h 0.53455 v -28.48265 l 1.05919,-0.005 v 12.648 h 0.52966 v 29.60392 h 0.52946 v 11.06602 h 0.52983 v -8.0231 h 0.52961 v -4.23058 h 0.52936 V 214.6959 h 0.52946 v -16.97481 h 0.53003 v -0.54706 h 0.52915 v 19.51282 h 0.52941 v 19.85725 h 0.52972 v 9.66249 h 0.52998 v -5.78739 h 0.53086 v -3.82133 h 0.52993 V 208.1027 h 0.52951 v -14.36263 h 0.52957 v 5.46796 h 0.52946 v 25.08032 h 0.52972 v 13.16439 h 0.52977 v 6.04437 h 0.52977 v -2.64752 h 0.53118 v -12.10141 h 0.5292 v -27.97032 h 0.52977 v -2.60329 h 0.53019 v 10.26123 h 0.52915 v 23.45285 h 0.52961 v 8.51295 h 0.52941 v -4.22951 h 0.53268 v -19.32284 h 0.5291 v -14.36798 h 0.5292 v -0.49836 h 0.52962 v 18.31683 h 0.52935 v 16.88066 h 0.53024 v 7.54235 h 0.52941 v -8.3823 h 0.52925 v -11.43608 h 0.52946 v -19.96048 h 0.52957 v -2.95144 h 0.52941 v 8.98925 h 0.5292 v 21.98438 h 0.52987 v 4.24815 h 0.529 v 0.2531 h 0.52925 v -7.87101 h 0.52925 v -19.95378 h 0.52946 v -4.90381 h 0.52951 v 6.98325 h 0.5291 v 16.9906 h 0.52941 v 8.56585 h 0.52946 v -0.5767 h 0.52961 v -13.62396 h 0.5305 v -8.69339 h 0.52962 v -6.51843 h 0.52925 v 9.89936 h 0.53123 v 11.24076 h 0.5293 v 6.23447 h 0.52936 v -4.49499 h 0.52941 v -9.24296 h 0.52925 V 213.499 h 0.52915 v 2.88051 h 0.5292 v 7.53505 h 0.5291 v 6.44409 h 0.52951 v -0.18458 h 0.5291 v -5.04085 h 0.52925 v -6.61184 h 0.5292 v -1.49634 h 0.52925 v 4.00574 h 0.52936 v 0"
           style="fill:none;stroke:#1f77b4;stroke-width:0.75;stroke-linecap:square;stroke-linejoin:round;stroke-miterlimit:4;stroke-dasharray:none"
           id="path471"
           inkscape:connector-curvature="0" />
      </g>
      <g
         id="patch_13"
         style="stroke-linecap:butt;stroke-linejoin:round">
        <path
           d="M 54,252 V 188.04706"
           style="fill:none;stroke:#000000;stroke-width:0.80000001;stroke-linecap:square;stroke-linejoin:miter"
           id="path474"
           inkscape:connector-curvature="0" />
      </g>
      <g
         id="patch_14"
         style="stroke-linecap:butt;stroke-linejoin:round">
        <path
           d="M 388.8,252 V 188.04706"
           style="fill:none;stroke:#000000;stroke-width:0.80000001;stroke-linecap:square;stroke-linejoin:miter"
           id="path477"
           inkscape:connector-curvature="0" />
      </g>
      <g
         id="patch_15"
         style="stroke-linecap:butt;stroke-linejoin:round">
        <path
           d="M 54,252 H 388.8"
           style="fill:none;stroke:#000000;stroke-width:0.80000001;stroke-linecap:square;stroke-linejoin:miter"
           id="path480"
           inkscape:connector-curvature="0" />
      </g>
      <g
         id="patch_16"
         style="stroke-linecap:butt;stroke-linejoin:round">
        <path
           d="M 54,188.04706 H 388.8"
           style="fill:none;stroke:#000000;stroke-width:0.80000001;stroke-linecap:square;stroke-linejoin:miter"
           id="path483"
           inkscape:connector-curvature="0" />
      </g>
    </g>
  </g>
  <defs
     id="defs497">
    <clipPath
       id="p4b565d7c61">
      <rect
         height="63.952941"
         width="334.8"
         x="54"
         y="34.56"
         id="rect488" />
    </clipPath>
    <clipPath
       id="pe1b631375b">
      <rect
         height="63.952941"
         width="334.8"
         x="54"
         y="111.303529"
         id="rect491" />
    </clipPath>
    <clipPath
       id="p6b3da093d2">
      <rect
         height="63.952941"
         width="334.8"
         x="54"
         y="188.047059"
         id="rect494" />
    </clipPath>
  </defs>
</svg>
