<?xml version="1.0" encoding="UTF-8" standalone="no"?>
<!-- Created with Inkscape (http://www.inkscape.org/) -->

<svg
   xmlns:dc="http://purl.org/dc/elements/1.1/"
   xmlns:cc="http://creativecommons.org/ns#"
   xmlns:rdf="http://www.w3.org/1999/02/22-rdf-syntax-ns#"
   xmlns:svg="http://www.w3.org/2000/svg"
   xmlns="http://www.w3.org/2000/svg"
   xmlns:sodipodi="http://sodipodi.sourceforge.net/DTD/sodipodi-0.dtd"
   xmlns:inkscape="http://www.inkscape.org/namespaces/inkscape"
   id="svg2"
   version="1.1"
   inkscape:version="0.91 r13725"
   xml:space="preserve"
   width="755.79218"
   height="482.69922"
   viewBox="0 0 755.79218 482.69922"
   sodipodi:docname="crank-mechanism.svg"><metadata
     id="metadata8"><rdf:RDF><cc:Work
         rdf:about=""><dc:format>image/svg+xml</dc:format><dc:type
           rdf:resource="http://purl.org/dc/dcmitype/StillImage" /><dc:title></dc:title></cc:Work></rdf:RDF></metadata><defs
     id="defs6"><clipPath
       clipPathUnits="userSpaceOnUse"
       id="clipPath16"><path
         d="m 0,1.2207e-4 960,0 0,539.99999793 -960,0 L 0,1.2207e-4 Z"
         id="path18"
         inkscape:connector-curvature="0"
         style="clip-rule:evenodd" /></clipPath></defs><sodipodi:namedview
     pagecolor="#ffffff"
     bordercolor="#666666"
     borderopacity="1"
     objecttolerance="10"
     gridtolerance="10"
     guidetolerance="10"
     inkscape:pageopacity="0"
     inkscape:pageshadow="2"
     inkscape:window-width="1920"
     inkscape:window-height="1181"
     id="namedview4"
     showgrid="false"
     fit-margin-top="20"
     fit-margin-left="20"
     fit-margin-right="20"
     fit-margin-bottom="20"
     inkscape:zoom="0.87445539"
     inkscape:cx="445.53183"
     inkscape:cy="5.0185018"
     inkscape:window-x="-4"
     inkscape:window-y="-4"
     inkscape:window-maximized="1"
     inkscape:current-layer="g10" /><g
     id="g10"
     inkscape:groupmode="layer"
     inkscape:label="crank-mechanism"
     transform="matrix(1.25,0,0,-1.25,-437.22035,556.4)"><path
       d="M 552.83,402.84 380.88,90.148"
       style="fill:none;stroke:#5b9bd5;stroke-width:30;stroke-linecap:round;stroke-linejoin:miter;stroke-miterlimit:10;stroke-dasharray:none;stroke-opacity:1"
       id="path22"
       inkscape:connector-curvature="0" /><path
       d="m 726.96,328.92 133.88,0"
       style="fill:none;stroke:#5b9bd5;stroke-width:24;stroke-linecap:butt;stroke-linejoin:miter;stroke-miterlimit:10;stroke-dasharray:none;stroke-opacity:1"
       id="path24"
       inkscape:connector-curvature="0" /><path
       d="M 552.84,402.84 705.74,328.9"
       style="fill:none;stroke:#5b9bd5;stroke-width:30;stroke-linecap:butt;stroke-linejoin:miter;stroke-miterlimit:10;stroke-dasharray:none;stroke-opacity:1"
       id="path26"
       inkscape:connector-curvature="0" /><path
       d="m 684.54,328.86 c 0,11.73 9.51,21.24 21.24,21.24 11.73,0 21.24,-9.51 21.24,-21.24 0,-11.73 -9.51,-21.24 -21.24,-21.24 -11.73,0 -21.24,9.51 -21.24,21.24 z"
       style="fill:#ffffff;fill-opacity:1;fill-rule:evenodd;stroke:none"
       id="path28"
       inkscape:connector-curvature="0" /><path
       d="m 684.54,328.86 c 0,11.73 9.51,21.24 21.24,21.24 11.73,0 21.24,-9.51 21.24,-21.24 0,-11.73 -9.51,-21.24 -21.24,-21.24 -11.73,0 -21.24,9.51 -21.24,21.24 z"
       style="fill:none;stroke:#41719c;stroke-width:9.96000004;stroke-linecap:butt;stroke-linejoin:miter;stroke-miterlimit:10;stroke-dasharray:none;stroke-opacity:1"
       id="path30"
       inkscape:connector-curvature="0" /><path
       d="m 531.66,402.84 c 0,11.76 9.51,21.3 21.24,21.3 11.73,0 21.24,-9.54 21.24,-21.3 0,-11.76 -9.51,-21.3 -21.24,-21.3 -11.73,0 -21.24,9.54 -21.24,21.3 z"
       style="fill:#ffffff;fill-opacity:1;fill-rule:evenodd;stroke:none"
       id="path32"
       inkscape:connector-curvature="0" /><path
       d="m 531.66,402.84 c 0,11.76 9.51,21.3 21.24,21.3 11.73,0 21.24,-9.54 21.24,-21.3 0,-11.76 -9.51,-21.3 -21.24,-21.3 -11.73,0 -21.24,9.54 -21.24,21.3 z"
       style="fill:none;stroke:#41719c;stroke-width:9.96000004;stroke-linecap:butt;stroke-linejoin:miter;stroke-miterlimit:10;stroke-dasharray:none;stroke-opacity:1"
       id="path34"
       inkscape:connector-curvature="0" /><path
       d="m 764.94,349.98 70.45,0"
       style="fill:none;stroke:#41719c;stroke-width:9.96000004;stroke-linecap:butt;stroke-linejoin:miter;stroke-miterlimit:10;stroke-dasharray:none;stroke-opacity:1"
       id="path36"
       inkscape:connector-curvature="0" /><path
       d="m 764.94,307.62 70.45,0"
       style="fill:none;stroke:#41719c;stroke-width:9.96000004;stroke-linecap:butt;stroke-linejoin:miter;stroke-miterlimit:10;stroke-dasharray:none;stroke-opacity:1"
       id="path38"
       inkscape:connector-curvature="0" /><path
       d="m 453.96,235.08 52.44,0 0,8.76 -52.44,0 0,-8.76 z"
       style="fill:#ffffff;fill-opacity:1;fill-rule:evenodd;stroke:none"
       id="path40"
       inkscape:connector-curvature="0" /><path
       d="m 453.96,243.96 6.56,-6.63"
       style="fill:none;stroke:#5b9bd5;stroke-width:0.95999998;stroke-linecap:butt;stroke-linejoin:miter;stroke-miterlimit:10;stroke-dasharray:none;stroke-opacity:1"
       id="path42"
       inkscape:connector-curvature="0" /><path
       d="m 458.52,243.96 6.56,-6.63"
       style="fill:none;stroke:#5b9bd5;stroke-width:0.95999998;stroke-linecap:butt;stroke-linejoin:miter;stroke-miterlimit:10;stroke-dasharray:none;stroke-opacity:1"
       id="path44"
       inkscape:connector-curvature="0" /><path
       d="m 463.2,243.96 6.56,-6.63"
       style="fill:none;stroke:#5b9bd5;stroke-width:0.95999998;stroke-linecap:butt;stroke-linejoin:miter;stroke-miterlimit:10;stroke-dasharray:none;stroke-opacity:1"
       id="path46"
       inkscape:connector-curvature="0" /><path
       d="m 467.76,243.96 6.56,-6.63"
       style="fill:none;stroke:#5b9bd5;stroke-width:0.95999998;stroke-linecap:butt;stroke-linejoin:miter;stroke-miterlimit:10;stroke-dasharray:none;stroke-opacity:1"
       id="path48"
       inkscape:connector-curvature="0" /><path
       d="M 472.44,243.96 479,237.33"
       style="fill:none;stroke:#5b9bd5;stroke-width:0.95999998;stroke-linecap:butt;stroke-linejoin:miter;stroke-miterlimit:10;stroke-dasharray:none;stroke-opacity:1"
       id="path50"
       inkscape:connector-curvature="0" /><path
       d="m 477,243.96 6.56,-6.63"
       style="fill:none;stroke:#5b9bd5;stroke-width:0.95999998;stroke-linecap:butt;stroke-linejoin:miter;stroke-miterlimit:10;stroke-dasharray:none;stroke-opacity:1"
       id="path52"
       inkscape:connector-curvature="0" /><path
       d="m 481.68,243.96 6.56,-6.63"
       style="fill:none;stroke:#5b9bd5;stroke-width:0.95999998;stroke-linecap:butt;stroke-linejoin:miter;stroke-miterlimit:10;stroke-dasharray:none;stroke-opacity:1"
       id="path54"
       inkscape:connector-curvature="0" /><path
       d="m 486.24,243.96 6.56,-6.63"
       style="fill:none;stroke:#5b9bd5;stroke-width:0.95999998;stroke-linecap:butt;stroke-linejoin:miter;stroke-miterlimit:10;stroke-dasharray:none;stroke-opacity:1"
       id="path56"
       inkscape:connector-curvature="0" /><path
       d="m 490.92,243.96 6.56,-6.63"
       style="fill:none;stroke:#5b9bd5;stroke-width:0.95999998;stroke-linecap:butt;stroke-linejoin:miter;stroke-miterlimit:10;stroke-dasharray:none;stroke-opacity:1"
       id="path58"
       inkscape:connector-curvature="0" /><path
       d="m 495.48,243.96 6.56,-6.63"
       style="fill:none;stroke:#5b9bd5;stroke-width:0.95999998;stroke-linecap:butt;stroke-linejoin:miter;stroke-miterlimit:10;stroke-dasharray:none;stroke-opacity:1"
       id="path60"
       inkscape:connector-curvature="0" /><path
       d="m 500.16,243.96 6.56,-6.63"
       style="fill:none;stroke:#5b9bd5;stroke-width:0.95999998;stroke-linecap:butt;stroke-linejoin:miter;stroke-miterlimit:10;stroke-dasharray:none;stroke-opacity:1"
       id="path62"
       inkscape:connector-curvature="0" /><path
       d="m 458.82,248.7 42.48,0 0,16.32 -42.48,0 0,-16.32 z"
       style="fill:#ffffff;fill-opacity:1;fill-rule:evenodd;stroke:none"
       id="path64"
       inkscape:connector-curvature="0" /><path
       d="m 458.82,248.7 42.48,0 0,16.32 -42.48,0 0,-16.32 z"
       style="fill:none;stroke:#41719c;stroke-width:9.96000004;stroke-linecap:butt;stroke-linejoin:miter;stroke-miterlimit:10;stroke-dasharray:none;stroke-opacity:1"
       id="path66"
       inkscape:connector-curvature="0" /><path
       d="m 458.82,269.94 c 0,11.73 9.51,21.24 21.24,21.24 11.73,0 21.24,-9.51 21.24,-21.24 0,-11.73 -9.51,-21.24 -21.24,-21.24 -11.73,0 -21.24,9.51 -21.24,21.24 z"
       style="fill:#ffffff;fill-opacity:1;fill-rule:evenodd;stroke:none"
       id="path68"
       inkscape:connector-curvature="0" /><path
       d="m 458.82,269.94 c 0,11.73 9.51,21.24 21.24,21.24 11.73,0 21.24,-9.51 21.24,-21.24 0,-11.73 -9.51,-21.24 -21.24,-21.24 -11.73,0 -21.24,9.51 -21.24,21.24 z"
       style="fill:none;stroke:#41719c;stroke-width:9.96000004;stroke-linecap:butt;stroke-linejoin:miter;stroke-miterlimit:10;stroke-dasharray:none;stroke-opacity:1"
       id="path70"
       inkscape:connector-curvature="0" /><path
       d="m 773.76,302.52 6.56,-6.63"
       style="fill:none;stroke:#5b9bd5;stroke-width:0.95999998;stroke-linecap:butt;stroke-linejoin:miter;stroke-miterlimit:10;stroke-dasharray:none;stroke-opacity:1"
       id="path72"
       inkscape:connector-curvature="0" /><path
       d="m 778.32,302.52 6.56,-6.63"
       style="fill:none;stroke:#5b9bd5;stroke-width:0.95999998;stroke-linecap:butt;stroke-linejoin:miter;stroke-miterlimit:10;stroke-dasharray:none;stroke-opacity:1"
       id="path74"
       inkscape:connector-curvature="0" /><path
       d="m 783,302.52 6.56,-6.63"
       style="fill:none;stroke:#5b9bd5;stroke-width:0.95999998;stroke-linecap:butt;stroke-linejoin:miter;stroke-miterlimit:10;stroke-dasharray:none;stroke-opacity:1"
       id="path76"
       inkscape:connector-curvature="0" /><path
       d="m 787.56,302.52 6.56,-6.63"
       style="fill:none;stroke:#5b9bd5;stroke-width:0.95999998;stroke-linecap:butt;stroke-linejoin:miter;stroke-miterlimit:10;stroke-dasharray:none;stroke-opacity:1"
       id="path78"
       inkscape:connector-curvature="0" /><path
       d="m 792.24,302.52 6.56,-6.63"
       style="fill:none;stroke:#5b9bd5;stroke-width:0.95999998;stroke-linecap:butt;stroke-linejoin:miter;stroke-miterlimit:10;stroke-dasharray:none;stroke-opacity:1"
       id="path80"
       inkscape:connector-curvature="0" /><path
       d="m 796.8,302.52 6.56,-6.63"
       style="fill:none;stroke:#5b9bd5;stroke-width:0.95999998;stroke-linecap:butt;stroke-linejoin:miter;stroke-miterlimit:10;stroke-dasharray:none;stroke-opacity:1"
       id="path82"
       inkscape:connector-curvature="0" /><path
       d="m 801.48,302.52 6.56,-6.63"
       style="fill:none;stroke:#5b9bd5;stroke-width:0.95999998;stroke-linecap:butt;stroke-linejoin:miter;stroke-miterlimit:10;stroke-dasharray:none;stroke-opacity:1"
       id="path84"
       inkscape:connector-curvature="0" /><path
       d="m 806.04,302.52 6.56,-6.63"
       style="fill:none;stroke:#5b9bd5;stroke-width:0.95999998;stroke-linecap:butt;stroke-linejoin:miter;stroke-miterlimit:10;stroke-dasharray:none;stroke-opacity:1"
       id="path86"
       inkscape:connector-curvature="0" /><path
       d="m 810.72,302.52 6.56,-6.63"
       style="fill:none;stroke:#5b9bd5;stroke-width:0.95999998;stroke-linecap:butt;stroke-linejoin:miter;stroke-miterlimit:10;stroke-dasharray:none;stroke-opacity:1"
       id="path88"
       inkscape:connector-curvature="0" /><path
       d="m 815.28,302.52 6.56,-6.63"
       style="fill:none;stroke:#5b9bd5;stroke-width:0.95999998;stroke-linecap:butt;stroke-linejoin:miter;stroke-miterlimit:10;stroke-dasharray:none;stroke-opacity:1"
       id="path90"
       inkscape:connector-curvature="0" /><path
       d="m 819.96,302.52 6.56,-6.63"
       style="fill:none;stroke:#5b9bd5;stroke-width:0.95999998;stroke-linecap:butt;stroke-linejoin:miter;stroke-miterlimit:10;stroke-dasharray:none;stroke-opacity:1"
       id="path92"
       inkscape:connector-curvature="0" /><path
       d="m 498.48,185.31 -1.66,-0.4 -2.16,-0.36 -2.14,-0.3 -2.13,-0.24 -2.13,-0.19 -2.13,-0.14 -2.13,-0.08 -2.12,-0.03 -2.11,0.02 -2.11,0.08 -2.1,0.13 -2.1,0.17 -2.08,0.23 -2.08,0.28 -2.06,0.33 -2.05,0.37 -2.05,0.43 -2.02,0.48 -2.02,0.52 -1.99,0.57 -1.99,0.62 -1.96,0.66 -1.95,0.71 -1.93,0.76 -1.92,0.8 -3.75,1.74 -3.67,1.92 -3.58,2.1 -3.48,2.26 -3.37,2.43 -3.25,2.6 -3.14,2.75 -3.01,2.91 -2.87,3.07 -2.72,3.21 -2.58,3.36 -2.42,3.51 -2.26,3.65 -2.09,3.77 -0.98,1.95 -0.94,1.97 -0.89,2.01 -0.83,2.04 -0.79,2.07 -0.75,2.1 -0.63,1.96 -0.6,1.99 -0.55,2.01 -0.5,2.02 -0.46,2.03 -0.4,2.04 -0.35,2.05 -0.31,2.05 -0.26,2.09 -0.2,3.04 2.52,0.16 0.19,-3 0,0.07 0.25,-2.03 0,0.03 0.3,-2.03 -0.01,0.03 0.35,-2.02 -0.01,0.03 0.4,-2.01 -0.01,0.04 0.45,-2.01 0,0.03 0.49,-1.99 -0.01,0.03 0.54,-1.98 -0.01,0.03 0.6,-1.96 -0.01,0.02 0.62,-1.93 -0.01,0.04 0.73,-2.07 -0.01,0.03 0.78,-2.04 -0.01,0.03 0.83,-2.01 -0.02,0.03 0.88,-1.98 -0.01,0.03 0.92,-1.94 -0.01,0.02 0.96,-1.91 -0.03,0.04 2.07,-3.72 -0.03,0.05 2.22,-3.59 -0.03,0.05 2.38,-3.46 -0.03,0.05 2.54,-3.31 -0.04,0.05 2.69,-3.17 -0.04,0.05 2.82,-3.03 -0.04,0.05 2.96,-2.87 -0.04,0.04 3.09,-2.71 -0.05,0.04 3.21,-2.56 -0.05,0.04 3.32,-2.39 -0.04,0.03 3.42,-2.24 -0.05,0.04 3.53,-2.07 -0.06,0.03 3.62,-1.89 -0.06,0.03 3.71,-1.72 -0.04,0.02 1.88,-0.79 -0.03,0.01 1.91,-0.75 -0.03,0.01 1.92,-0.69 -0.03,0.01 1.94,-0.66 -0.03,0.01 1.96,-0.61 -0.03,0.01 1.96,-0.57 -0.03,0.01 1.99,-0.51 -0.03,0.01 2,-0.47 -0.03,0 2.01,-0.42 -0.04,0.01 2.03,-0.37 -0.03,0.01 2.04,-0.33 -0.04,0 2.05,-0.27 -0.03,0.01 2.05,-0.23 -0.04,0 2.07,-0.17 -0.02,0 2.07,-0.12 -0.03,0 2.07,-0.08 -0.03,0 2.09,-0.02 -0.04,0 2.09,0.03 -0.03,0 2.09,0.08 -0.03,0 2.1,0.13 -0.03,0 2.1,0.19 -0.03,0 2.1,0.24 -0.03,-0.01 2.1,0.3 -0.03,-0.01 2.1,0.35 -0.09,-0.02 1.61,0.39 0.6,-2.45 z m -2.47,4.57 13.14,-0.49 -11.24,-6.83 -1.9,7.32 z m -102.78,72.3 3.57,12.67 3.99,-12.54 -7.56,-0.13 z"
       style="fill:#000000;fill-opacity:1;fill-rule:nonzero;stroke:none"
       id="path94"
       inkscape:connector-curvature="0" /><path
       d="m 878.52,330.12 48.55,0 0,-2.52 -48.55,0 0,2.52 z m 1.26,-5.04 -12.6,3.78 12.6,3.78 0,-7.56 z m 46.03,7.56 12.6,-3.78 -12.6,-3.78 0,7.56 z"
       style="fill:#000000;fill-opacity:1;fill-rule:nonzero;stroke:none"
       id="path96"
       inkscape:connector-curvature="0" /></g></svg>