<?xml version="1.0" encoding="utf-8" standalone="no"?>
<!DOCTYPE svg PUBLIC "-//W3C//DTD SVG 1.1//EN"
  "http://www.w3.org/Graphics/SVG/1.1/DTD/svg11.dtd">
<!-- Created with matplotlib (http://matplotlib.org/) -->
<svg height="288pt" version="1.1" viewBox="0 0 432 288" width="432pt" xmlns="http://www.w3.org/2000/svg" xmlns:xlink="http://www.w3.org/1999/xlink">
 <defs>
  <style type="text/css">
*{stroke-linecap:butt;stroke-linejoin:round;}
  </style>
 </defs>
 <g id="figure_1">
  <g id="patch_1">
   <path d="M 0 288 
L 432 288 
L 432 0 
L 0 0 
z
" style="fill:#ffffff;"/>
  </g>
  <g id="axes_1">
   <g id="patch_2">
    <path d="M 54 252 
L 388.8 252 
L 388.8 34.56 
L 54 34.56 
z
" style="fill:#e5e5e5;"/>
   </g>
   <g id="matplotlib.axis_1">
    <g id="xtick_1">
     <g id="line2d_1">
      <path clip-path="url(#p110415be9c)" d="M 69.18728 252 
L 69.18728 34.56 
" style="fill:none;stroke:#ffffff;stroke-linecap:square;stroke-width:0.8;"/>
     </g>
     <g id="line2d_2">
      <defs>
       <path d="M 0 0 
L 0 3.5 
" id="m0857b6a104" style="stroke:#555555;stroke-width:0.8;"/>
      </defs>
      <g>
       <use style="fill:#555555;stroke:#555555;stroke-width:0.8;" x="69.18728" xlink:href="#m0857b6a104" y="252"/>
      </g>
     </g>
     <g id="text_1">
      <!-- 0 -->
      <defs>
       <path d="M 31.78125 66.40625 
Q 24.171875 66.40625 20.328125 58.90625 
Q 16.5 51.421875 16.5 36.375 
Q 16.5 21.390625 20.328125 13.890625 
Q 24.171875 6.390625 31.78125 6.390625 
Q 39.453125 6.390625 43.28125 13.890625 
Q 47.125 21.390625 47.125 36.375 
Q 47.125 51.421875 43.28125 58.90625 
Q 39.453125 66.40625 31.78125 66.40625 
M 31.78125 74.21875 
Q 44.046875 74.21875 50.515625 64.515625 
Q 56.984375 54.828125 56.984375 36.375 
Q 56.984375 17.96875 50.515625 8.265625 
Q 44.046875 -1.421875 31.78125 -1.421875 
Q 19.53125 -1.421875 13.0625 8.265625 
Q 6.59375 17.96875 6.59375 36.375 
Q 6.59375 54.828125 13.0625 64.515625 
Q 19.53125 74.21875 31.78125 74.21875 
" id="DejaVuSans-30"/>
      </defs>
      <g style="fill:#555555;" transform="translate(66.00603 266.598437)scale(0.1 -0.1)">
       <use xlink:href="#DejaVuSans-30"/>
      </g>
     </g>
    </g>
    <g id="xtick_2">
     <g id="line2d_3">
      <path clip-path="url(#p110415be9c)" d="M 130.991072 252 
L 130.991072 34.56 
" style="fill:none;stroke:#ffffff;stroke-linecap:square;stroke-width:0.8;"/>
     </g>
     <g id="line2d_4">
      <g>
       <use style="fill:#555555;stroke:#555555;stroke-width:0.8;" x="130.991072" xlink:href="#m0857b6a104" y="252"/>
      </g>
     </g>
     <g id="text_2">
      <!-- 2 -->
      <defs>
       <path d="M 19.1875 8.296875 
L 53.609375 8.296875 
L 53.609375 0 
L 7.328125 0 
L 7.328125 8.296875 
Q 12.9375 14.109375 22.625 23.890625 
Q 32.328125 33.6875 34.8125 36.53125 
Q 39.546875 41.84375 41.421875 45.53125 
Q 43.3125 49.21875 43.3125 52.78125 
Q 43.3125 58.59375 39.234375 62.25 
Q 35.15625 65.921875 28.609375 65.921875 
Q 23.96875 65.921875 18.8125 64.3125 
Q 13.671875 62.703125 7.8125 59.421875 
L 7.8125 69.390625 
Q 13.765625 71.78125 18.9375 73 
Q 24.125 74.21875 28.421875 74.21875 
Q 39.75 74.21875 46.484375 68.546875 
Q 53.21875 62.890625 53.21875 53.421875 
Q 53.21875 48.921875 51.53125 44.890625 
Q 49.859375 40.875 45.40625 35.40625 
Q 44.1875 33.984375 37.640625 27.21875 
Q 31.109375 20.453125 19.1875 8.296875 
" id="DejaVuSans-32"/>
      </defs>
      <g style="fill:#555555;" transform="translate(127.809822 266.598437)scale(0.1 -0.1)">
       <use xlink:href="#DejaVuSans-32"/>
      </g>
     </g>
    </g>
    <g id="xtick_3">
     <g id="line2d_5">
      <path clip-path="url(#p110415be9c)" d="M 192.794864 252 
L 192.794864 34.56 
" style="fill:none;stroke:#ffffff;stroke-linecap:square;stroke-width:0.8;"/>
     </g>
     <g id="line2d_6">
      <g>
       <use style="fill:#555555;stroke:#555555;stroke-width:0.8;" x="192.794864" xlink:href="#m0857b6a104" y="252"/>
      </g>
     </g>
     <g id="text_3">
      <!-- 4 -->
      <defs>
       <path d="M 37.796875 64.3125 
L 12.890625 25.390625 
L 37.796875 25.390625 
z
M 35.203125 72.90625 
L 47.609375 72.90625 
L 47.609375 25.390625 
L 58.015625 25.390625 
L 58.015625 17.1875 
L 47.609375 17.1875 
L 47.609375 0 
L 37.796875 0 
L 37.796875 17.1875 
L 4.890625 17.1875 
L 4.890625 26.703125 
z
" id="DejaVuSans-34"/>
      </defs>
      <g style="fill:#555555;" transform="translate(189.613614 266.598437)scale(0.1 -0.1)">
       <use xlink:href="#DejaVuSans-34"/>
      </g>
     </g>
    </g>
    <g id="xtick_4">
     <g id="line2d_7">
      <path clip-path="url(#p110415be9c)" d="M 254.598655 252 
L 254.598655 34.56 
" style="fill:none;stroke:#ffffff;stroke-linecap:square;stroke-width:0.8;"/>
     </g>
     <g id="line2d_8">
      <g>
       <use style="fill:#555555;stroke:#555555;stroke-width:0.8;" x="254.598655" xlink:href="#m0857b6a104" y="252"/>
      </g>
     </g>
     <g id="text_4">
      <!-- 6 -->
      <defs>
       <path d="M 33.015625 40.375 
Q 26.375 40.375 22.484375 35.828125 
Q 18.609375 31.296875 18.609375 23.390625 
Q 18.609375 15.53125 22.484375 10.953125 
Q 26.375 6.390625 33.015625 6.390625 
Q 39.65625 6.390625 43.53125 10.953125 
Q 47.40625 15.53125 47.40625 23.390625 
Q 47.40625 31.296875 43.53125 35.828125 
Q 39.65625 40.375 33.015625 40.375 
M 52.59375 71.296875 
L 52.59375 62.3125 
Q 48.875 64.0625 45.09375 64.984375 
Q 41.3125 65.921875 37.59375 65.921875 
Q 27.828125 65.921875 22.671875 59.328125 
Q 17.53125 52.734375 16.796875 39.40625 
Q 19.671875 43.65625 24.015625 45.921875 
Q 28.375 48.1875 33.59375 48.1875 
Q 44.578125 48.1875 50.953125 41.515625 
Q 57.328125 34.859375 57.328125 23.390625 
Q 57.328125 12.15625 50.6875 5.359375 
Q 44.046875 -1.421875 33.015625 -1.421875 
Q 20.359375 -1.421875 13.671875 8.265625 
Q 6.984375 17.96875 6.984375 36.375 
Q 6.984375 53.65625 15.1875 63.9375 
Q 23.390625 74.21875 37.203125 74.21875 
Q 40.921875 74.21875 44.703125 73.484375 
Q 48.484375 72.75 52.59375 71.296875 
" id="DejaVuSans-36"/>
      </defs>
      <g style="fill:#555555;" transform="translate(251.417405 266.598437)scale(0.1 -0.1)">
       <use xlink:href="#DejaVuSans-36"/>
      </g>
     </g>
    </g>
    <g id="xtick_5">
     <g id="line2d_9">
      <path clip-path="url(#p110415be9c)" d="M 316.402447 252 
L 316.402447 34.56 
" style="fill:none;stroke:#ffffff;stroke-linecap:square;stroke-width:0.8;"/>
     </g>
     <g id="line2d_10">
      <g>
       <use style="fill:#555555;stroke:#555555;stroke-width:0.8;" x="316.402447" xlink:href="#m0857b6a104" y="252"/>
      </g>
     </g>
     <g id="text_5">
      <!-- 8 -->
      <defs>
       <path d="M 31.78125 34.625 
Q 24.75 34.625 20.71875 30.859375 
Q 16.703125 27.09375 16.703125 20.515625 
Q 16.703125 13.921875 20.71875 10.15625 
Q 24.75 6.390625 31.78125 6.390625 
Q 38.8125 6.390625 42.859375 10.171875 
Q 46.921875 13.96875 46.921875 20.515625 
Q 46.921875 27.09375 42.890625 30.859375 
Q 38.875 34.625 31.78125 34.625 
M 21.921875 38.8125 
Q 15.578125 40.375 12.03125 44.71875 
Q 8.5 49.078125 8.5 55.328125 
Q 8.5 64.0625 14.71875 69.140625 
Q 20.953125 74.21875 31.78125 74.21875 
Q 42.671875 74.21875 48.875 69.140625 
Q 55.078125 64.0625 55.078125 55.328125 
Q 55.078125 49.078125 51.53125 44.71875 
Q 48 40.375 41.703125 38.8125 
Q 48.828125 37.15625 52.796875 32.3125 
Q 56.78125 27.484375 56.78125 20.515625 
Q 56.78125 9.90625 50.3125 4.234375 
Q 43.84375 -1.421875 31.78125 -1.421875 
Q 19.734375 -1.421875 13.25 4.234375 
Q 6.78125 9.90625 6.78125 20.515625 
Q 6.78125 27.484375 10.78125 32.3125 
Q 14.796875 37.15625 21.921875 38.8125 
M 18.3125 54.390625 
Q 18.3125 48.734375 21.84375 45.5625 
Q 25.390625 42.390625 31.78125 42.390625 
Q 38.140625 42.390625 41.71875 45.5625 
Q 45.3125 48.734375 45.3125 54.390625 
Q 45.3125 60.0625 41.71875 63.234375 
Q 38.140625 66.40625 31.78125 66.40625 
Q 25.390625 66.40625 21.84375 63.234375 
Q 18.3125 60.0625 18.3125 54.390625 
" id="DejaVuSans-38"/>
      </defs>
      <g style="fill:#555555;" transform="translate(313.221197 266.598437)scale(0.1 -0.1)">
       <use xlink:href="#DejaVuSans-38"/>
      </g>
     </g>
    </g>
    <g id="xtick_6">
     <g id="line2d_11">
      <path clip-path="url(#p110415be9c)" d="M 378.206239 252 
L 378.206239 34.56 
" style="fill:none;stroke:#ffffff;stroke-linecap:square;stroke-width:0.8;"/>
     </g>
     <g id="line2d_12">
      <g>
       <use style="fill:#555555;stroke:#555555;stroke-width:0.8;" x="378.206239" xlink:href="#m0857b6a104" y="252"/>
      </g>
     </g>
     <g id="text_6">
      <!-- 10 -->
      <defs>
       <path d="M 12.40625 8.296875 
L 28.515625 8.296875 
L 28.515625 63.921875 
L 10.984375 60.40625 
L 10.984375 69.390625 
L 28.421875 72.90625 
L 38.28125 72.90625 
L 38.28125 8.296875 
L 54.390625 8.296875 
L 54.390625 0 
L 12.40625 0 
z
" id="DejaVuSans-31"/>
      </defs>
      <g style="fill:#555555;" transform="translate(371.843739 266.598437)scale(0.1 -0.1)">
       <use xlink:href="#DejaVuSans-31"/>
       <use x="63.623047" xlink:href="#DejaVuSans-30"/>
      </g>
     </g>
    </g>
    <g id="text_7">
     <!-- deformation [mm] -->
     <defs>
      <path d="M 45.40625 46.390625 
L 45.40625 75.984375 
L 54.390625 75.984375 
L 54.390625 0 
L 45.40625 0 
L 45.40625 8.203125 
Q 42.578125 3.328125 38.25 0.953125 
Q 33.9375 -1.421875 27.875 -1.421875 
Q 17.96875 -1.421875 11.734375 6.484375 
Q 5.515625 14.40625 5.515625 27.296875 
Q 5.515625 40.1875 11.734375 48.09375 
Q 17.96875 56 27.875 56 
Q 33.9375 56 38.25 53.625 
Q 42.578125 51.265625 45.40625 46.390625 
M 14.796875 27.296875 
Q 14.796875 17.390625 18.875 11.75 
Q 22.953125 6.109375 30.078125 6.109375 
Q 37.203125 6.109375 41.296875 11.75 
Q 45.40625 17.390625 45.40625 27.296875 
Q 45.40625 37.203125 41.296875 42.84375 
Q 37.203125 48.484375 30.078125 48.484375 
Q 22.953125 48.484375 18.875 42.84375 
Q 14.796875 37.203125 14.796875 27.296875 
" id="DejaVuSans-64"/>
      <path d="M 56.203125 29.59375 
L 56.203125 25.203125 
L 14.890625 25.203125 
Q 15.484375 15.921875 20.484375 11.0625 
Q 25.484375 6.203125 34.421875 6.203125 
Q 39.59375 6.203125 44.453125 7.46875 
Q 49.3125 8.734375 54.109375 11.28125 
L 54.109375 2.78125 
Q 49.265625 0.734375 44.1875 -0.34375 
Q 39.109375 -1.421875 33.890625 -1.421875 
Q 20.796875 -1.421875 13.15625 6.1875 
Q 5.515625 13.8125 5.515625 26.8125 
Q 5.515625 40.234375 12.765625 48.109375 
Q 20.015625 56 32.328125 56 
Q 43.359375 56 49.78125 48.890625 
Q 56.203125 41.796875 56.203125 29.59375 
M 47.21875 32.234375 
Q 47.125 39.59375 43.09375 43.984375 
Q 39.0625 48.390625 32.421875 48.390625 
Q 24.90625 48.390625 20.390625 44.140625 
Q 15.875 39.890625 15.1875 32.171875 
z
" id="DejaVuSans-65"/>
      <path d="M 37.109375 75.984375 
L 37.109375 68.5 
L 28.515625 68.5 
Q 23.6875 68.5 21.796875 66.546875 
Q 19.921875 64.59375 19.921875 59.515625 
L 19.921875 54.6875 
L 34.71875 54.6875 
L 34.71875 47.703125 
L 19.921875 47.703125 
L 19.921875 0 
L 10.890625 0 
L 10.890625 47.703125 
L 2.296875 47.703125 
L 2.296875 54.6875 
L 10.890625 54.6875 
L 10.890625 58.5 
Q 10.890625 67.625 15.140625 71.796875 
Q 19.390625 75.984375 28.609375 75.984375 
z
" id="DejaVuSans-66"/>
      <path d="M 30.609375 48.390625 
Q 23.390625 48.390625 19.1875 42.75 
Q 14.984375 37.109375 14.984375 27.296875 
Q 14.984375 17.484375 19.15625 11.84375 
Q 23.34375 6.203125 30.609375 6.203125 
Q 37.796875 6.203125 41.984375 11.859375 
Q 46.1875 17.53125 46.1875 27.296875 
Q 46.1875 37.015625 41.984375 42.703125 
Q 37.796875 48.390625 30.609375 48.390625 
M 30.609375 56 
Q 42.328125 56 49.015625 48.375 
Q 55.71875 40.765625 55.71875 27.296875 
Q 55.71875 13.875 49.015625 6.21875 
Q 42.328125 -1.421875 30.609375 -1.421875 
Q 18.84375 -1.421875 12.171875 6.21875 
Q 5.515625 13.875 5.515625 27.296875 
Q 5.515625 40.765625 12.171875 48.375 
Q 18.84375 56 30.609375 56 
" id="DejaVuSans-6f"/>
      <path d="M 41.109375 46.296875 
Q 39.59375 47.171875 37.8125 47.578125 
Q 36.03125 48 33.890625 48 
Q 26.265625 48 22.1875 43.046875 
Q 18.109375 38.09375 18.109375 28.8125 
L 18.109375 0 
L 9.078125 0 
L 9.078125 54.6875 
L 18.109375 54.6875 
L 18.109375 46.1875 
Q 20.953125 51.171875 25.484375 53.578125 
Q 30.03125 56 36.53125 56 
Q 37.453125 56 38.578125 55.875 
Q 39.703125 55.765625 41.0625 55.515625 
z
" id="DejaVuSans-72"/>
      <path d="M 52 44.1875 
Q 55.375 50.25 60.0625 53.125 
Q 64.75 56 71.09375 56 
Q 79.640625 56 84.28125 50.015625 
Q 88.921875 44.046875 88.921875 33.015625 
L 88.921875 0 
L 79.890625 0 
L 79.890625 32.71875 
Q 79.890625 40.578125 77.09375 44.375 
Q 74.3125 48.1875 68.609375 48.1875 
Q 61.625 48.1875 57.5625 43.546875 
Q 53.515625 38.921875 53.515625 30.90625 
L 53.515625 0 
L 44.484375 0 
L 44.484375 32.71875 
Q 44.484375 40.625 41.703125 44.40625 
Q 38.921875 48.1875 33.109375 48.1875 
Q 26.21875 48.1875 22.15625 43.53125 
Q 18.109375 38.875 18.109375 30.90625 
L 18.109375 0 
L 9.078125 0 
L 9.078125 54.6875 
L 18.109375 54.6875 
L 18.109375 46.1875 
Q 21.1875 51.21875 25.484375 53.609375 
Q 29.78125 56 35.6875 56 
Q 41.65625 56 45.828125 52.96875 
Q 50 49.953125 52 44.1875 
" id="DejaVuSans-6d"/>
      <path d="M 34.28125 27.484375 
Q 23.390625 27.484375 19.1875 25 
Q 14.984375 22.515625 14.984375 16.5 
Q 14.984375 11.71875 18.140625 8.90625 
Q 21.296875 6.109375 26.703125 6.109375 
Q 34.1875 6.109375 38.703125 11.40625 
Q 43.21875 16.703125 43.21875 25.484375 
L 43.21875 27.484375 
z
M 52.203125 31.203125 
L 52.203125 0 
L 43.21875 0 
L 43.21875 8.296875 
Q 40.140625 3.328125 35.546875 0.953125 
Q 30.953125 -1.421875 24.3125 -1.421875 
Q 15.921875 -1.421875 10.953125 3.296875 
Q 6 8.015625 6 15.921875 
Q 6 25.140625 12.171875 29.828125 
Q 18.359375 34.515625 30.609375 34.515625 
L 43.21875 34.515625 
L 43.21875 35.40625 
Q 43.21875 41.609375 39.140625 45 
Q 35.0625 48.390625 27.6875 48.390625 
Q 23 48.390625 18.546875 47.265625 
Q 14.109375 46.140625 10.015625 43.890625 
L 10.015625 52.203125 
Q 14.9375 54.109375 19.578125 55.046875 
Q 24.21875 56 28.609375 56 
Q 40.484375 56 46.34375 49.84375 
Q 52.203125 43.703125 52.203125 31.203125 
" id="DejaVuSans-61"/>
      <path d="M 18.3125 70.21875 
L 18.3125 54.6875 
L 36.8125 54.6875 
L 36.8125 47.703125 
L 18.3125 47.703125 
L 18.3125 18.015625 
Q 18.3125 11.328125 20.140625 9.421875 
Q 21.96875 7.515625 27.59375 7.515625 
L 36.8125 7.515625 
L 36.8125 0 
L 27.59375 0 
Q 17.1875 0 13.234375 3.875 
Q 9.28125 7.765625 9.28125 18.015625 
L 9.28125 47.703125 
L 2.6875 47.703125 
L 2.6875 54.6875 
L 9.28125 54.6875 
L 9.28125 70.21875 
z
" id="DejaVuSans-74"/>
      <path d="M 9.421875 54.6875 
L 18.40625 54.6875 
L 18.40625 0 
L 9.421875 0 
z
M 9.421875 75.984375 
L 18.40625 75.984375 
L 18.40625 64.59375 
L 9.421875 64.59375 
z
" id="DejaVuSans-69"/>
      <path d="M 54.890625 33.015625 
L 54.890625 0 
L 45.90625 0 
L 45.90625 32.71875 
Q 45.90625 40.484375 42.875 44.328125 
Q 39.84375 48.1875 33.796875 48.1875 
Q 26.515625 48.1875 22.3125 43.546875 
Q 18.109375 38.921875 18.109375 30.90625 
L 18.109375 0 
L 9.078125 0 
L 9.078125 54.6875 
L 18.109375 54.6875 
L 18.109375 46.1875 
Q 21.34375 51.125 25.703125 53.5625 
Q 30.078125 56 35.796875 56 
Q 45.21875 56 50.046875 50.171875 
Q 54.890625 44.34375 54.890625 33.015625 
" id="DejaVuSans-6e"/>
      <path id="DejaVuSans-20"/>
      <path d="M 8.59375 75.984375 
L 29.296875 75.984375 
L 29.296875 69 
L 17.578125 69 
L 17.578125 -6.203125 
L 29.296875 -6.203125 
L 29.296875 -13.1875 
L 8.59375 -13.1875 
z
" id="DejaVuSans-5b"/>
      <path d="M 30.421875 75.984375 
L 30.421875 -13.1875 
L 9.71875 -13.1875 
L 9.71875 -6.203125 
L 21.390625 -6.203125 
L 21.390625 69 
L 9.71875 69 
L 9.71875 75.984375 
z
" id="DejaVuSans-5d"/>
     </defs>
     <g style="fill:#555555;" transform="translate(166.358438 281.79625)scale(0.12 -0.12)">
      <use xlink:href="#DejaVuSans-64"/>
      <use x="63.476562" xlink:href="#DejaVuSans-65"/>
      <use x="125" xlink:href="#DejaVuSans-66"/>
      <use x="160.205078" xlink:href="#DejaVuSans-6f"/>
      <use x="221.386719" xlink:href="#DejaVuSans-72"/>
      <use x="262.484375" xlink:href="#DejaVuSans-6d"/>
      <use x="359.896484" xlink:href="#DejaVuSans-61"/>
      <use x="421.175781" xlink:href="#DejaVuSans-74"/>
      <use x="460.384766" xlink:href="#DejaVuSans-69"/>
      <use x="488.167969" xlink:href="#DejaVuSans-6f"/>
      <use x="549.349609" xlink:href="#DejaVuSans-6e"/>
      <use x="612.728516" xlink:href="#DejaVuSans-20"/>
      <use x="644.515625" xlink:href="#DejaVuSans-5b"/>
      <use x="683.529297" xlink:href="#DejaVuSans-6d"/>
      <use x="780.941406" xlink:href="#DejaVuSans-6d"/>
      <use x="878.353516" xlink:href="#DejaVuSans-5d"/>
     </g>
    </g>
   </g>
   <g id="matplotlib.axis_2">
    <g id="ytick_1">
     <g id="line2d_13">
      <path clip-path="url(#p110415be9c)" d="M 54 246.2529 
L 388.8 246.2529 
" style="fill:none;stroke:#ffffff;stroke-linecap:square;stroke-width:0.8;"/>
     </g>
     <g id="line2d_14">
      <defs>
       <path d="M 0 0 
L -3.5 0 
" id="m152029509f" style="stroke:#555555;stroke-width:0.8;"/>
      </defs>
      <g>
       <use style="fill:#555555;stroke:#555555;stroke-width:0.8;" x="54" xlink:href="#m152029509f" y="246.2529"/>
      </g>
     </g>
     <g id="text_8">
      <!-- 0 -->
      <g style="fill:#555555;" transform="translate(40.6375 250.052119)scale(0.1 -0.1)">
       <use xlink:href="#DejaVuSans-30"/>
      </g>
     </g>
    </g>
    <g id="ytick_2">
     <g id="line2d_15">
      <path clip-path="url(#p110415be9c)" d="M 54 209.831939 
L 388.8 209.831939 
" style="fill:none;stroke:#ffffff;stroke-linecap:square;stroke-width:0.8;"/>
     </g>
     <g id="line2d_16">
      <g>
       <use style="fill:#555555;stroke:#555555;stroke-width:0.8;" x="54" xlink:href="#m152029509f" y="209.831939"/>
      </g>
     </g>
     <g id="text_9">
      <!-- 100 -->
      <g style="fill:#555555;" transform="translate(27.9125 213.631158)scale(0.1 -0.1)">
       <use xlink:href="#DejaVuSans-31"/>
       <use x="63.623047" xlink:href="#DejaVuSans-30"/>
       <use x="127.246094" xlink:href="#DejaVuSans-30"/>
      </g>
     </g>
    </g>
    <g id="ytick_3">
     <g id="line2d_17">
      <path clip-path="url(#p110415be9c)" d="M 54 173.410978 
L 388.8 173.410978 
" style="fill:none;stroke:#ffffff;stroke-linecap:square;stroke-width:0.8;"/>
     </g>
     <g id="line2d_18">
      <g>
       <use style="fill:#555555;stroke:#555555;stroke-width:0.8;" x="54" xlink:href="#m152029509f" y="173.410978"/>
      </g>
     </g>
     <g id="text_10">
      <!-- 200 -->
      <g style="fill:#555555;" transform="translate(27.9125 177.210197)scale(0.1 -0.1)">
       <use xlink:href="#DejaVuSans-32"/>
       <use x="63.623047" xlink:href="#DejaVuSans-30"/>
       <use x="127.246094" xlink:href="#DejaVuSans-30"/>
      </g>
     </g>
    </g>
    <g id="ytick_4">
     <g id="line2d_19">
      <path clip-path="url(#p110415be9c)" d="M 54 136.990018 
L 388.8 136.990018 
" style="fill:none;stroke:#ffffff;stroke-linecap:square;stroke-width:0.8;"/>
     </g>
     <g id="line2d_20">
      <g>
       <use style="fill:#555555;stroke:#555555;stroke-width:0.8;" x="54" xlink:href="#m152029509f" y="136.990018"/>
      </g>
     </g>
     <g id="text_11">
      <!-- 300 -->
      <defs>
       <path d="M 40.578125 39.3125 
Q 47.65625 37.796875 51.625 33 
Q 55.609375 28.21875 55.609375 21.1875 
Q 55.609375 10.40625 48.1875 4.484375 
Q 40.765625 -1.421875 27.09375 -1.421875 
Q 22.515625 -1.421875 17.65625 -0.515625 
Q 12.796875 0.390625 7.625 2.203125 
L 7.625 11.71875 
Q 11.71875 9.328125 16.59375 8.109375 
Q 21.484375 6.890625 26.8125 6.890625 
Q 36.078125 6.890625 40.9375 10.546875 
Q 45.796875 14.203125 45.796875 21.1875 
Q 45.796875 27.640625 41.28125 31.265625 
Q 36.765625 34.90625 28.71875 34.90625 
L 20.21875 34.90625 
L 20.21875 43.015625 
L 29.109375 43.015625 
Q 36.375 43.015625 40.234375 45.921875 
Q 44.09375 48.828125 44.09375 54.296875 
Q 44.09375 59.90625 40.109375 62.90625 
Q 36.140625 65.921875 28.71875 65.921875 
Q 24.65625 65.921875 20.015625 65.03125 
Q 15.375 64.15625 9.8125 62.3125 
L 9.8125 71.09375 
Q 15.4375 72.65625 20.34375 73.4375 
Q 25.25 74.21875 29.59375 74.21875 
Q 40.828125 74.21875 47.359375 69.109375 
Q 53.90625 64.015625 53.90625 55.328125 
Q 53.90625 49.265625 50.4375 45.09375 
Q 46.96875 40.921875 40.578125 39.3125 
" id="DejaVuSans-33"/>
      </defs>
      <g style="fill:#555555;" transform="translate(27.9125 140.789236)scale(0.1 -0.1)">
       <use xlink:href="#DejaVuSans-33"/>
       <use x="63.623047" xlink:href="#DejaVuSans-30"/>
       <use x="127.246094" xlink:href="#DejaVuSans-30"/>
      </g>
     </g>
    </g>
    <g id="ytick_5">
     <g id="line2d_21">
      <path clip-path="url(#p110415be9c)" d="M 54 100.569057 
L 388.8 100.569057 
" style="fill:none;stroke:#ffffff;stroke-linecap:square;stroke-width:0.8;"/>
     </g>
     <g id="line2d_22">
      <g>
       <use style="fill:#555555;stroke:#555555;stroke-width:0.8;" x="54" xlink:href="#m152029509f" y="100.569057"/>
      </g>
     </g>
     <g id="text_12">
      <!-- 400 -->
      <g style="fill:#555555;" transform="translate(27.9125 104.368276)scale(0.1 -0.1)">
       <use xlink:href="#DejaVuSans-34"/>
       <use x="63.623047" xlink:href="#DejaVuSans-30"/>
       <use x="127.246094" xlink:href="#DejaVuSans-30"/>
      </g>
     </g>
    </g>
    <g id="ytick_6">
     <g id="line2d_23">
      <path clip-path="url(#p110415be9c)" d="M 54 64.148096 
L 388.8 64.148096 
" style="fill:none;stroke:#ffffff;stroke-linecap:square;stroke-width:0.8;"/>
     </g>
     <g id="line2d_24">
      <g>
       <use style="fill:#555555;stroke:#555555;stroke-width:0.8;" x="54" xlink:href="#m152029509f" y="64.148096"/>
      </g>
     </g>
     <g id="text_13">
      <!-- 500 -->
      <defs>
       <path d="M 10.796875 72.90625 
L 49.515625 72.90625 
L 49.515625 64.59375 
L 19.828125 64.59375 
L 19.828125 46.734375 
Q 21.96875 47.46875 24.109375 47.828125 
Q 26.265625 48.1875 28.421875 48.1875 
Q 40.625 48.1875 47.75 41.5 
Q 54.890625 34.8125 54.890625 23.390625 
Q 54.890625 11.625 47.5625 5.09375 
Q 40.234375 -1.421875 26.90625 -1.421875 
Q 22.3125 -1.421875 17.546875 -0.640625 
Q 12.796875 0.140625 7.71875 1.703125 
L 7.71875 11.625 
Q 12.109375 9.234375 16.796875 8.0625 
Q 21.484375 6.890625 26.703125 6.890625 
Q 35.15625 6.890625 40.078125 11.328125 
Q 45.015625 15.765625 45.015625 23.390625 
Q 45.015625 31 40.078125 35.4375 
Q 35.15625 39.890625 26.703125 39.890625 
Q 22.75 39.890625 18.8125 39.015625 
Q 14.890625 38.140625 10.796875 36.28125 
z
" id="DejaVuSans-35"/>
      </defs>
      <g style="fill:#555555;" transform="translate(27.9125 67.947315)scale(0.1 -0.1)">
       <use xlink:href="#DejaVuSans-35"/>
       <use x="63.623047" xlink:href="#DejaVuSans-30"/>
       <use x="127.246094" xlink:href="#DejaVuSans-30"/>
      </g>
     </g>
    </g>
    <g id="text_14">
     <!-- force [N] -->
     <defs>
      <path d="M 48.78125 52.59375 
L 48.78125 44.1875 
Q 44.96875 46.296875 41.140625 47.34375 
Q 37.3125 48.390625 33.40625 48.390625 
Q 24.65625 48.390625 19.8125 42.84375 
Q 14.984375 37.3125 14.984375 27.296875 
Q 14.984375 17.28125 19.8125 11.734375 
Q 24.65625 6.203125 33.40625 6.203125 
Q 37.3125 6.203125 41.140625 7.25 
Q 44.96875 8.296875 48.78125 10.40625 
L 48.78125 2.09375 
Q 45.015625 0.34375 40.984375 -0.53125 
Q 36.96875 -1.421875 32.421875 -1.421875 
Q 20.0625 -1.421875 12.78125 6.34375 
Q 5.515625 14.109375 5.515625 27.296875 
Q 5.515625 40.671875 12.859375 48.328125 
Q 20.21875 56 33.015625 56 
Q 37.15625 56 41.109375 55.140625 
Q 45.0625 54.296875 48.78125 52.59375 
" id="DejaVuSans-63"/>
      <path d="M 9.8125 72.90625 
L 23.09375 72.90625 
L 55.421875 11.921875 
L 55.421875 72.90625 
L 64.984375 72.90625 
L 64.984375 0 
L 51.703125 0 
L 19.390625 60.984375 
L 19.390625 0 
L 9.8125 0 
z
" id="DejaVuSans-4e"/>
     </defs>
     <g style="fill:#555555;" transform="translate(21.416875 169.596563)rotate(-90)scale(0.12 -0.12)">
      <use xlink:href="#DejaVuSans-66"/>
      <use x="35.205078" xlink:href="#DejaVuSans-6f"/>
      <use x="96.386719" xlink:href="#DejaVuSans-72"/>
      <use x="137.46875" xlink:href="#DejaVuSans-63"/>
      <use x="192.449219" xlink:href="#DejaVuSans-65"/>
      <use x="253.972656" xlink:href="#DejaVuSans-20"/>
      <use x="285.759766" xlink:href="#DejaVuSans-5b"/>
      <use x="324.773438" xlink:href="#DejaVuSans-4e"/>
      <use x="399.578125" xlink:href="#DejaVuSans-5d"/>
     </g>
    </g>
   </g>
   <g id="PolyCollection_1">
    <defs>
     <path d="M 69.218182 -46.386135 
L 69.218182 -45.883636 
L 69.498443 -46.045168 
L 69.778704 -46.154024 
L 70.058965 -46.248707 
L 70.339227 -46.32877 
L 70.619488 -46.421768 
L 70.899749 -46.499962 
L 71.18001 -46.595776 
L 71.460271 -46.683864 
L 71.740532 -46.781134 
L 72.020794 -46.876736 
L 72.301055 -46.966585 
L 72.581316 -47.051491 
L 72.861577 -47.13565 
L 73.141838 -47.217391 
L 73.422099 -47.316002 
L 73.702361 -47.410902 
L 73.982622 -47.513138 
L 74.262883 -47.60589 
L 74.543144 -47.699094 
L 74.823405 -47.79173 
L 75.103666 -47.873484 
L 75.383928 -47.962405 
L 75.664189 -48.045807 
L 75.94445 -48.134144 
L 76.224711 -48.230365 
L 76.504972 -48.321843 
L 76.785234 -48.421049 
L 77.065495 -48.523949 
L 77.345756 -48.618682 
L 77.626017 -48.720168 
L 77.906278 -48.819301 
L 78.186539 -48.910218 
L 78.466801 -49.005814 
L 78.747062 -49.105654 
L 79.027323 -49.210154 
L 79.307584 -49.310548 
L 79.587845 -49.410552 
L 79.868106 -49.518531 
L 80.148368 -49.62631 
L 80.428629 -49.731893 
L 80.70889 -49.827959 
L 80.989151 -49.925563 
L 81.269412 -50.029755 
L 81.549674 -50.128834 
L 81.829935 -50.217121 
L 82.110196 -50.314224 
L 82.390457 -50.401677 
L 82.670718 -50.481346 
L 82.950979 -50.53787 
L 83.231241 -50.59097 
L 83.511502 -50.650477 
L 83.791763 -50.711901 
L 84.072024 -50.77714 
L 84.352285 -50.863429 
L 84.632546 -50.968866 
L 84.912808 -51.099977 
L 85.193069 -51.223666 
L 85.47333 -51.341566 
L 85.753591 -51.454704 
L 86.033852 -51.554005 
L 86.314114 -51.650005 
L 86.594375 -51.738418 
L 86.874636 -51.820494 
L 87.154897 -51.907683 
L 87.435158 -51.983107 
L 87.715419 -52.045506 
L 87.995681 -52.106554 
L 88.275942 -52.157974 
L 88.556203 -52.207059 
L 88.836464 -52.244823 
L 89.116725 -52.269895 
L 89.396986 -52.296683 
L 89.677248 -52.322374 
L 89.957509 -52.340115 
L 90.23777 -52.358204 
L 90.518031 -52.369305 
L 90.798292 -52.393215 
L 91.078553 -52.429482 
L 91.358815 -52.475076 
L 91.639076 -52.533422 
L 91.919337 -52.614969 
L 92.199598 -52.711311 
L 92.479859 -52.834349 
L 92.760121 -52.962003 
L 93.040382 -53.08678 
L 93.320643 -53.224176 
L 93.600904 -53.358474 
L 93.881165 -53.489557 
L 94.161426 -53.607124 
L 94.441688 -53.720518 
L 94.721949 -53.83954 
L 95.00221 -53.95672 
L 95.282471 -54.071218 
L 95.562732 -54.186337 
L 95.842993 -54.302562 
L 96.123255 -54.428617 
L 96.403516 -54.547196 
L 96.683777 -54.665743 
L 96.964038 -54.779922 
L 97.244299 -54.904628 
L 97.524561 -55.028992 
L 97.804822 -55.141289 
L 98.085083 -55.259193 
L 98.365344 -55.381772 
L 98.645605 -55.514676 
L 98.925866 -55.644699 
L 99.206128 -55.76965 
L 99.486389 -55.899949 
L 99.76665 -56.033035 
L 100.046911 -56.164759 
L 100.327172 -56.299742 
L 100.607433 -56.4245 
L 100.887695 -56.560665 
L 101.167956 -56.700993 
L 101.448217 -56.847214 
L 101.728478 -56.989463 
L 102.008739 -57.133229 
L 102.289001 -57.28219 
L 102.569262 -57.425601 
L 102.849523 -57.560577 
L 103.129784 -57.696331 
L 103.410045 -57.840723 
L 103.690306 -57.961697 
L 103.970568 -58.060138 
L 104.250829 -58.169881 
L 104.53109 -58.287139 
L 104.811351 -58.41243 
L 105.091612 -58.537922 
L 105.371873 -58.662259 
L 105.652135 -58.8282 
L 105.932396 -58.987846 
L 106.212657 -59.150371 
L 106.492918 -59.304996 
L 106.773179 -59.466905 
L 107.05344 -59.630211 
L 107.333702 -59.791053 
L 107.613963 -59.953642 
L 107.894224 -60.120193 
L 108.174485 -60.282514 
L 108.454746 -60.442144 
L 108.735008 -60.590764 
L 109.015269 -60.745491 
L 109.29553 -60.899794 
L 109.575791 -61.047096 
L 109.856052 -61.196583 
L 110.136313 -61.35288 
L 110.416575 -61.515709 
L 110.696836 -61.673644 
L 110.977097 -61.829545 
L 111.257358 -61.997088 
L 111.537619 -62.164357 
L 111.81788 -62.331314 
L 112.098142 -62.488489 
L 112.378403 -62.651635 
L 112.658664 -62.822513 
L 112.938925 -62.988766 
L 113.219186 -63.153527 
L 113.499448 -63.314744 
L 113.779709 -63.472302 
L 114.05997 -63.631493 
L 114.340231 -63.785425 
L 114.620492 -63.938736 
L 114.900753 -64.084247 
L 115.181015 -64.235097 
L 115.461276 -64.391952 
L 115.741537 -64.54722 
L 116.021798 -64.698523 
L 116.302059 -64.851744 
L 116.58232 -65.009322 
L 116.862582 -65.164171 
L 117.142843 -65.331695 
L 117.423104 -65.502948 
L 117.703365 -65.681584 
L 117.983626 -65.866548 
L 118.263887 -66.054697 
L 118.544149 -66.242038 
L 118.82441 -66.428491 
L 119.104671 -66.614974 
L 119.384932 -66.79856 
L 119.665193 -66.986213 
L 119.945455 -67.170361 
L 120.225716 -67.353298 
L 120.505977 -67.537589 
L 120.786238 -67.716594 
L 121.066499 -67.903467 
L 121.34676 -68.091202 
L 121.627022 -68.273627 
L 121.907283 -68.459885 
L 122.187544 -68.654712 
L 122.467805 -68.858033 
L 122.748066 -69.059975 
L 123.028327 -69.249983 
L 123.308589 -69.43985 
L 123.58885 -69.635379 
L 123.869111 -69.832388 
L 124.149372 -70.028641 
L 124.429633 -70.214417 
L 124.709895 -70.409871 
L 124.990156 -70.607688 
L 125.270417 -70.801316 
L 125.550678 -70.995102 
L 125.830939 -71.190037 
L 126.1112 -71.387825 
L 126.391462 -71.583003 
L 126.671723 -71.776383 
L 126.951984 -71.971969 
L 127.232245 -72.169532 
L 127.512506 -72.363244 
L 127.792767 -72.557754 
L 128.073029 -72.754936 
L 128.35329 -72.954876 
L 128.633551 -73.160433 
L 128.913812 -73.361382 
L 129.194073 -73.565317 
L 129.474335 -73.765447 
L 129.754596 -73.966609 
L 130.034857 -74.162265 
L 130.315118 -74.355052 
L 130.595379 -74.547761 
L 130.87564 -74.754688 
L 131.155902 -74.960767 
L 131.436163 -75.17621 
L 131.716424 -75.384581 
L 131.996685 -75.5935 
L 132.276946 -75.812212 
L 132.557207 -76.024681 
L 132.837469 -76.231135 
L 133.11773 -76.440043 
L 133.397991 -76.647963 
L 133.678252 -76.85562 
L 133.958513 -77.054749 
L 134.238774 -77.25973 
L 134.519036 -77.466394 
L 134.799297 -77.67779 
L 135.079558 -77.884639 
L 135.359819 -78.092501 
L 135.64008 -78.305713 
L 135.920342 -78.520691 
L 136.200603 -78.738761 
L 136.480864 -78.950525 
L 136.761125 -79.160599 
L 137.041386 -79.372079 
L 137.321647 -79.587861 
L 137.601909 -79.79364 
L 137.88217 -80.002727 
L 138.162431 -80.214887 
L 138.442692 -80.418602 
L 138.722953 -80.624295 
L 139.003214 -80.830912 
L 139.283476 -81.045517 
L 139.563737 -81.255559 
L 139.843998 -81.462195 
L 140.124259 -81.671834 
L 140.40452 -81.883535 
L 140.684782 -82.095104 
L 140.965043 -82.30038 
L 141.245304 -82.507175 
L 141.525565 -82.720087 
L 141.805826 -82.934356 
L 142.086087 -83.156292 
L 142.366349 -83.374997 
L 142.64661 -83.590703 
L 142.926871 -83.809591 
L 143.207132 -84.023494 
L 143.487393 -84.241313 
L 143.767654 -84.446032 
L 144.047916 -84.647775 
L 144.328177 -84.854749 
L 144.608438 -85.0598 
L 144.888699 -85.265575 
L 145.16896 -85.469213 
L 145.449221 -85.668985 
L 145.729483 -85.871574 
L 146.009744 -86.074767 
L 146.290005 -86.284225 
L 146.570266 -86.501067 
L 146.850527 -86.71686 
L 147.130789 -86.935345 
L 147.41105 -87.161504 
L 147.691311 -87.387674 
L 147.971572 -87.605711 
L 148.251833 -87.822759 
L 148.532094 -88.040611 
L 148.812356 -88.263314 
L 149.092617 -88.48154 
L 149.372878 -88.705184 
L 149.653139 -88.928854 
L 149.9334 -89.149367 
L 150.213661 -89.372132 
L 150.493923 -89.592027 
L 150.774184 -89.819953 
L 151.054445 -90.044371 
L 151.334706 -90.264419 
L 151.614967 -90.493046 
L 151.895229 -90.729535 
L 152.17549 -90.967293 
L 152.455751 -91.20135 
L 152.736012 -91.435525 
L 153.016273 -91.659394 
L 153.296534 -91.885803 
L 153.576796 -92.107751 
L 153.857057 -92.324433 
L 154.137318 -92.54178 
L 154.417579 -92.762463 
L 154.69784 -92.983674 
L 154.978101 -93.210941 
L 155.258363 -93.440982 
L 155.538624 -93.669603 
L 155.818885 -93.900043 
L 156.099146 -94.125408 
L 156.379407 -94.356826 
L 156.659669 -94.594354 
L 156.93993 -94.829026 
L 157.220191 -95.067679 
L 157.500452 -95.305178 
L 157.780713 -95.542093 
L 158.060974 -95.774983 
L 158.341236 -95.999263 
L 158.621497 -96.219534 
L 158.901758 -96.444561 
L 159.182019 -96.667082 
L 159.46228 -96.893351 
L 159.742541 -97.112964 
L 160.022803 -97.34156 
L 160.303064 -97.565898 
L 160.583325 -97.797549 
L 160.863586 -98.014727 
L 161.143847 -98.239597 
L 161.424108 -98.469993 
L 161.70437 -98.702561 
L 161.984631 -98.9272 
L 162.264892 -99.161012 
L 162.545153 -99.38647 
L 162.825414 -99.615848 
L 163.105676 -99.833662 
L 163.385937 -100.051882 
L 163.666198 -100.278605 
L 163.946459 -100.498464 
L 164.22672 -100.717071 
L 164.506981 -100.937875 
L 164.787243 -101.161653 
L 165.067504 -101.388891 
L 165.347765 -101.609926 
L 165.628026 -101.830149 
L 165.908287 -102.056014 
L 166.188548 -102.270873 
L 166.46881 -102.490751 
L 166.749071 -102.705263 
L 167.029332 -102.918532 
L 167.309593 -103.139825 
L 167.589854 -103.354538 
L 167.870116 -103.571032 
L 168.150377 -103.790423 
L 168.430638 -104.005149 
L 168.710899 -104.222379 
L 168.99116 -104.436679 
L 169.271421 -104.659138 
L 169.551683 -104.882599 
L 169.831944 -105.111667 
L 170.112205 -105.343551 
L 170.392466 -105.578637 
L 170.672727 -105.811297 
L 170.952988 -106.040096 
L 171.23325 -106.272212 
L 171.513511 -106.500968 
L 171.793772 -106.725307 
L 172.074033 -106.95171 
L 172.354294 -107.173154 
L 172.634555 -107.395902 
L 172.914817 -107.622088 
L 173.195078 -107.848298 
L 173.475339 -108.086009 
L 173.7556 -108.322644 
L 174.035861 -108.56207 
L 174.316123 -108.804294 
L 174.596384 -109.042005 
L 174.876645 -109.283079 
L 175.156906 -109.517832 
L 175.437167 -109.756393 
L 175.717428 -109.995943 
L 175.99769 -110.236552 
L 176.277951 -110.478333 
L 176.558212 -110.716187 
L 176.838473 -110.95498 
L 177.118734 -111.193518 
L 177.398995 -111.424523 
L 177.679257 -111.654794 
L 177.959518 -111.879746 
L 178.239779 -112.106863 
L 178.52004 -112.339051 
L 178.800301 -112.564612 
L 179.080563 -112.796631 
L 179.360824 -113.035887 
L 179.641085 -113.2765 
L 179.921346 -113.515454 
L 180.201607 -113.753994 
L 180.481868 -113.986155 
L 180.76213 -114.223323 
L 181.042391 -114.455713 
L 181.322652 -114.686989 
L 181.602913 -114.914276 
L 181.883174 -115.142642 
L 182.163435 -115.371201 
L 182.443697 -115.606075 
L 182.723958 -115.838177 
L 183.004219 -116.06941 
L 183.28448 -116.299447 
L 183.564741 -116.527802 
L 183.845003 -116.758661 
L 184.125264 -116.993973 
L 184.405525 -117.224406 
L 184.685786 -117.457248 
L 184.966047 -117.698252 
L 185.246308 -117.936515 
L 185.52657 -118.175467 
L 185.806831 -118.411406 
L 186.087092 -118.642219 
L 186.367353 -118.876066 
L 186.647614 -119.108734 
L 186.927875 -119.336713 
L 187.208137 -119.565802 
L 187.488398 -119.794367 
L 187.768659 -120.014914 
L 188.04892 -120.243367 
L 188.329181 -120.470411 
L 188.609442 -120.697564 
L 188.889704 -120.931872 
L 189.169965 -121.164868 
L 189.450226 -121.397138 
L 189.730487 -121.63036 
L 190.010748 -121.857864 
L 190.29101 -122.088306 
L 190.571271 -122.321029 
L 190.851532 -122.547333 
L 191.131793 -122.771329 
L 191.412054 -122.996048 
L 191.692315 -123.22052 
L 191.972577 -123.44372 
L 192.252838 -123.668102 
L 192.533099 -123.883212 
L 192.81336 -124.099184 
L 193.093621 -124.312505 
L 193.373882 -124.522976 
L 193.654144 -124.739109 
L 193.934405 -124.954239 
L 194.214666 -125.164276 
L 194.494927 -125.38031 
L 194.775188 -125.592518 
L 195.05545 -125.804345 
L 195.335711 -126.017668 
L 195.615972 -126.230463 
L 195.896233 -126.448485 
L 196.176494 -126.667353 
L 196.456755 -126.888971 
L 196.737017 -127.113905 
L 197.017278 -127.334554 
L 197.297539 -127.551145 
L 197.5778 -127.769165 
L 197.858061 -127.983947 
L 198.138322 -128.193793 
L 198.418584 -128.399067 
L 198.698845 -128.605002 
L 198.979106 -128.815342 
L 199.259367 -129.024078 
L 199.539628 -129.232109 
L 199.81989 -129.442524 
L 200.100151 -129.656376 
L 200.380412 -129.876543 
L 200.660673 -130.093924 
L 200.940934 -130.312856 
L 201.221195 -130.538022 
L 201.501457 -130.760292 
L 201.781718 -130.993523 
L 202.061979 -131.224632 
L 202.34224 -131.450502 
L 202.622501 -131.673272 
L 202.902762 -131.893037 
L 203.183024 -132.119724 
L 203.463285 -132.339675 
L 203.743546 -132.561426 
L 204.023807 -132.787756 
L 204.304068 -133.016407 
L 204.584329 -133.241684 
L 204.864591 -133.466034 
L 205.144852 -133.690912 
L 205.425113 -133.913248 
L 205.705374 -134.138216 
L 205.985635 -134.359418 
L 206.265897 -134.582441 
L 206.546158 -134.806402 
L 206.826419 -135.027972 
L 207.10668 -135.252708 
L 207.386941 -135.472404 
L 207.667202 -135.69024 
L 207.947464 -135.910578 
L 208.227725 -136.13032 
L 208.507986 -136.355522 
L 208.788247 -136.57691 
L 209.068508 -136.799708 
L 209.348769 -137.023839 
L 209.629031 -137.25245 
L 209.909292 -137.482807 
L 210.189553 -137.715913 
L 210.469814 -137.944731 
L 210.750075 -138.177944 
L 211.030337 -138.40876 
L 211.310598 -138.640549 
L 211.590859 -138.870917 
L 211.87112 -139.101912 
L 212.151381 -139.336058 
L 212.431642 -139.567711 
L 212.711904 -139.803893 
L 212.992165 -140.038883 
L 213.272426 -140.272938 
L 213.552687 -140.509428 
L 213.832948 -140.745296 
L 214.113209 -140.97562 
L 214.393471 -141.210621 
L 214.673732 -141.444878 
L 214.953993 -141.680295 
L 215.234254 -141.915688 
L 215.514515 -142.153711 
L 215.794776 -142.392286 
L 216.075038 -142.633348 
L 216.355299 -142.869963 
L 216.63556 -143.105842 
L 216.915821 -143.343784 
L 217.196082 -143.579799 
L 217.476344 -143.818201 
L 217.756605 -144.057386 
L 218.036866 -144.296043 
L 218.317127 -144.540521 
L 218.597388 -144.787274 
L 218.877649 -145.03288 
L 219.157911 -145.280353 
L 219.438172 -145.520472 
L 219.718433 -145.758863 
L 219.998694 -145.994782 
L 220.278955 -146.23004 
L 220.559216 -146.463224 
L 220.839478 -146.694887 
L 221.119739 -146.92616 
L 221.4 -147.158583 
L 221.680261 -147.398346 
L 221.960522 -147.636354 
L 222.240784 -147.86884 
L 222.521045 -148.106409 
L 222.801306 -148.342894 
L 223.081567 -148.584127 
L 223.361828 -148.826539 
L 223.642089 -149.065929 
L 223.922351 -149.305578 
L 224.202612 -149.546973 
L 224.482873 -149.779475 
L 224.763134 -150.014705 
L 225.043395 -150.251204 
L 225.323656 -150.488344 
L 225.603918 -150.723828 
L 225.884179 -150.966306 
L 226.16444 -151.204357 
L 226.444701 -151.450381 
L 226.724962 -151.691172 
L 227.005224 -151.932113 
L 227.285485 -152.174375 
L 227.565746 -152.417055 
L 227.846007 -152.659518 
L 228.126268 -152.898891 
L 228.406529 -153.138402 
L 228.686791 -153.377801 
L 228.967052 -153.608606 
L 229.247313 -153.841148 
L 229.527574 -154.074989 
L 229.807835 -154.311947 
L 230.088096 -154.550246 
L 230.368358 -154.784426 
L 230.648619 -155.024946 
L 230.92888 -155.275746 
L 231.209141 -155.517549 
L 231.489402 -155.762012 
L 231.769663 -156.002165 
L 232.049925 -156.241605 
L 232.330186 -156.478265 
L 232.610447 -156.716043 
L 232.890708 -156.951624 
L 233.170969 -157.193752 
L 233.451231 -157.431151 
L 233.731492 -157.669682 
L 234.011753 -157.905046 
L 234.292014 -158.142499 
L 234.572275 -158.378658 
L 234.852536 -158.612154 
L 235.132798 -158.851411 
L 235.413059 -159.095883 
L 235.69332 -159.339795 
L 235.973581 -159.588959 
L 236.253842 -159.835709 
L 236.534103 -160.079538 
L 236.814365 -160.314477 
L 237.094626 -160.546764 
L 237.374887 -160.779537 
L 237.655148 -161.016326 
L 237.935409 -161.248276 
L 238.215671 -161.483876 
L 238.495932 -161.728816 
L 238.776193 -161.976886 
L 239.056454 -162.221704 
L 239.336715 -162.465614 
L 239.616976 -162.702584 
L 239.897238 -162.944955 
L 240.177499 -163.18534 
L 240.45776 -163.422344 
L 240.738021 -163.660444 
L 241.018282 -163.901206 
L 241.298543 -164.140413 
L 241.578805 -164.382165 
L 241.859066 -164.615718 
L 242.139327 -164.85174 
L 242.419588 -165.087687 
L 242.699849 -165.323838 
L 242.98011 -165.557805 
L 243.260372 -165.796983 
L 243.540633 -166.037221 
L 243.820894 -166.277812 
L 244.101155 -166.516157 
L 244.381416 -166.755944 
L 244.661678 -166.993611 
L 244.941939 -167.231827 
L 245.2222 -167.469631 
L 245.502461 -167.706215 
L 245.782722 -167.942077 
L 246.062983 -168.178548 
L 246.343245 -168.417735 
L 246.623506 -168.655083 
L 246.903767 -168.895224 
L 247.184028 -169.135665 
L 247.464289 -169.3749 
L 247.74455 -169.611678 
L 248.024812 -169.854094 
L 248.305073 -170.09079 
L 248.585334 -170.33371 
L 248.865595 -170.578344 
L 249.145856 -170.81598 
L 249.426118 -171.059621 
L 249.706379 -171.304242 
L 249.98664 -171.544049 
L 250.266901 -171.78866 
L 250.547162 -172.02846 
L 250.827423 -172.267041 
L 251.107685 -172.50828 
L 251.387946 -172.751733 
L 251.668207 -172.992237 
L 251.948468 -173.235796 
L 252.228729 -173.472984 
L 252.50899 -173.714159 
L 252.789252 -173.95602 
L 253.069513 -174.20043 
L 253.349774 -174.442152 
L 253.630035 -174.683698 
L 253.910296 -174.920765 
L 254.190558 -175.163008 
L 254.470819 -175.402361 
L 254.75108 -175.642634 
L 255.031341 -175.880734 
L 255.311602 -176.120375 
L 255.591863 -176.360613 
L 255.872125 -176.605196 
L 256.152386 -176.848634 
L 256.432647 -177.091217 
L 256.712908 -177.335819 
L 256.993169 -177.579206 
L 257.27343 -177.826921 
L 257.553692 -178.074044 
L 257.833953 -178.315863 
L 258.114214 -178.558105 
L 258.394475 -178.798577 
L 258.674736 -179.038589 
L 258.954997 -179.276691 
L 259.235259 -179.512446 
L 259.51552 -179.748872 
L 259.795781 -179.988896 
L 260.076042 -180.228027 
L 260.356303 -180.465951 
L 260.636565 -180.710905 
L 260.916826 -180.951982 
L 261.197087 -181.196038 
L 261.477348 -181.439235 
L 261.757609 -181.680393 
L 262.03787 -181.920961 
L 262.318132 -182.161393 
L 262.598393 -182.39458 
L 262.878654 -182.628495 
L 263.158915 -182.858142 
L 263.439176 -183.090521 
L 263.719437 -183.32455 
L 263.999699 -183.56016 
L 264.27996 -183.79618 
L 264.560221 -184.037982 
L 264.840482 -184.280423 
L 265.120743 -184.519994 
L 265.401005 -184.761919 
L 265.681266 -185.00355 
L 265.961527 -185.243702 
L 266.241788 -185.48509 
L 266.522049 -185.72228 
L 266.80231 -185.96245 
L 267.082572 -186.201287 
L 267.362833 -186.434702 
L 267.643094 -186.67019 
L 267.923355 -186.903178 
L 268.203616 -187.14458 
L 268.483877 -187.383816 
L 268.764139 -187.623155 
L 269.0444 -187.868762 
L 269.324661 -188.114387 
L 269.604922 -188.357716 
L 269.885183 -188.594241 
L 270.165445 -188.82967 
L 270.445706 -189.064295 
L 270.725967 -189.300007 
L 271.006228 -189.530662 
L 271.286489 -189.762769 
L 271.56675 -189.993382 
L 271.847012 -190.221378 
L 272.127273 -190.447419 
L 272.407534 -190.675562 
L 272.687795 -190.907472 
L 272.968056 -191.137577 
L 273.248317 -191.370791 
L 273.528579 -191.604622 
L 273.80884 -191.838499 
L 274.089101 -192.075204 
L 274.369362 -192.308261 
L 274.649623 -192.543032 
L 274.929884 -192.780188 
L 275.210146 -193.016022 
L 275.490407 -193.253275 
L 275.770668 -193.487 
L 276.050929 -193.714976 
L 276.33119 -193.945008 
L 276.611452 -194.176705 
L 276.891713 -194.410185 
L 277.171974 -194.64024 
L 277.452235 -194.871455 
L 277.732496 -195.109009 
L 278.012757 -195.347317 
L 278.293019 -195.582628 
L 278.57328 -195.816112 
L 278.853541 -196.044678 
L 279.133802 -196.274588 
L 279.414063 -196.497629 
L 279.694324 -196.718452 
L 279.974586 -196.939981 
L 280.254847 -197.160442 
L 280.535108 -197.37542 
L 280.815369 -197.592189 
L 281.09563 -197.811454 
L 281.375892 -198.037959 
L 281.656153 -198.263729 
L 281.936414 -198.48559 
L 282.216675 -198.71109 
L 282.496936 -198.936408 
L 282.777197 -199.162712 
L 283.057459 -199.386514 
L 283.33772 -199.603333 
L 283.617981 -199.823584 
L 283.898242 -200.041668 
L 284.178503 -200.26051 
L 284.458764 -200.484584 
L 284.739026 -200.705252 
L 285.019287 -200.927809 
L 285.299548 -201.14762 
L 285.579809 -201.365057 
L 285.86007 -201.589551 
L 286.140331 -201.820556 
L 286.420593 -202.051179 
L 286.700854 -202.276554 
L 286.981115 -202.507597 
L 287.261376 -202.737163 
L 287.541637 -202.9636 
L 287.821899 -203.18529 
L 288.10216 -203.406621 
L 288.382421 -203.630889 
L 288.662682 -203.85185 
L 288.942943 -204.066744 
L 289.223204 -204.276955 
L 289.503466 -204.487939 
L 289.783727 -204.698346 
L 290.063988 -204.902641 
L 290.344249 -205.113077 
L 290.62451 -205.320727 
L 290.904771 -205.533554 
L 291.185033 -205.748245 
L 291.465294 -205.961543 
L 291.745555 -206.172281 
L 292.025816 -206.384685 
L 292.306077 -206.592238 
L 292.586339 -206.80689 
L 292.8666 -207.024461 
L 293.146861 -207.236648 
L 293.427122 -207.445397 
L 293.707383 -207.656154 
L 293.987644 -207.864393 
L 294.267906 -208.073288 
L 294.548167 -208.285952 
L 294.828428 -208.490364 
L 295.108689 -208.698404 
L 295.38895 -208.908556 
L 295.669211 -209.11677 
L 295.949473 -209.329027 
L 296.229734 -209.537504 
L 296.509995 -209.746823 
L 296.790256 -209.956906 
L 297.070517 -210.167577 
L 297.350779 -210.376994 
L 297.63104 -210.590682 
L 297.911301 -210.801729 
L 298.191562 -211.00699 
L 298.471823 -211.209645 
L 298.752084 -211.409517 
L 299.032346 -211.605277 
L 299.312607 -211.800977 
L 299.592868 -211.994409 
L 299.873129 -212.188451 
L 300.15339 -212.389558 
L 300.433651 -212.58481 
L 300.713913 -212.781874 
L 300.994174 -212.98168 
L 301.274435 -213.179682 
L 301.554696 -213.380572 
L 301.834957 -213.57579 
L 302.115218 -213.772206 
L 302.39548 -213.974154 
L 302.675741 -214.176162 
L 302.956002 -214.374569 
L 303.236263 -214.566802 
L 303.516524 -214.760786 
L 303.796786 -214.955746 
L 304.077047 -215.151321 
L 304.357308 -215.346731 
L 304.637569 -215.542438 
L 304.91783 -215.732298 
L 305.198091 -215.92109 
L 305.478353 -216.112345 
L 305.758614 -216.302481 
L 306.038875 -216.492027 
L 306.319136 -216.681263 
L 306.599397 -216.875721 
L 306.879658 -217.075536 
L 307.15992 -217.269884 
L 307.440181 -217.464043 
L 307.720442 -217.656776 
L 308.000703 -217.853289 
L 308.280964 -218.04649 
L 308.561226 -218.236569 
L 308.841487 -218.424125 
L 309.121748 -218.610754 
L 309.402009 -218.795364 
L 309.68227 -218.980308 
L 309.962531 -219.16392 
L 310.242793 -219.346383 
L 310.523054 -219.529046 
L 310.803315 -219.712626 
L 311.083576 -219.894607 
L 311.363837 -220.075031 
L 311.644098 -220.25962 
L 311.92436 -220.440532 
L 312.204621 -220.622413 
L 312.484882 -220.80563 
L 312.765143 -220.984959 
L 313.045404 -221.163948 
L 313.325665 -221.3401 
L 313.605927 -221.512951 
L 313.886188 -221.693139 
L 314.166449 -221.8711 
L 314.44671 -222.051417 
L 314.726971 -222.234894 
L 315.007233 -222.414974 
L 315.287494 -222.596557 
L 315.567755 -222.770008 
L 315.848016 -222.946487 
L 316.128277 -223.125271 
L 316.408538 -223.301442 
L 316.6888 -223.475444 
L 316.969061 -223.64805 
L 317.249322 -223.821192 
L 317.529583 -223.99511 
L 317.809844 -224.168187 
L 318.090105 -224.345744 
L 318.370367 -224.52071 
L 318.650628 -224.69261 
L 318.930889 -224.867073 
L 319.21115 -225.035878 
L 319.491411 -225.20592 
L 319.771673 -225.370033 
L 320.051934 -225.532154 
L 320.332195 -225.692083 
L 320.612456 -225.858702 
L 320.892717 -226.018627 
L 321.172978 -226.179155 
L 321.45324 -226.338086 
L 321.733501 -226.48859 
L 322.013762 -226.666797 
L 322.294023 -226.818418 
L 322.574284 -226.920337 
L 322.574284 -238.962989 
L 322.574284 -238.962989 
L 322.294023 -239.334452 
L 322.013762 -239.751978 
L 321.733501 -240.094402 
L 321.45324 -239.987794 
L 321.172978 -239.875815 
L 320.892717 -239.764089 
L 320.612456 -239.657195 
L 320.332195 -239.552342 
L 320.051934 -239.438716 
L 319.771673 -239.319909 
L 319.491411 -239.20285 
L 319.21115 -239.093664 
L 318.930889 -238.982563 
L 318.650628 -238.871816 
L 318.370367 -238.760971 
L 318.090105 -238.638806 
L 317.809844 -238.515806 
L 317.529583 -238.393127 
L 317.249322 -238.27192 
L 316.969061 -238.142871 
L 316.6888 -238.012836 
L 316.408538 -237.881965 
L 316.128277 -237.7497 
L 315.848016 -237.614118 
L 315.567755 -237.482358 
L 315.287494 -237.352715 
L 315.007233 -237.219371 
L 314.726971 -237.087057 
L 314.44671 -236.953951 
L 314.166449 -236.820973 
L 313.886188 -236.68845 
L 313.605927 -236.555481 
L 313.325665 -236.422356 
L 313.045404 -236.284902 
L 312.765143 -236.1453 
L 312.484882 -236.001057 
L 312.204621 -235.851252 
L 311.92436 -235.701958 
L 311.644098 -235.551416 
L 311.363837 -235.394119 
L 311.083576 -235.237017 
L 310.803315 -235.080822 
L 310.523054 -234.92436 
L 310.242793 -234.767838 
L 309.962531 -234.609644 
L 309.68227 -234.450239 
L 309.402009 -234.298718 
L 309.121748 -234.147075 
L 308.841487 -233.992382 
L 308.561226 -233.839336 
L 308.280964 -233.688754 
L 308.000703 -233.537127 
L 307.720442 -233.392092 
L 307.440181 -233.242542 
L 307.15992 -233.089202 
L 306.879658 -232.937931 
L 306.599397 -232.78453 
L 306.319136 -232.626658 
L 306.038875 -232.469689 
L 305.758614 -232.30577 
L 305.478353 -232.147568 
L 305.198091 -231.992332 
L 304.91783 -231.832545 
L 304.637569 -231.670382 
L 304.357308 -231.511173 
L 304.077047 -231.35095 
L 303.796786 -231.196181 
L 303.516524 -231.034575 
L 303.236263 -230.870257 
L 302.956002 -230.714391 
L 302.675741 -230.556336 
L 302.39548 -230.393038 
L 302.115218 -230.236775 
L 301.834957 -230.078365 
L 301.554696 -229.922739 
L 301.274435 -229.766294 
L 300.994174 -229.607099 
L 300.713913 -229.449371 
L 300.433651 -229.293914 
L 300.15339 -229.131813 
L 299.873129 -228.963748 
L 299.592868 -228.795816 
L 299.312607 -228.627215 
L 299.032346 -228.457094 
L 298.752084 -228.283038 
L 298.471823 -228.109652 
L 298.191562 -227.929376 
L 297.911301 -227.7469 
L 297.63104 -227.563263 
L 297.350779 -227.378167 
L 297.070517 -227.195147 
L 296.790256 -227.013181 
L 296.509995 -226.829661 
L 296.229734 -226.645532 
L 295.949473 -226.468978 
L 295.669211 -226.295034 
L 295.38895 -226.11585 
L 295.108689 -225.941003 
L 294.828428 -225.764925 
L 294.548167 -225.588969 
L 294.267906 -225.409365 
L 293.987644 -225.22773 
L 293.707383 -225.047549 
L 293.427122 -224.863862 
L 293.146861 -224.682186 
L 292.8666 -224.507676 
L 292.586339 -224.339331 
L 292.306077 -224.165211 
L 292.025816 -223.986464 
L 291.745555 -223.809583 
L 291.465294 -223.622627 
L 291.185033 -223.429418 
L 290.904771 -223.228011 
L 290.62451 -223.033852 
L 290.344249 -222.829092 
L 290.063988 -222.627355 
L 289.783727 -222.428365 
L 289.503466 -222.233 
L 289.223204 -222.039095 
L 288.942943 -221.850569 
L 288.662682 -221.660151 
L 288.382421 -221.474607 
L 288.10216 -221.287368 
L 287.821899 -221.102747 
L 287.541637 -220.921994 
L 287.261376 -220.728551 
L 286.981115 -220.531634 
L 286.700854 -220.33605 
L 286.420593 -220.144134 
L 286.140331 -219.943306 
L 285.86007 -219.734264 
L 285.579809 -219.52584 
L 285.299548 -219.32042 
L 285.019287 -219.1151 
L 284.739026 -218.90809 
L 284.458764 -218.698764 
L 284.178503 -218.489249 
L 283.898242 -218.286901 
L 283.617981 -218.081041 
L 283.33772 -217.875435 
L 283.057459 -217.670275 
L 282.777197 -217.474366 
L 282.496936 -217.284059 
L 282.216675 -217.087784 
L 281.936414 -216.890254 
L 281.656153 -216.691951 
L 281.375892 -216.499179 
L 281.09563 -216.299221 
L 280.815369 -216.085653 
L 280.535108 -215.876636 
L 280.254847 -215.66307 
L 279.974586 -215.439206 
L 279.694324 -215.219608 
L 279.414063 -214.997006 
L 279.133802 -214.780661 
L 278.853541 -214.559261 
L 278.57328 -214.341155 
L 278.293019 -214.127019 
L 278.012757 -213.915067 
L 277.732496 -213.709041 
L 277.452235 -213.496538 
L 277.171974 -213.284301 
L 276.891713 -213.074273 
L 276.611452 -212.857383 
L 276.33119 -212.649311 
L 276.050929 -212.427537 
L 275.770668 -212.204771 
L 275.490407 -211.982459 
L 275.210146 -211.758315 
L 274.929884 -211.5281 
L 274.649623 -211.295136 
L 274.369362 -211.063951 
L 274.089101 -210.839757 
L 273.80884 -210.609671 
L 273.528579 -210.377356 
L 273.248317 -210.157715 
L 272.968056 -209.944492 
L 272.687795 -209.733188 
L 272.407534 -209.512924 
L 272.127273 -209.297693 
L 271.847012 -209.082675 
L 271.56675 -208.862414 
L 271.286489 -208.630519 
L 271.006228 -208.394474 
L 270.725967 -208.146235 
L 270.445706 -207.896837 
L 270.165445 -207.64874 
L 269.885183 -207.406552 
L 269.604922 -207.162973 
L 269.324661 -206.927843 
L 269.0444 -206.698283 
L 268.764139 -206.474178 
L 268.483877 -206.249227 
L 268.203616 -206.02256 
L 267.923355 -205.796089 
L 267.643094 -205.577818 
L 267.362833 -205.346988 
L 267.082572 -205.115379 
L 266.80231 -204.883396 
L 266.522049 -204.645641 
L 266.241788 -204.403877 
L 265.961527 -204.15556 
L 265.681266 -203.900031 
L 265.401005 -203.658099 
L 265.120743 -203.410768 
L 264.840482 -203.164375 
L 264.560221 -202.926781 
L 264.27996 -202.699028 
L 263.999699 -202.466895 
L 263.719437 -202.241563 
L 263.439176 -202.012078 
L 263.158915 -201.782182 
L 262.878654 -201.538745 
L 262.598393 -201.279696 
L 262.318132 -201.023324 
L 262.03787 -200.766861 
L 261.757609 -200.498113 
L 261.477348 -200.233202 
L 261.197087 -199.975786 
L 260.916826 -199.73035 
L 260.636565 -199.486304 
L 260.356303 -199.243737 
L 260.076042 -199.005618 
L 259.795781 -198.772974 
L 259.51552 -198.537069 
L 259.235259 -198.296483 
L 258.954997 -198.06187 
L 258.674736 -197.816763 
L 258.394475 -197.565185 
L 258.114214 -197.306845 
L 257.833953 -197.052388 
L 257.553692 -196.79809 
L 257.27343 -196.544638 
L 256.993169 -196.282342 
L 256.712908 -196.026115 
L 256.432647 -195.777766 
L 256.152386 -195.529194 
L 255.872125 -195.290336 
L 255.591863 -195.043683 
L 255.311602 -194.799505 
L 255.031341 -194.556742 
L 254.75108 -194.313227 
L 254.470819 -194.054087 
L 254.190558 -193.790426 
L 253.910296 -193.514473 
L 253.630035 -193.242043 
L 253.349774 -192.971364 
L 253.069513 -192.703358 
L 252.789252 -192.441254 
L 252.50899 -192.185439 
L 252.228729 -191.933593 
L 251.948468 -191.681931 
L 251.668207 -191.427778 
L 251.387946 -191.168882 
L 251.107685 -190.902851 
L 250.827423 -190.641401 
L 250.547162 -190.383126 
L 250.266901 -190.123486 
L 249.98664 -189.862217 
L 249.706379 -189.605456 
L 249.426118 -189.35669 
L 249.145856 -189.093813 
L 248.865595 -188.826592 
L 248.585334 -188.560756 
L 248.305073 -188.303314 
L 248.024812 -188.04964 
L 247.74455 -187.788496 
L 247.464289 -187.532968 
L 247.184028 -187.276016 
L 246.903767 -187.021522 
L 246.623506 -186.759293 
L 246.343245 -186.492658 
L 246.062983 -186.215073 
L 245.782722 -185.941132 
L 245.502461 -185.668717 
L 245.2222 -185.389175 
L 244.941939 -185.116888 
L 244.661678 -184.844644 
L 244.381416 -184.576793 
L 244.101155 -184.311317 
L 243.820894 -184.04577 
L 243.540633 -183.777644 
L 243.260372 -183.513662 
L 242.98011 -183.24413 
L 242.699849 -182.980982 
L 242.419588 -182.713847 
L 242.139327 -182.447954 
L 241.859066 -182.176932 
L 241.578805 -181.911884 
L 241.298543 -181.63647 
L 241.018282 -181.364141 
L 240.738021 -181.08951 
L 240.45776 -180.822837 
L 240.177499 -180.557597 
L 239.897238 -180.293449 
L 239.616976 -180.026995 
L 239.336715 -179.760736 
L 239.056454 -179.491456 
L 238.776193 -179.217076 
L 238.495932 -178.940549 
L 238.215671 -178.660618 
L 237.935409 -178.373833 
L 237.655148 -178.093304 
L 237.374887 -177.81628 
L 237.094626 -177.544055 
L 236.814365 -177.267056 
L 236.534103 -176.992163 
L 236.253842 -176.725103 
L 235.973581 -176.462768 
L 235.69332 -176.199367 
L 235.413059 -175.928239 
L 235.132798 -175.658244 
L 234.852536 -175.399648 
L 234.572275 -175.13454 
L 234.292014 -174.866577 
L 234.011753 -174.594961 
L 233.731492 -174.324735 
L 233.451231 -174.062325 
L 233.170969 -173.789263 
L 232.890708 -173.524661 
L 232.610447 -173.266192 
L 232.330186 -173.012346 
L 232.049925 -172.756236 
L 231.769663 -172.488886 
L 231.489402 -172.228536 
L 231.209141 -171.961358 
L 230.92888 -171.686173 
L 230.648619 -171.407039 
L 230.368358 -171.122387 
L 230.088096 -170.842319 
L 229.807835 -170.569654 
L 229.527574 -170.29058 
L 229.247313 -170.012424 
L 228.967052 -169.736682 
L 228.686791 -169.46713 
L 228.406529 -169.196416 
L 228.126268 -168.927717 
L 227.846007 -168.657843 
L 227.565746 -168.393219 
L 227.285485 -168.128127 
L 227.005224 -167.864011 
L 226.724962 -167.600787 
L 226.444701 -167.336489 
L 226.16444 -167.076942 
L 225.884179 -166.817165 
L 225.603918 -166.547476 
L 225.323656 -166.286221 
L 225.043395 -166.021755 
L 224.763134 -165.764438 
L 224.482873 -165.50132 
L 224.202612 -165.239347 
L 223.922351 -164.977735 
L 223.642089 -164.71103 
L 223.361828 -164.434069 
L 223.081567 -164.160135 
L 222.801306 -163.878732 
L 222.521045 -163.605077 
L 222.240784 -163.336201 
L 221.960522 -163.065195 
L 221.680261 -162.797347 
L 221.4 -162.533885 
L 221.119739 -162.268017 
L 220.839478 -162.004504 
L 220.559216 -161.742409 
L 220.278955 -161.463585 
L 219.998694 -161.191134 
L 219.718433 -160.922063 
L 219.438172 -160.651442 
L 219.157911 -160.380967 
L 218.877649 -160.110374 
L 218.597388 -159.841463 
L 218.317127 -159.579576 
L 218.036866 -159.314692 
L 217.756605 -159.051183 
L 217.476344 -158.788318 
L 217.196082 -158.520728 
L 216.915821 -158.249355 
L 216.63556 -157.974905 
L 216.355299 -157.701014 
L 216.075038 -157.421845 
L 215.794776 -157.134037 
L 215.514515 -156.846973 
L 215.234254 -156.562975 
L 214.953993 -156.281632 
L 214.673732 -156.005772 
L 214.393471 -155.733799 
L 214.113209 -155.471364 
L 213.832948 -155.203037 
L 213.552687 -154.939033 
L 213.272426 -154.681206 
L 212.992165 -154.416271 
L 212.711904 -154.145498 
L 212.431642 -153.876036 
L 212.151381 -153.606353 
L 211.87112 -153.340271 
L 211.590859 -153.066159 
L 211.310598 -152.789587 
L 211.030337 -152.514111 
L 210.750075 -152.245067 
L 210.469814 -151.974591 
L 210.189553 -151.704055 
L 209.909292 -151.433599 
L 209.629031 -151.163418 
L 209.348769 -150.895018 
L 209.068508 -150.615533 
L 208.788247 -150.337479 
L 208.507986 -150.053669 
L 208.227725 -149.775978 
L 207.947464 -149.494841 
L 207.667202 -149.216977 
L 207.386941 -148.945591 
L 207.10668 -148.675123 
L 206.826419 -148.409814 
L 206.546158 -148.14232 
L 206.265897 -147.877806 
L 205.985635 -147.607788 
L 205.705374 -147.339312 
L 205.425113 -147.069876 
L 205.144852 -146.798627 
L 204.864591 -146.525826 
L 204.584329 -146.251456 
L 204.304068 -145.970326 
L 204.023807 -145.694852 
L 203.743546 -145.423214 
L 203.463285 -145.142503 
L 203.183024 -144.876704 
L 202.902762 -144.610415 
L 202.622501 -144.347673 
L 202.34224 -144.082143 
L 202.061979 -143.816065 
L 201.781718 -143.54869 
L 201.501457 -143.267942 
L 201.221195 -142.991153 
L 200.940934 -142.710776 
L 200.660673 -142.438806 
L 200.380412 -142.168956 
L 200.100151 -141.902189 
L 199.81989 -141.635951 
L 199.539628 -141.379256 
L 199.259367 -141.127191 
L 198.979106 -140.869019 
L 198.698845 -140.617582 
L 198.418584 -140.35505 
L 198.138322 -140.097041 
L 197.858061 -139.834575 
L 197.5778 -139.560469 
L 197.297539 -139.283491 
L 197.017278 -139.011676 
L 196.737017 -138.735866 
L 196.456755 -138.460718 
L 196.176494 -138.192253 
L 195.896233 -137.92447 
L 195.615972 -137.662478 
L 195.335711 -137.404214 
L 195.05545 -137.143414 
L 194.775188 -136.876044 
L 194.494927 -136.610757 
L 194.214666 -136.339013 
L 193.934405 -136.071088 
L 193.654144 -135.795339 
L 193.373882 -135.51609 
L 193.093621 -135.240425 
L 192.81336 -134.976628 
L 192.533099 -134.712993 
L 192.252838 -134.452493 
L 191.972577 -134.19054 
L 191.692315 -133.929099 
L 191.412054 -133.671306 
L 191.131793 -133.408479 
L 190.851532 -133.144147 
L 190.571271 -132.878723 
L 190.29101 -132.613338 
L 190.010748 -132.343428 
L 189.730487 -132.076338 
L 189.450226 -131.806653 
L 189.169965 -131.543307 
L 188.889704 -131.278258 
L 188.609442 -131.015973 
L 188.329181 -130.752131 
L 188.04892 -130.495953 
L 187.768659 -130.238917 
L 187.488398 -129.984033 
L 187.208137 -129.722057 
L 186.927875 -129.461452 
L 186.647614 -129.190382 
L 186.367353 -128.921414 
L 186.087092 -128.652436 
L 185.806831 -128.379431 
L 185.52657 -128.094799 
L 185.246308 -127.814662 
L 184.966047 -127.545554 
L 184.685786 -127.27487 
L 184.405525 -127.001381 
L 184.125264 -126.733864 
L 183.845003 -126.481157 
L 183.564741 -126.231972 
L 183.28448 -125.974097 
L 183.004219 -125.717223 
L 182.723958 -125.464699 
L 182.443697 -125.203475 
L 182.163435 -124.936332 
L 181.883174 -124.666228 
L 181.602913 -124.396278 
L 181.322652 -124.124091 
L 181.042391 -123.850766 
L 180.76213 -123.578085 
L 180.481868 -123.308558 
L 180.201607 -123.040927 
L 179.921346 -122.784013 
L 179.641085 -122.529605 
L 179.360824 -122.277782 
L 179.080563 -122.023431 
L 178.800301 -121.763155 
L 178.52004 -121.506159 
L 178.239779 -121.240637 
L 177.959518 -120.970022 
L 177.679257 -120.690012 
L 177.398995 -120.414249 
L 177.118734 -120.140104 
L 176.838473 -119.872061 
L 176.558212 -119.602824 
L 176.277951 -119.333052 
L 175.99769 -119.072511 
L 175.717428 -118.811478 
L 175.437167 -118.555201 
L 175.156906 -118.295991 
L 174.876645 -118.035878 
L 174.596384 -117.779029 
L 174.316123 -117.514602 
L 174.035861 -117.254711 
L 173.7556 -116.989887 
L 173.475339 -116.719422 
L 173.195078 -116.450708 
L 172.914817 -116.179531 
L 172.634555 -115.925796 
L 172.354294 -115.666156 
L 172.074033 -115.404387 
L 171.793772 -115.147886 
L 171.513511 -114.900042 
L 171.23325 -114.655359 
L 170.952988 -114.397031 
L 170.672727 -114.133554 
L 170.392466 -113.868533 
L 170.112205 -113.60864 
L 169.831944 -113.349354 
L 169.551683 -113.072667 
L 169.271421 -112.807417 
L 168.99116 -112.543333 
L 168.710899 -112.286069 
L 168.430638 -112.028907 
L 168.150377 -111.764449 
L 167.870116 -111.507381 
L 167.589854 -111.251614 
L 167.309593 -111.002032 
L 167.029332 -110.747831 
L 166.749071 -110.493144 
L 166.46881 -110.237318 
L 166.188548 -109.987452 
L 165.908287 -109.746821 
L 165.628026 -109.502519 
L 165.347765 -109.259111 
L 165.067504 -109.013759 
L 164.787243 -108.768726 
L 164.506981 -108.524673 
L 164.22672 -108.280915 
L 163.946459 -108.030857 
L 163.666198 -107.778344 
L 163.385937 -107.529097 
L 163.105676 -107.291792 
L 162.825414 -107.054059 
L 162.545153 -106.815269 
L 162.264892 -106.570994 
L 161.984631 -106.336141 
L 161.70437 -106.100451 
L 161.424108 -105.866598 
L 161.143847 -105.628111 
L 160.863586 -105.38617 
L 160.583325 -105.143573 
L 160.303064 -104.896498 
L 160.022803 -104.641741 
L 159.742541 -104.393876 
L 159.46228 -104.138867 
L 159.182019 -103.893698 
L 158.901758 -103.652055 
L 158.621497 -103.416778 
L 158.341236 -103.180932 
L 158.060974 -102.947854 
L 157.780713 -102.716316 
L 157.500452 -102.487468 
L 157.220191 -102.252387 
L 156.93993 -102.011337 
L 156.659669 -101.772665 
L 156.379407 -101.531462 
L 156.099146 -101.286592 
L 155.818885 -101.036861 
L 155.538624 -100.784324 
L 155.258363 -100.536826 
L 154.978101 -100.301035 
L 154.69784 -100.063983 
L 154.417579 -99.822733 
L 154.137318 -99.589086 
L 153.857057 -99.358022 
L 153.576796 -99.124387 
L 153.296534 -98.886386 
L 153.016273 -98.651806 
L 152.736012 -98.412355 
L 152.455751 -98.168893 
L 152.17549 -97.926205 
L 151.895229 -97.684907 
L 151.614967 -97.435857 
L 151.334706 -97.19428 
L 151.054445 -96.951022 
L 150.774184 -96.711547 
L 150.493923 -96.47716 
L 150.213661 -96.239062 
L 149.9334 -96.013154 
L 149.653139 -95.786101 
L 149.372878 -95.552438 
L 149.092617 -95.318106 
L 148.812356 -95.088735 
L 148.532094 -94.857999 
L 148.251833 -94.621095 
L 147.971572 -94.382889 
L 147.691311 -94.147837 
L 147.41105 -93.907083 
L 147.130789 -93.67228 
L 146.850527 -93.432529 
L 146.570266 -93.189775 
L 146.290005 -92.948064 
L 146.009744 -92.708711 
L 145.729483 -92.469147 
L 145.449221 -92.238935 
L 145.16896 -92.00064 
L 144.888699 -91.757733 
L 144.608438 -91.516532 
L 144.328177 -91.272702 
L 144.047916 -91.033117 
L 143.767654 -90.790477 
L 143.487393 -90.54425 
L 143.207132 -90.310769 
L 142.926871 -90.076733 
L 142.64661 -89.838155 
L 142.366349 -89.607805 
L 142.086087 -89.373398 
L 141.805826 -89.140268 
L 141.525565 -88.903565 
L 141.245304 -88.667914 
L 140.965043 -88.437106 
L 140.684782 -88.208163 
L 140.40452 -87.96743 
L 140.124259 -87.731944 
L 139.843998 -87.499049 
L 139.563737 -87.268695 
L 139.283476 -87.039455 
L 139.003214 -86.80682 
L 138.722953 -86.578061 
L 138.442692 -86.352903 
L 138.162431 -86.129412 
L 137.88217 -85.904126 
L 137.601909 -85.6863 
L 137.321647 -85.460531 
L 137.041386 -85.240269 
L 136.761125 -85.01535 
L 136.480864 -84.787347 
L 136.200603 -84.564123 
L 135.920342 -84.331526 
L 135.64008 -84.104125 
L 135.359819 -83.874777 
L 135.079558 -83.640449 
L 134.799297 -83.414839 
L 134.519036 -83.190622 
L 134.238774 -82.967645 
L 133.958513 -82.747109 
L 133.678252 -82.525993 
L 133.397991 -82.310683 
L 133.11773 -82.097999 
L 132.837469 -81.874409 
L 132.557207 -81.652216 
L 132.276946 -81.429484 
L 131.996685 -81.201957 
L 131.716424 -80.972676 
L 131.436163 -80.745368 
L 131.155902 -80.523566 
L 130.87564 -80.30656 
L 130.595379 -80.080377 
L 130.315118 -79.863385 
L 130.034857 -79.649775 
L 129.754596 -79.444925 
L 129.474335 -79.235839 
L 129.194073 -79.019223 
L 128.913812 -78.808518 
L 128.633551 -78.605683 
L 128.35329 -78.404038 
L 128.073029 -78.194863 
L 127.792767 -77.98911 
L 127.512506 -77.783337 
L 127.232245 -77.576763 
L 126.951984 -77.362641 
L 126.671723 -77.140975 
L 126.391462 -76.915983 
L 126.1112 -76.698848 
L 125.830939 -76.473927 
L 125.550678 -76.252259 
L 125.270417 -76.039006 
L 124.990156 -75.8293 
L 124.709895 -75.62553 
L 124.429633 -75.423235 
L 124.149372 -75.219937 
L 123.869111 -75.022693 
L 123.58885 -74.831698 
L 123.308589 -74.63829 
L 123.028327 -74.445732 
L 122.748066 -74.250789 
L 122.467805 -74.052876 
L 122.187544 -73.856246 
L 121.907283 -73.65858 
L 121.627022 -73.45285 
L 121.34676 -73.250868 
L 121.066499 -73.051157 
L 120.786238 -72.855142 
L 120.505977 -72.655822 
L 120.225716 -72.458685 
L 119.945455 -72.260534 
L 119.665193 -72.063409 
L 119.384932 -71.869772 
L 119.104671 -71.670599 
L 118.82441 -71.482321 
L 118.544149 -71.294327 
L 118.263887 -71.108901 
L 117.983626 -70.919534 
L 117.703365 -70.73088 
L 117.423104 -70.544624 
L 117.142843 -70.361694 
L 116.862582 -70.174908 
L 116.58232 -69.995761 
L 116.302059 -69.819505 
L 116.021798 -69.643689 
L 115.741537 -69.46862 
L 115.461276 -69.29152 
L 115.181015 -69.108737 
L 114.900753 -68.934701 
L 114.620492 -68.758054 
L 114.340231 -68.585323 
L 114.05997 -68.417285 
L 113.779709 -68.255287 
L 113.499448 -68.095047 
L 113.219186 -67.938492 
L 112.938925 -67.775715 
L 112.658664 -67.610365 
L 112.378403 -67.449559 
L 112.098142 -67.285227 
L 111.81788 -67.122543 
L 111.537619 -66.950391 
L 111.257358 -66.780208 
L 110.977097 -66.610414 
L 110.696836 -66.438355 
L 110.416575 -66.262546 
L 110.136313 -66.088068 
L 109.856052 -65.914627 
L 109.575791 -65.745364 
L 109.29553 -65.576331 
L 109.015269 -65.406512 
L 108.735008 -65.239298 
L 108.454746 -65.081809 
L 108.174485 -64.921535 
L 107.894224 -64.760018 
L 107.613963 -64.608247 
L 107.333702 -64.448183 
L 107.05344 -64.284949 
L 106.773179 -64.129304 
L 106.492918 -63.964211 
L 106.212657 -63.797517 
L 105.932396 -63.63571 
L 105.652135 -63.461898 
L 105.371873 -63.298761 
L 105.091612 -63.12973 
L 104.811351 -62.960483 
L 104.53109 -62.795643 
L 104.250829 -62.63659 
L 103.970568 -62.478301 
L 103.690306 -62.324531 
L 103.410045 -62.171158 
L 103.129784 -62.023121 
L 102.849523 -61.868987 
L 102.569262 -61.721611 
L 102.289001 -61.564665 
L 102.008739 -61.403415 
L 101.728478 -61.248348 
L 101.448217 -61.096117 
L 101.167956 -60.945486 
L 100.887695 -60.793984 
L 100.607433 -60.647174 
L 100.327172 -60.509763 
L 100.046911 -60.368426 
L 99.76665 -60.223104 
L 99.486389 -60.07813 
L 99.206128 -59.934081 
L 98.925866 -59.790093 
L 98.645605 -59.643643 
L 98.365344 -59.496035 
L 98.085083 -59.354991 
L 97.804822 -59.212502 
L 97.524561 -59.063298 
L 97.244299 -58.924498 
L 96.964038 -58.783748 
L 96.683777 -58.639476 
L 96.403516 -58.491995 
L 96.123255 -58.350355 
L 95.842993 -58.211363 
L 95.562732 -58.075312 
L 95.282471 -57.935179 
L 95.00221 -57.802685 
L 94.721949 -57.674374 
L 94.441688 -57.549859 
L 94.161426 -57.42717 
L 93.881165 -57.304201 
L 93.600904 -57.193911 
L 93.320643 -57.078396 
L 93.040382 -56.967808 
L 92.760121 -56.856388 
L 92.479859 -56.743758 
L 92.199598 -56.624787 
L 91.919337 -56.502027 
L 91.639076 -56.380914 
L 91.358815 -56.253582 
L 91.078553 -56.120447 
L 90.798292 -55.989519 
L 90.518031 -55.859863 
L 90.23777 -55.725032 
L 89.957509 -55.587271 
L 89.677248 -55.459488 
L 89.396986 -55.329729 
L 89.116725 -55.205583 
L 88.836464 -55.08379 
L 88.556203 -54.964543 
L 88.275942 -54.856843 
L 87.995681 -54.745305 
L 87.715419 -54.641258 
L 87.435158 -54.537487 
L 87.154897 -54.433994 
L 86.874636 -54.33733 
L 86.594375 -54.244667 
L 86.314114 -54.14738 
L 86.033852 -54.040893 
L 85.753591 -53.930684 
L 85.47333 -53.819889 
L 85.193069 -53.705192 
L 84.912808 -53.590915 
L 84.632546 -53.474175 
L 84.352285 -53.366972 
L 84.072024 -53.268631 
L 83.791763 -53.17389 
L 83.511502 -53.083773 
L 83.231241 -52.991145 
L 82.950979 -52.899692 
L 82.670718 -52.813194 
L 82.390457 -52.720129 
L 82.110196 -52.616756 
L 81.829935 -52.509001 
L 81.549674 -52.398487 
L 81.269412 -52.292388 
L 80.989151 -52.189436 
L 80.70889 -52.083456 
L 80.428629 -51.969306 
L 80.148368 -51.854281 
L 79.868106 -51.738651 
L 79.587845 -51.626048 
L 79.307584 -51.502145 
L 79.027323 -51.366188 
L 78.747062 -51.235692 
L 78.466801 -51.102253 
L 78.186539 -50.960581 
L 77.906278 -50.828499 
L 77.626017 -50.698798 
L 77.345756 -50.574863 
L 77.065495 -50.448562 
L 76.785234 -50.32247 
L 76.504972 -50.199196 
L 76.224711 -50.072606 
L 75.94445 -49.943198 
L 75.664189 -49.815901 
L 75.383928 -49.687138 
L 75.103666 -49.555484 
L 74.823405 -49.42569 
L 74.543144 -49.294679 
L 74.262883 -49.163008 
L 73.982622 -49.026923 
L 73.702361 -48.882144 
L 73.422099 -48.740847 
L 73.141838 -48.590877 
L 72.861577 -48.435723 
L 72.581316 -48.272587 
L 72.301055 -48.107901 
L 72.020794 -47.942199 
L 71.740532 -47.784433 
L 71.460271 -47.623372 
L 71.18001 -47.476229 
L 70.899749 -47.328371 
L 70.619488 -47.177203 
L 70.339227 -47.029611 
L 70.058965 -46.886385 
L 69.778704 -46.748669 
L 69.498443 -46.59459 
L 69.218182 -46.386135 
z
" id="m667946e085" style="stroke:#348abd;stroke-opacity:0.25;stroke-width:0.5;"/>
    </defs>
    <g clip-path="url(#p110415be9c)">
     <use style="fill:#348abd;fill-opacity:0.25;stroke:#348abd;stroke-opacity:0.25;stroke-width:0.5;" x="0" xlink:href="#m667946e085" y="288"/>
    </g>
   </g>
   <g id="line2d_25">
    <path clip-path="url(#p110415be9c)" d="M 69.218182 241.865114 
L 70.058965 241.432454 
L 73.141838 240.095866 
L 76.224711 238.848515 
L 83.231241 236.208942 
L 84.912808 235.654554 
L 86.874636 234.921088 
L 89.677248 234.109069 
L 91.919337 233.441502 
L 95.00221 232.120297 
L 99.206128 230.148134 
L 105.371873 227.01949 
L 119.384932 218.665834 
L 126.1112 213.956663 
L 135.359819 207.016361 
L 151.334706 194.27065 
L 174.035861 175.091609 
L 191.412054 159.666323 
L 207.947464 145.297291 
L 223.081567 131.627869 
L 232.330186 123.254694 
L 237.655148 118.445185 
L 251.387946 106.039692 
L 263.439176 95.448701 
L 270.445706 89.519434 
L 273.248317 87.235747 
L 282.496936 79.889767 
L 294.548167 71.06254 
L 303.516524 65.102319 
L 310.523054 60.773297 
L 315.007233 58.182827 
L 319.21115 55.935229 
L 321.733501 54.708504 
L 322.574284 55.058337 
L 322.574284 55.058337 
" style="fill:none;stroke:#348abd;stroke-linecap:square;stroke-width:2;"/>
   </g>
   <g id="line2d_26">
    <path clip-path="url(#p110415be9c)" d="M 69.218182 241.747494 
L 70.339227 241.219117 
L 75.103666 239.029039 
L 89.677248 231.968283 
L 99.206128 227.018498 
L 109.856052 220.888064 
L 119.945455 214.448768 
L 126.391462 210.040126 
L 128.35329 208.626039 
L 131.996685 206.055567 
L 138.722953 201.102868 
L 140.965043 199.444768 
L 143.767654 197.393915 
L 153.016273 190.970072 
L 159.182019 187.035198 
L 165.347765 183.636515 
L 168.430638 182.047687 
L 170.392466 180.855754 
L 174.876645 177.589474 
L 187.488398 168.177794 
L 193.654144 164.026791 
L 197.017278 161.899212 
L 210.189553 152.974027 
L 214.113209 150.032419 
L 221.119739 144.457689 
L 226.444701 140.165074 
L 238.776193 129.961005 
L 247.184028 123.00301 
L 271.847012 102.642306 
L 295.949473 83.352453 
L 306.319136 75.817132 
L 311.363837 72.397882 
L 318.650628 67.631541 
L 330.141336 60.951661 
L 335.74656 58.068947 
L 343.874134 54.206313 
L 348.078051 52.550781 
L 352.001708 51.156278 
L 358.447715 49.075518 
L 365.734505 47.426686 
L 368.256856 47.113278 
L 370.779206 46.998948 
L 371.900251 47.090833 
L 372.741035 47.519189 
L 373.021296 47.840882 
L 373.581818 49.501547 
L 373.581818 49.501547 
" style="fill:none;opacity:0.5;stroke:#348abd;stroke-linecap:square;stroke-width:0.5;"/>
   </g>
   <g id="line2d_27">
    <path clip-path="url(#p110415be9c)" d="M 69.218182 242.081315 
L 70.339227 241.576804 
L 87.154897 234.943348 
L 97.244299 230.040437 
L 98.925866 229.165871 
L 100.887695 228.17416 
L 102.569262 227.369923 
L 104.53109 226.426116 
L 111.537619 222.817124 
L 112.938925 222.325944 
L 114.620492 221.891877 
L 115.461276 221.652743 
L 117.423104 220.811567 
L 119.665193 219.449537 
L 122.467805 217.47058 
L 131.996685 210.778728 
L 135.079558 208.497982 
L 141.245304 203.958778 
L 153.576796 193.92722 
L 160.022803 188.33909 
L 167.029332 181.999373 
L 174.316123 175.227546 
L 188.889704 161.985094 
L 192.533099 158.909696 
L 199.259367 153.849276 
L 201.501457 152.227373 
L 206.546158 147.838705 
L 212.431642 142.965145 
L 220.278955 135.984547 
L 233.451231 124.900538 
L 241.298543 118.281893 
L 247.464289 112.835603 
L 252.789252 108.220301 
L 258.954997 102.739429 
L 262.03787 100.065409 
L 266.80231 95.93899 
L 274.649623 89.310011 
L 291.185033 76.11479 
L 301.554696 68.623875 
L 315.287494 59.942447 
L 327.058463 53.566974 
L 335.74656 49.690429 
L 338.26891 48.717018 
L 341.912305 47.630704 
L 342.753089 47.535564 
L 342.753089 47.535564 
" style="fill:none;opacity:0.5;stroke:#348abd;stroke-linecap:square;stroke-width:0.5;"/>
   </g>
   <g id="line2d_28">
    <path clip-path="url(#p110415be9c)" d="M 69.218182 241.992208 
L 70.339227 241.451229 
L 74.823405 239.569328 
L 82.670718 236.868705 
L 83.791763 237.044378 
L 84.352285 236.970956 
L 84.912808 236.601377 
L 86.033852 235.850391 
L 102.008739 227.440094 
L 111.537619 221.073846 
L 113.779709 219.521737 
L 115.181015 218.521601 
L 122.467805 213.096654 
L 125.270417 210.984793 
L 132.276946 205.264253 
L 143.487393 195.863639 
L 146.570266 193.147925 
L 157.780713 183.382079 
L 159.742541 181.710425 
L 162.825414 179.023543 
L 164.506981 177.660026 
L 176.277951 167.065458 
L 179.080563 164.452841 
L 181.602913 162.135318 
L 183.564741 160.374218 
L 184.685786 159.37316 
L 187.768659 156.473663 
L 209.068508 136.599491 
L 211.590859 134.202417 
L 224.482873 122.244207 
L 226.16444 120.599034 
L 228.686791 118.325594 
L 234.572275 112.611125 
L 237.655148 109.733081 
L 244.941939 102.683967 
L 251.948468 96.290866 
L 255.311602 93.378531 
L 258.114214 90.857282 
L 260.076042 89.299582 
L 270.165445 81.193222 
L 274.649623 77.669404 
L 276.33119 76.370197 
L 288.382421 68.036855 
L 291.185033 66.276547 
L 295.949473 63.31641 
L 297.63104 62.251934 
L 299.312607 61.207131 
L 314.44671 53.019412 
L 322.854545 49.111487 
L 326.21768 47.695355 
L 329.020291 46.52914 
L 332.943948 45.2514 
L 334.905776 44.719224 
L 334.905776 44.719224 
" style="fill:none;opacity:0.5;stroke:#348abd;stroke-linecap:square;stroke-width:0.5;"/>
   </g>
   <g id="line2d_29">
    <path clip-path="url(#p110415be9c)" d="M 69.218182 241.940803 
L 69.498443 241.681694 
L 69.778704 241.52265 
L 74.543144 239.113778 
L 80.989151 236.790006 
L 83.511502 236.155986 
L 85.47333 235.886688 
L 86.594375 235.83672 
L 87.715419 235.965879 
L 89.116725 236.370931 
L 91.078553 237.063219 
L 91.639076 237.090554 
L 92.479859 236.797114 
L 95.00221 235.425936 
L 100.327172 232.967259 
L 102.008739 232.00775 
L 103.690306 231.083934 
L 104.811351 230.740177 
L 105.652135 230.311902 
L 109.856052 227.470014 
L 114.620492 224.223544 
L 121.627022 219.155743 
L 123.308589 217.764616 
L 125.270417 216.205084 
L 128.35329 213.712406 
L 135.920342 207.202547 
L 145.16896 198.468826 
L 163.666198 180.312029 
L 165.347765 178.658183 
L 169.551683 174.477976 
L 172.074033 171.941808 
L 177.679257 166.438151 
L 179.641085 164.44072 
L 185.52657 158.647735 
L 188.04892 156.179923 
L 193.373882 150.967287 
L 202.622501 141.797437 
L 204.304068 140.145194 
L 206.265897 138.179928 
L 207.947464 136.53669 
L 209.909292 134.537368 
L 215.234254 129.28583 
L 217.196082 127.318022 
L 219.718433 124.879478 
L 224.482873 120.218245 
L 226.16444 118.714306 
L 230.648619 114.264092 
L 232.890708 112.15674 
L 235.413059 109.746679 
L 240.738021 104.539595 
L 245.2222 100.20097 
L 247.464289 98.035678 
L 252.50899 93.374249 
L 256.432647 89.673975 
L 258.954997 87.380383 
L 272.127273 75.990841 
L 279.974586 69.923414 
L 281.375892 68.817724 
L 285.019287 66.264646 
L 287.821899 64.320928 
L 290.62451 62.439056 
L 293.146861 60.747126 
L 304.357308 54.23886 
L 310.242793 51.345472 
L 314.166449 49.50239 
L 317.249322 48.130975 
L 321.733501 46.679331 
L 322.294023 49.289635 
L 322.854545 52.21611 
L 322.854545 52.21611 
" style="fill:none;opacity:0.5;stroke:#348abd;stroke-linecap:square;stroke-width:0.5;"/>
   </g>
   <g id="line2d_30">
    <path clip-path="url(#p110415be9c)" d="M 69.218182 241.360251 
L 69.498443 241.131823 
L 69.778704 240.956333 
L 70.899749 240.321926 
L 74.543144 238.213057 
L 76.504972 237.22158 
L 80.70889 235.14223 
L 86.594375 233.279308 
L 89.396986 232.784162 
L 91.358815 232.66898 
L 93.320643 232.500461 
L 95.282471 232.235147 
L 96.964038 231.670937 
L 102.289001 229.569112 
L 109.856052 226.15189 
L 112.938925 224.410781 
L 122.187544 218.71593 
L 132.276946 211.499443 
L 139.003214 206.280634 
L 140.965043 204.747491 
L 142.366349 203.629838 
L 148.812356 198.488332 
L 155.538624 192.736609 
L 158.901758 189.852767 
L 160.863586 188.088959 
L 179.080563 171.722915 
L 185.246308 166.00246 
L 187.768659 163.57914 
L 193.093621 158.49064 
L 211.030337 140.709127 
L 218.597388 133.261078 
L 225.884179 126.124987 
L 255.311602 97.79278 
L 258.394475 95.007783 
L 264.27996 89.617852 
L 265.961527 88.139976 
L 268.203616 86.210906 
L 270.165445 84.46792 
L 271.56675 83.202664 
L 279.133802 77.005821 
L 280.815369 75.601647 
L 284.178503 73.052054 
L 286.981115 70.898343 
L 288.942943 69.402859 
L 291.185033 67.714683 
L 293.707383 66.012037 
L 300.994174 60.944324 
L 304.91783 58.547323 
L 308.561226 56.247172 
L 311.644098 54.315423 
L 313.325665 53.346315 
L 320.051934 49.953535 
L 321.45324 49.483338 
L 325.096635 48.398304 
L 325.376896 48.310112 
L 325.376896 48.310112 
" style="fill:none;opacity:0.5;stroke:#348abd;stroke-linecap:square;stroke-width:0.5;"/>
   </g>
   <g id="line2d_31">
    <path clip-path="url(#p110415be9c)" d="M 69.218182 242.068613 
L 69.498443 241.923568 
L 69.778704 241.845095 
L 71.460271 241.498603 
L 72.861577 241.19951 
L 75.103666 240.732722 
L 76.785234 240.222233 
L 80.428629 238.853531 
L 86.874636 236.646521 
L 91.919337 234.634427 
L 93.881165 233.867149 
L 97.244299 232.359871 
L 99.206128 231.435968 
L 106.492918 227.985211 
L 108.454746 226.961295 
L 112.938925 224.503825 
L 126.391462 216.504957 
L 135.359819 210.702252 
L 144.328177 204.673276 
L 146.850527 203.090729 
L 156.659669 195.614623 
L 160.583325 192.446416 
L 161.984631 191.292153 
L 163.946459 189.697706 
L 167.309593 186.910872 
L 179.360824 176.91888 
L 182.443697 174.306262 
L 209.909292 150.746592 
L 212.431642 148.527523 
L 244.941939 120.206299 
L 250.547162 115.351082 
L 267.643094 100.417566 
L 268.764139 99.40547 
L 270.725967 97.630397 
L 275.210146 93.911714 
L 279.694324 90.154369 
L 285.86007 85.333624 
L 289.223204 82.639058 
L 295.669211 77.981279 
L 300.15339 74.684834 
L 303.516524 72.31873 
L 310.803315 67.368211 
L 314.44671 65.065224 
L 316.969061 63.427916 
L 323.415068 59.467494 
L 329.580814 56.021426 
L 332.103164 54.637953 
L 334.625515 53.254439 
L 339.389955 50.835199 
L 342.192567 49.454442 
L 349.479357 46.275975 
L 352.281969 45.330682 
L 355.364842 44.443636 
L 355.364842 44.443636 
" style="fill:none;opacity:0.5;stroke:#348abd;stroke-linecap:square;stroke-width:0.5;"/>
   </g>
   <g id="patch_3">
    <path d="M 54 252 
L 54 34.56 
" style="fill:none;stroke:#ffffff;stroke-linecap:square;stroke-linejoin:miter;"/>
   </g>
   <g id="patch_4">
    <path d="M 388.8 252 
L 388.8 34.56 
" style="fill:none;stroke:#ffffff;stroke-linecap:square;stroke-linejoin:miter;"/>
   </g>
   <g id="patch_5">
    <path d="M 54 252 
L 388.8 252 
" style="fill:none;stroke:#ffffff;stroke-linecap:square;stroke-linejoin:miter;"/>
   </g>
   <g id="patch_6">
    <path d="M 54 34.56 
L 388.8 34.56 
" style="fill:none;stroke:#ffffff;stroke-linecap:square;stroke-linejoin:miter;"/>
   </g>
   <g id="legend_1">
    <g id="patch_7">
     <path d="M 61 71.91625 
L 133.940625 71.91625 
Q 135.940625 71.91625 135.940625 69.91625 
L 135.940625 41.56 
Q 135.940625 39.56 133.940625 39.56 
L 61 39.56 
Q 59 39.56 59 41.56 
L 59 69.91625 
Q 59 71.91625 61 71.91625 
z
" style="fill:#e5e5e5;opacity:0.8;stroke:#cccccc;stroke-linejoin:miter;stroke-width:0.5;"/>
    </g>
    <g id="line2d_32">
     <path d="M 63 47.658437 
L 83 47.658437 
" style="fill:none;stroke:#348abd;stroke-linecap:square;stroke-width:2;"/>
    </g>
    <g id="line2d_33"/>
    <g id="text_15">
     <!-- average -->
     <defs>
      <path d="M 2.984375 54.6875 
L 12.5 54.6875 
L 29.59375 8.796875 
L 46.6875 54.6875 
L 56.203125 54.6875 
L 35.6875 0 
L 23.484375 0 
z
" id="DejaVuSans-76"/>
      <path d="M 45.40625 27.984375 
Q 45.40625 37.75 41.375 43.109375 
Q 37.359375 48.484375 30.078125 48.484375 
Q 22.859375 48.484375 18.828125 43.109375 
Q 14.796875 37.75 14.796875 27.984375 
Q 14.796875 18.265625 18.828125 12.890625 
Q 22.859375 7.515625 30.078125 7.515625 
Q 37.359375 7.515625 41.375 12.890625 
Q 45.40625 18.265625 45.40625 27.984375 
M 54.390625 6.78125 
Q 54.390625 -7.171875 48.1875 -13.984375 
Q 42 -20.796875 29.203125 -20.796875 
Q 24.46875 -20.796875 20.265625 -20.09375 
Q 16.0625 -19.390625 12.109375 -17.921875 
L 12.109375 -9.1875 
Q 16.0625 -11.328125 19.921875 -12.34375 
Q 23.78125 -13.375 27.78125 -13.375 
Q 36.625 -13.375 41.015625 -8.765625 
Q 45.40625 -4.15625 45.40625 5.171875 
L 45.40625 9.625 
Q 42.625 4.78125 38.28125 2.390625 
Q 33.9375 0 27.875 0 
Q 17.828125 0 11.671875 7.65625 
Q 5.515625 15.328125 5.515625 27.984375 
Q 5.515625 40.671875 11.671875 48.328125 
Q 17.828125 56 27.875 56 
Q 33.9375 56 38.28125 53.609375 
Q 42.625 51.21875 45.40625 46.390625 
L 45.40625 54.6875 
L 54.390625 54.6875 
z
" id="DejaVuSans-67"/>
     </defs>
     <g transform="translate(91 51.158437)scale(0.1 -0.1)">
      <use xlink:href="#DejaVuSans-61"/>
      <use x="61.279297" xlink:href="#DejaVuSans-76"/>
      <use x="120.458984" xlink:href="#DejaVuSans-65"/>
      <use x="181.982422" xlink:href="#DejaVuSans-72"/>
      <use x="223.095703" xlink:href="#DejaVuSans-61"/>
      <use x="284.375" xlink:href="#DejaVuSans-67"/>
      <use x="347.851562" xlink:href="#DejaVuSans-65"/>
     </g>
    </g>
    <g id="patch_8">
     <path d="M 63 65.836562 
L 83 65.836562 
L 83 58.836562 
L 63 58.836562 
z
" style="fill:#348abd;opacity:0.25;stroke:#348abd;stroke-linejoin:miter;stroke-width:0.5;"/>
    </g>
    <g id="text_16">
     <!-- std. dev -->
     <defs>
      <path d="M 44.28125 53.078125 
L 44.28125 44.578125 
Q 40.484375 46.53125 36.375 47.5 
Q 32.28125 48.484375 27.875 48.484375 
Q 21.1875 48.484375 17.84375 46.4375 
Q 14.5 44.390625 14.5 40.28125 
Q 14.5 37.15625 16.890625 35.375 
Q 19.28125 33.59375 26.515625 31.984375 
L 29.59375 31.296875 
Q 39.15625 29.25 43.1875 25.515625 
Q 47.21875 21.78125 47.21875 15.09375 
Q 47.21875 7.46875 41.1875 3.015625 
Q 35.15625 -1.421875 24.609375 -1.421875 
Q 20.21875 -1.421875 15.453125 -0.5625 
Q 10.6875 0.296875 5.421875 2 
L 5.421875 11.28125 
Q 10.40625 8.6875 15.234375 7.390625 
Q 20.0625 6.109375 24.8125 6.109375 
Q 31.15625 6.109375 34.5625 8.28125 
Q 37.984375 10.453125 37.984375 14.40625 
Q 37.984375 18.0625 35.515625 20.015625 
Q 33.0625 21.96875 24.703125 23.78125 
L 21.578125 24.515625 
Q 13.234375 26.265625 9.515625 29.90625 
Q 5.8125 33.546875 5.8125 39.890625 
Q 5.8125 47.609375 11.28125 51.796875 
Q 16.75 56 26.8125 56 
Q 31.78125 56 36.171875 55.265625 
Q 40.578125 54.546875 44.28125 53.078125 
" id="DejaVuSans-73"/>
      <path d="M 10.6875 12.40625 
L 21 12.40625 
L 21 0 
L 10.6875 0 
z
" id="DejaVuSans-2e"/>
     </defs>
     <g transform="translate(91 65.836562)scale(0.1 -0.1)">
      <use xlink:href="#DejaVuSans-73"/>
      <use x="52.099609" xlink:href="#DejaVuSans-74"/>
      <use x="91.308594" xlink:href="#DejaVuSans-64"/>
      <use x="154.785156" xlink:href="#DejaVuSans-2e"/>
      <use x="186.572266" xlink:href="#DejaVuSans-20"/>
      <use x="218.359375" xlink:href="#DejaVuSans-64"/>
      <use x="281.835938" xlink:href="#DejaVuSans-65"/>
      <use x="343.359375" xlink:href="#DejaVuSans-76"/>
     </g>
    </g>
   </g>
  </g>
 </g>
 <defs>
  <clipPath id="p110415be9c">
   <rect height="217.44" width="334.8" x="54" y="34.56"/>
  </clipPath>
 </defs>
</svg>
