<?xml version="1.0" encoding="UTF-8" standalone="no"?>
<!-- Created with Inkscape (http://www.inkscape.org/) -->

<svg
   xmlns:dc="http://purl.org/dc/elements/1.1/"
   xmlns:cc="http://creativecommons.org/ns#"
   xmlns:rdf="http://www.w3.org/1999/02/22-rdf-syntax-ns#"
   xmlns:svg="http://www.w3.org/2000/svg"
   xmlns="http://www.w3.org/2000/svg"
   xmlns:sodipodi="http://sodipodi.sourceforge.net/DTD/sodipodi-0.dtd"
   xmlns:inkscape="http://www.inkscape.org/namespaces/inkscape"
   id="svg2"
   version="1.1"
   inkscape:version="0.91 r13725"
   xml:space="preserve"
   width="494.62961"
   height="433.48941"
   viewBox="0 0 494.62959 433.48941"
   sodipodi:docname="rad_vs_ax_2.svg"><metadata
     id="metadata8"><rdf:RDF><cc:Work
         rdf:about=""><dc:format>image/svg+xml</dc:format><dc:type
           rdf:resource="http://purl.org/dc/dcmitype/StillImage" /><dc:title></dc:title></cc:Work></rdf:RDF></metadata><defs
     id="defs6"><marker
       inkscape:isstock="true"
       style="overflow:visible"
       id="marker4636"
       refX="0"
       refY="0"
       orient="auto"
       inkscape:stockid="Arrow1Sstart"><path
         transform="matrix(0.2,0,0,0.2,1.2,0)"
         style="fill:#6673ff;fill-opacity:1;fill-rule:evenodd;stroke:#6673ff;stroke-width:1pt;stroke-opacity:1"
         d="M 0,0 5,-5 -12.5,0 5,5 0,0 Z"
         id="path4638"
         inkscape:connector-curvature="0" /></marker><marker
       inkscape:stockid="Arrow1Sstart"
       orient="auto"
       refY="0"
       refX="0"
       id="Arrow1Sstart"
       style="overflow:visible"
       inkscape:isstock="true"
       inkscape:collect="always"><path
         id="path4372"
         d="M 0,0 5,-5 -12.5,0 5,5 0,0 Z"
         style="fill:#6673ff;fill-opacity:1;fill-rule:evenodd;stroke:#6673ff;stroke-width:1pt;stroke-opacity:1"
         transform="matrix(0.2,0,0,0.2,1.2,0)"
         inkscape:connector-curvature="0" /></marker></defs><sodipodi:namedview
     pagecolor="#ffffff"
     bordercolor="#666666"
     borderopacity="1"
     objecttolerance="10"
     gridtolerance="10"
     guidetolerance="10"
     inkscape:pageopacity="0"
     inkscape:pageshadow="2"
     inkscape:window-width="1858"
     inkscape:window-height="1181"
     id="namedview4"
     showgrid="false"
     inkscape:zoom="1.2657235"
     inkscape:cx="256.95628"
     inkscape:cy="226.16006"
     inkscape:window-x="1978"
     inkscape:window-y="-4"
     inkscape:window-maximized="1"
     inkscape:current-layer="g10"
     fit-margin-top="20"
     fit-margin-left="20"
     fit-margin-right="20"
     fit-margin-bottom="20" /><g
     id="g10"
     inkscape:groupmode="layer"
     inkscape:label="rad_vs_ax_2"
     transform="matrix(1.25,0,0,-1.25,-150.43361,585.05906)"><path
       d="m 144.58191,201.04388 18.14172,-18.14172"
       style="fill:none;stroke:#000000;stroke-width:0.57599998;stroke-linecap:round;stroke-linejoin:round;stroke-miterlimit:2;stroke-dasharray:none;stroke-opacity:1"
       id="path20"
       inkscape:connector-curvature="0" /><path
       d="m 144.58191,201.04449 0,114.51908"
       style="fill:none;stroke:#000000;stroke-width:0.57599998;stroke-linecap:round;stroke-linejoin:round;stroke-miterlimit:2;stroke-dasharray:none;stroke-opacity:1"
       id="path22"
       inkscape:connector-curvature="0" /><path
       d="m 153.65277,209.88232 0,114.75211"
       style="fill:none;stroke:#000000;stroke-width:0.57599998;stroke-linecap:round;stroke-linejoin:round;stroke-miterlimit:2;stroke-dasharray:none;stroke-opacity:1"
       id="path24"
       inkscape:connector-curvature="0" /><path
       d="m 174.06223,418.74945 -9.07087,-2.76239"
       style="fill:none;stroke:#000000;stroke-width:0.57599998;stroke-linecap:round;stroke-linejoin:round;stroke-miterlimit:2;stroke-dasharray:none;stroke-opacity:1"
       id="path26"
       inkscape:connector-curvature="0" /><path
       d="m 162.72363,137.54782 0,55.63895"
       style="fill:none;stroke:#000000;stroke-width:0.57599998;stroke-linecap:round;stroke-linejoin:round;stroke-miterlimit:2;stroke-dasharray:none;stroke-opacity:1"
       id="path28"
       inkscape:connector-curvature="0" /><path
       d="m 162.72363,233.94199 0,90.69244"
       style="fill:none;stroke:#000000;stroke-width:0.57599998;stroke-linecap:round;stroke-linejoin:round;stroke-miterlimit:2;stroke-dasharray:none;stroke-opacity:1"
       id="path30"
       inkscape:connector-curvature="0" /><path
       d="m 164.99136,230.42065 0,185.56641"
       style="fill:none;stroke:#000000;stroke-width:0.57599998;stroke-linecap:round;stroke-linejoin:round;stroke-miterlimit:2;stroke-dasharray:none;stroke-opacity:1"
       id="path32"
       inkscape:connector-curvature="0" /><path
       d="m 171.79453,137.54782 0,50.31601"
       style="fill:none;stroke:#000000;stroke-width:0.57599998;stroke-linecap:round;stroke-linejoin:round;stroke-miterlimit:2;stroke-dasharray:none;stroke-opacity:1"
       id="path34"
       inkscape:connector-curvature="0" /><path
       d="m 174.06223,387.67242 3e-5,-167.24426"
       style="fill:none;stroke:#000000;stroke-width:0.57599998;stroke-linecap:round;stroke-linejoin:round;stroke-miterlimit:2;stroke-dasharray:none;stroke-opacity:1"
       id="path36"
       inkscape:connector-curvature="0" /><path
       d="m 248.89688,137.54782 -86.17325,0"
       style="fill:none;stroke:#000000;stroke-width:0.57599998;stroke-linecap:round;stroke-linejoin:round;stroke-miterlimit:2;stroke-dasharray:none;stroke-opacity:1"
       id="path38"
       inkscape:connector-curvature="0" /><path
       d="m 365.51093,142.08325 134.14196,0"
       style="fill:none;stroke:#000000;stroke-width:0.57599998;stroke-linecap:round;stroke-linejoin:round;stroke-miterlimit:2;stroke-dasharray:none;stroke-opacity:1"
       id="path40"
       inkscape:connector-curvature="0" /><path
       d="m 144.58191,315.56357 9.07086,9.07086"
       style="fill:none;stroke:#000000;stroke-width:0.57599998;stroke-linecap:round;stroke-linejoin:round;stroke-miterlimit:2;stroke-dasharray:none;stroke-opacity:1"
       id="path42"
       inkscape:connector-curvature="0" /><path
       d="m 237.55829,387.67242 9.07086,2.76239"
       style="fill:none;stroke:#000000;stroke-width:0.57599998;stroke-linecap:round;stroke-linejoin:round;stroke-miterlimit:2;stroke-dasharray:none;stroke-opacity:1"
       id="path44"
       inkscape:connector-curvature="0" /><path
       d="m 237.55807,220.42816 2.2e-4,167.24426"
       style="fill:none;stroke:#000000;stroke-width:0.57599998;stroke-linecap:round;stroke-linejoin:round;stroke-miterlimit:2;stroke-dasharray:none;stroke-opacity:1"
       id="path46"
       inkscape:connector-curvature="0" /><path
       d="m 239.82602,187.86383 0,-50.31601"
       style="fill:none;stroke:#000000;stroke-width:0.57599998;stroke-linecap:round;stroke-linejoin:round;stroke-miterlimit:2;stroke-dasharray:none;stroke-opacity:1"
       id="path48"
       inkscape:connector-curvature="0" /><path
       d="m 370.83673,203.66373 69.06513,0"
       style="fill:none;stroke:#000000;stroke-width:0.57599998;stroke-linecap:round;stroke-linejoin:round;stroke-miterlimit:2;stroke-dasharray:none;stroke-opacity:1"
       id="path50"
       inkscape:connector-curvature="0" /><path
       d="m 459.77814,203.66373 39.87475,0"
       style="fill:none;stroke:#000000;stroke-width:0.57599998;stroke-linecap:round;stroke-linejoin:round;stroke-miterlimit:2;stroke-dasharray:none;stroke-opacity:1"
       id="path52"
       inkscape:connector-curvature="0" /><path
       d="m 365.6478,206.50449 5.05206,0"
       style="fill:none;stroke:#000000;stroke-width:0.57599998;stroke-linecap:round;stroke-linejoin:round;stroke-miterlimit:2;stroke-dasharray:none;stroke-opacity:1"
       id="path54"
       inkscape:connector-curvature="0" /><path
       d="m 440.41275,206.50449 18.85449,0"
       style="fill:none;stroke:#000000;stroke-width:0.57599998;stroke-linecap:round;stroke-linejoin:round;stroke-miterlimit:2;stroke-dasharray:none;stroke-opacity:1"
       id="path56"
       inkscape:connector-curvature="0" /><path
       d="m 371.08466,207.42966 69.06509,0"
       style="fill:none;stroke:#000000;stroke-width:0.57599998;stroke-linecap:round;stroke-linejoin:round;stroke-miterlimit:2;stroke-dasharray:none;stroke-opacity:1"
       id="path58"
       inkscape:connector-curvature="0" /><path
       d="m 459.34875,207.42966 39.87476,0"
       style="fill:none;stroke:#000000;stroke-width:0.57599998;stroke-linecap:round;stroke-linejoin:round;stroke-miterlimit:2;stroke-dasharray:none;stroke-opacity:1"
       id="path60"
       inkscape:connector-curvature="0" /><path
       d="m 246.62915,230.42062 0,185.56644"
       style="fill:none;stroke:#000000;stroke-width:0.57599998;stroke-linecap:round;stroke-linejoin:round;stroke-miterlimit:2;stroke-dasharray:none;stroke-opacity:1"
       id="path62"
       inkscape:connector-curvature="0" /><path
       d="m 248.89688,193.18677 0,-55.63895"
       style="fill:none;stroke:#000000;stroke-width:0.57599998;stroke-linecap:round;stroke-linejoin:round;stroke-miterlimit:2;stroke-dasharray:none;stroke-opacity:1"
       id="path64"
       inkscape:connector-curvature="0" /><path
       d="m 248.89688,233.94199 0,90.69244"
       style="fill:none;stroke:#000000;stroke-width:0.57599998;stroke-linecap:round;stroke-linejoin:round;stroke-miterlimit:2;stroke-dasharray:none;stroke-opacity:1"
       id="path66"
       inkscape:connector-curvature="0" /><path
       d="m 171.79453,220.42816 68.03149,0"
       style="fill:none;stroke:#000000;stroke-width:0.57599998;stroke-linecap:round;stroke-linejoin:round;stroke-miterlimit:2;stroke-dasharray:none;stroke-opacity:1"
       id="path68"
       inkscape:connector-curvature="0" /><path
       d="m 257.96774,324.63443 0,-114.75211"
       style="fill:none;stroke:#000000;stroke-width:0.57599998;stroke-linecap:round;stroke-linejoin:round;stroke-miterlimit:2;stroke-dasharray:none;stroke-opacity:1"
       id="path70"
       inkscape:connector-curvature="0" /><path
       d="m 267.0386,201.04449 0,114.51908"
       style="fill:none;stroke:#000000;stroke-width:0.57599998;stroke-linecap:round;stroke-linejoin:round;stroke-miterlimit:2;stroke-dasharray:none;stroke-opacity:1"
       id="path72"
       inkscape:connector-curvature="0" /><path
       d="m 381.55829,272.47696 102.04724,0"
       style="fill:none;stroke:#000000;stroke-width:0.57599998;stroke-linecap:round;stroke-linejoin:round;stroke-miterlimit:2;stroke-dasharray:none;stroke-opacity:1"
       id="path74"
       inkscape:connector-curvature="0" /><path
       d="m 381.55829,274.74466 102.04724,0"
       style="fill:none;stroke:#000000;stroke-width:0.57599998;stroke-linecap:round;stroke-linejoin:round;stroke-miterlimit:2;stroke-dasharray:none;stroke-opacity:1"
       id="path76"
       inkscape:connector-curvature="0" /><path
       d="m 267.0386,315.56357 -9.07086,9.07086"
       style="fill:none;stroke:#000000;stroke-width:0.57599998;stroke-linecap:round;stroke-linejoin:round;stroke-miterlimit:2;stroke-dasharray:none;stroke-opacity:1"
       id="path78"
       inkscape:connector-curvature="0" /><path
       d="m 237.55829,300.9335 -63.49606,0"
       style="fill:none;stroke:#000000;stroke-width:0.57599998;stroke-linecap:round;stroke-linejoin:round;stroke-miterlimit:2;stroke-dasharray:none;stroke-opacity:1"
       id="path80"
       inkscape:connector-curvature="0" /><path
       d="m 248.89688,182.90216 18.14172,18.14172"
       style="fill:none;stroke:#000000;stroke-width:0.57599998;stroke-linecap:round;stroke-linejoin:round;stroke-miterlimit:2;stroke-dasharray:none;stroke-opacity:1"
       id="path82"
       inkscape:connector-curvature="0" /><path
       d="m 257.96774,324.63443 -9.07086,0"
       style="fill:none;stroke:#000000;stroke-width:0.57599998;stroke-linecap:round;stroke-linejoin:round;stroke-miterlimit:2;stroke-dasharray:none;stroke-opacity:1"
       id="path84"
       inkscape:connector-curvature="0" /><path
       d="m 162.72363,324.63443 -9.07086,0"
       style="fill:none;stroke:#000000;stroke-width:0.57599998;stroke-linecap:round;stroke-linejoin:round;stroke-miterlimit:2;stroke-dasharray:none;stroke-opacity:1"
       id="path86"
       inkscape:connector-curvature="0" /><path
       d="m 370.69986,206.50449 0.13687,-2.84076"
       style="fill:none;stroke:#000000;stroke-width:0.57599998;stroke-linecap:round;stroke-linejoin:round;stroke-miterlimit:2;stroke-dasharray:none;stroke-opacity:1"
       id="path88"
       inkscape:connector-curvature="0" /><path
       d="m 365.51093,203.66373 0,-61.58048"
       style="fill:none;stroke:#000000;stroke-width:0.57599998;stroke-linecap:round;stroke-linejoin:round;stroke-miterlimit:2;stroke-dasharray:none;stroke-opacity:1"
       id="path90"
       inkscape:connector-curvature="0" /><path
       d="m 392.70715,339.79199 79.74952,0"
       style="fill:none;stroke:#000000;stroke-width:0.57599998;stroke-linecap:round;stroke-linejoin:round;stroke-miterlimit:2;stroke-dasharray:none;stroke-opacity:1"
       id="path92"
       inkscape:connector-curvature="0" /><path
       d="m 486.63312,340.71713 -13.80246,0"
       style="fill:none;stroke:#000000;stroke-width:0.57599998;stroke-linecap:round;stroke-linejoin:round;stroke-miterlimit:2;stroke-dasharray:none;stroke-opacity:1"
       id="path94"
       inkscape:connector-curvature="0" /><path
       d="m 392.33313,340.71713 -13.80243,0"
       style="fill:none;stroke:#000000;stroke-width:0.57599998;stroke-linecap:round;stroke-linejoin:round;stroke-miterlimit:2;stroke-dasharray:none;stroke-opacity:1"
       id="path96"
       inkscape:connector-curvature="0" /><path
       d="m 164.99136,390.43481 9.07087,-2.76239"
       style="fill:none;stroke:#000000;stroke-width:0.57599998;stroke-linecap:round;stroke-linejoin:round;stroke-miterlimit:2;stroke-dasharray:none;stroke-opacity:1"
       id="path98"
       inkscape:connector-curvature="0" /><path
       d="m 370.83673,203.66373 0,-61.58048"
       style="fill:none;stroke:#000000;stroke-width:0.57599998;stroke-linecap:round;stroke-linejoin:round;stroke-miterlimit:2;stroke-dasharray:none;stroke-opacity:1"
       id="path100"
       inkscape:connector-curvature="0" /><path
       d="m 378.15671,405.13837 0,-61.58045"
       style="fill:none;stroke:#000000;stroke-width:0.57599998;stroke-linecap:round;stroke-linejoin:round;stroke-miterlimit:2;stroke-dasharray:none;stroke-opacity:1"
       id="path102"
       inkscape:connector-curvature="0" /><path
       d="m 381.55829,328.94745 0,-54.20279"
       style="fill:none;stroke:#000000;stroke-width:0.57599998;stroke-linecap:round;stroke-linejoin:round;stroke-miterlimit:2;stroke-dasharray:none;stroke-opacity:1"
       id="path104"
       inkscape:connector-curvature="0" /><path
       d="m 381.55829,272.47696 0,-22.37814"
       style="fill:none;stroke:#000000;stroke-width:0.57599998;stroke-linecap:round;stroke-linejoin:round;stroke-miterlimit:2;stroke-dasharray:none;stroke-opacity:1"
       id="path106"
       inkscape:connector-curvature="0" /><path
       d="m 365.51093,203.66373 0.13687,2.84076"
       style="fill:none;stroke:#000000;stroke-width:0.57599998;stroke-linecap:round;stroke-linejoin:round;stroke-miterlimit:2;stroke-dasharray:none;stroke-opacity:1"
       id="path108"
       inkscape:connector-curvature="0" /><path
       d="m 392.70715,343.55792 79.74952,0"
       style="fill:none;stroke:#000000;stroke-width:0.57599998;stroke-linecap:round;stroke-linejoin:round;stroke-miterlimit:2;stroke-dasharray:none;stroke-opacity:1"
       id="path110"
       inkscape:connector-curvature="0" /><path
       d="m 378.15671,343.55792 0.49579,-3.76593"
       style="fill:none;stroke:#000000;stroke-width:0.57599998;stroke-linecap:round;stroke-linejoin:round;stroke-miterlimit:2;stroke-dasharray:none;stroke-opacity:1"
       id="path112"
       inkscape:connector-curvature="0" /><path
       d="m 392.70715,405.13837 0,-61.58045"
       style="fill:none;stroke:#000000;stroke-width:0.57599998;stroke-linecap:round;stroke-linejoin:round;stroke-miterlimit:2;stroke-dasharray:none;stroke-opacity:1"
       id="path114"
       inkscape:connector-curvature="0" /><path
       d="m 392.70715,343.55792 -0.37402,-2.84079"
       style="fill:none;stroke:#000000;stroke-width:0.57599998;stroke-linecap:round;stroke-linejoin:round;stroke-miterlimit:2;stroke-dasharray:none;stroke-opacity:1"
       id="path116"
       inkscape:connector-curvature="0" /><path
       d="m 365.94028,207.42966 -0.29248,-0.92517"
       style="fill:none;stroke:#000000;stroke-width:0.57599998;stroke-linecap:round;stroke-linejoin:round;stroke-miterlimit:2;stroke-dasharray:none;stroke-opacity:1"
       id="path118"
       inkscape:connector-curvature="0" /><path
       d="M 381.66861,250.40021 365.94028,207.42966"
       style="fill:none;stroke:#000000;stroke-width:0.57599998;stroke-linecap:round;stroke-linejoin:round;stroke-miterlimit:2;stroke-dasharray:none;stroke-opacity:1"
       id="path120"
       inkscape:connector-curvature="0" /><path
       d="m 386.81296,250.40021 -15.7283,-42.97055"
       style="fill:none;stroke:#000000;stroke-width:0.57599998;stroke-linecap:round;stroke-linejoin:round;stroke-miterlimit:2;stroke-dasharray:none;stroke-opacity:1"
       id="path122"
       inkscape:connector-curvature="0" /><path
       d="m 371.08466,207.42966 -0.3848,-0.92517"
       style="fill:none;stroke:#000000;stroke-width:0.57599998;stroke-linecap:round;stroke-linejoin:round;stroke-miterlimit:2;stroke-dasharray:none;stroke-opacity:1"
       id="path124"
       inkscape:connector-curvature="0" /><path
       d="m 378.6525,339.79199 11.51391,-42.97055"
       style="fill:none;stroke:#000000;stroke-width:0.57599998;stroke-linecap:round;stroke-linejoin:round;stroke-miterlimit:2;stroke-dasharray:none;stroke-opacity:1"
       id="path126"
       inkscape:connector-curvature="0" /><path
       d="m 237.55829,387.67242 -63.49606,0"
       style="fill:none;stroke:#000000;stroke-width:0.57599998;stroke-linecap:round;stroke-linejoin:round;stroke-miterlimit:2;stroke-dasharray:none;stroke-opacity:1"
       id="path128"
       inkscape:connector-curvature="0" /><path
       d="m 246.62915,415.98706 -9.07086,2.76239"
       style="fill:none;stroke:#000000;stroke-width:0.57599998;stroke-linecap:round;stroke-linejoin:round;stroke-miterlimit:2;stroke-dasharray:none;stroke-opacity:1"
       id="path130"
       inkscape:connector-curvature="0" /><path
       d="m 392.70715,339.79199 -0.37402,0.92514"
       style="fill:none;stroke:#000000;stroke-width:0.57599998;stroke-linecap:round;stroke-linejoin:round;stroke-miterlimit:2;stroke-dasharray:none;stroke-opacity:1"
       id="path132"
       inkscape:connector-curvature="0" /><path
       d="m 440.14975,207.42966 0.263,-0.92517"
       style="fill:none;stroke:#000000;stroke-width:0.57599998;stroke-linecap:round;stroke-linejoin:round;stroke-miterlimit:2;stroke-dasharray:none;stroke-opacity:1"
       id="path134"
       inkscape:connector-curvature="0" /><path
       d="m 392.70715,339.79199 11.51392,-42.97055"
       style="fill:none;stroke:#000000;stroke-width:0.57599998;stroke-linecap:round;stroke-linejoin:round;stroke-miterlimit:2;stroke-dasharray:none;stroke-opacity:1"
       id="path136"
       inkscape:connector-curvature="0" /><path
       d="m 435.93536,250.40021 4.21439,-42.97055"
       style="fill:none;stroke:#000000;stroke-width:0.57599998;stroke-linecap:round;stroke-linejoin:round;stroke-miterlimit:2;stroke-dasharray:none;stroke-opacity:1"
       id="path138"
       inkscape:connector-curvature="0" /><path
       d="m 378.15671,405.13837 108.8504,0"
       style="fill:none;stroke:#000000;stroke-width:0.57599998;stroke-linecap:round;stroke-linejoin:round;stroke-miterlimit:2;stroke-dasharray:none;stroke-opacity:1"
       id="path140"
       inkscape:connector-curvature="0" /><path
       d="m 439.90186,203.66373 0,-61.58048"
       style="fill:none;stroke:#000000;stroke-width:0.57599998;stroke-linecap:round;stroke-linejoin:round;stroke-miterlimit:2;stroke-dasharray:none;stroke-opacity:1"
       id="path142"
       inkscape:connector-curvature="0" /><path
       d="m 472.83066,340.71713 -0.37399,-0.92514"
       style="fill:none;stroke:#000000;stroke-width:0.57599998;stroke-linecap:round;stroke-linejoin:round;stroke-miterlimit:2;stroke-dasharray:none;stroke-opacity:1"
       id="path144"
       inkscape:connector-curvature="0" /><path
       d="m 174.06223,418.74945 63.49606,0"
       style="fill:none;stroke:#000000;stroke-width:0.57599998;stroke-linecap:round;stroke-linejoin:round;stroke-miterlimit:2;stroke-dasharray:none;stroke-opacity:1"
       id="path146"
       inkscape:connector-curvature="0" /><path
       d="m 459.26724,206.50449 0.5109,-2.84076"
       style="fill:none;stroke:#000000;stroke-width:0.57599998;stroke-linecap:round;stroke-linejoin:round;stroke-miterlimit:2;stroke-dasharray:none;stroke-opacity:1"
       id="path148"
       inkscape:connector-curvature="0" /><path
       d="m 455.13437,250.40021 4.21438,-42.97055"
       style="fill:none;stroke:#000000;stroke-width:0.57599998;stroke-linecap:round;stroke-linejoin:round;stroke-miterlimit:2;stroke-dasharray:none;stroke-opacity:1"
       id="path150"
       inkscape:connector-curvature="0" /><path
       d="m 459.77814,203.66373 0,-61.58048"
       style="fill:none;stroke:#000000;stroke-width:0.57599998;stroke-linecap:round;stroke-linejoin:round;stroke-miterlimit:2;stroke-dasharray:none;stroke-opacity:1"
       id="path152"
       inkscape:connector-curvature="0" /><path
       d="m 439.90186,203.66373 0.51089,2.84076"
       style="fill:none;stroke:#000000;stroke-width:0.57599998;stroke-linecap:round;stroke-linejoin:round;stroke-miterlimit:2;stroke-dasharray:none;stroke-opacity:1"
       id="path154"
       inkscape:connector-curvature="0" /><path
       d="M 472.45667,339.79199 460.94275,296.82144"
       style="fill:none;stroke:#000000;stroke-width:0.57599998;stroke-linecap:round;stroke-linejoin:round;stroke-miterlimit:2;stroke-dasharray:none;stroke-opacity:1"
       id="path156"
       inkscape:connector-curvature="0" /><path
       d="m 483.60553,250.09882 15.61798,-42.66916"
       style="fill:none;stroke:#000000;stroke-width:0.57599998;stroke-linecap:round;stroke-linejoin:round;stroke-miterlimit:2;stroke-dasharray:none;stroke-opacity:1"
       id="path158"
       inkscape:connector-curvature="0" /><path
       d="m 472.45667,405.13837 0,-61.58045"
       style="fill:none;stroke:#000000;stroke-width:0.57599998;stroke-linecap:round;stroke-linejoin:round;stroke-miterlimit:2;stroke-dasharray:none;stroke-opacity:1"
       id="path160"
       inkscape:connector-curvature="0" /><path
       d="m 459.34875,207.42966 -0.0815,-0.92517"
       style="fill:none;stroke:#000000;stroke-width:0.57599998;stroke-linecap:round;stroke-linejoin:round;stroke-miterlimit:2;stroke-dasharray:none;stroke-opacity:1"
       id="path162"
       inkscape:connector-curvature="0" /><path
       d="m 486.51132,339.79199 0.49579,3.76593"
       style="fill:none;stroke:#000000;stroke-width:0.57599998;stroke-linecap:round;stroke-linejoin:round;stroke-miterlimit:2;stroke-dasharray:none;stroke-opacity:1"
       id="path164"
       inkscape:connector-curvature="0" /><path
       d="M 486.51132,339.79199 474.99738,296.82144"
       style="fill:none;stroke:#000000;stroke-width:0.57599998;stroke-linecap:round;stroke-linejoin:round;stroke-miterlimit:2;stroke-dasharray:none;stroke-opacity:1"
       id="path166"
       inkscape:connector-curvature="0" /><path
       d="m 499.22351,207.42966 0.29248,-0.92517"
       style="fill:none;stroke:#000000;stroke-width:0.57599998;stroke-linecap:round;stroke-linejoin:round;stroke-miterlimit:2;stroke-dasharray:none;stroke-opacity:1"
       id="path168"
       inkscape:connector-curvature="0" /><path
       d="m 472.45667,343.55792 0.37399,-2.84079"
       style="fill:none;stroke:#000000;stroke-width:0.57599998;stroke-linecap:round;stroke-linejoin:round;stroke-miterlimit:2;stroke-dasharray:none;stroke-opacity:1"
       id="path170"
       inkscape:connector-curvature="0" /><path
       d="m 499.65289,203.66373 -0.1369,2.84076"
       style="fill:none;stroke:#000000;stroke-width:0.57599998;stroke-linecap:round;stroke-linejoin:round;stroke-miterlimit:2;stroke-dasharray:none;stroke-opacity:1"
       id="path172"
       inkscape:connector-curvature="0" /><path
       d="m 483.60553,328.94745 0,-54.20279"
       style="fill:none;stroke:#000000;stroke-width:0.57599998;stroke-linecap:round;stroke-linejoin:round;stroke-miterlimit:2;stroke-dasharray:none;stroke-opacity:1"
       id="path174"
       inkscape:connector-curvature="0" /><path
       d="m 483.60553,272.47696 0,-28.69098"
       style="fill:none;stroke:#000000;stroke-width:0.57599998;stroke-linecap:round;stroke-linejoin:round;stroke-miterlimit:2;stroke-dasharray:none;stroke-opacity:1"
       id="path176"
       inkscape:connector-curvature="0" /><path
       d="m 487.00711,405.13837 0,-61.58045"
       style="fill:none;stroke:#000000;stroke-width:0.57599998;stroke-linecap:round;stroke-linejoin:round;stroke-miterlimit:2;stroke-dasharray:none;stroke-opacity:1"
       id="path178"
       inkscape:connector-curvature="0" /><path
       d="m 499.65289,203.66373 0,-61.58048"
       style="fill:none;stroke:#000000;stroke-width:0.57599998;stroke-linecap:round;stroke-linejoin:round;stroke-miterlimit:2;stroke-dasharray:none;stroke-opacity:1"
       id="path180"
       inkscape:connector-curvature="0" /><path
       d="m 239.82602,187.86383 c 3.04797,1.73245 6.0719,3.50693 9.07086,5.32294"
       style="fill:none;stroke:#000000;stroke-width:0.57599998;stroke-linecap:round;stroke-linejoin:round;stroke-miterlimit:2;stroke-dasharray:none;stroke-opacity:1"
       id="path182"
       inkscape:connector-curvature="0" /><path
       d="m 162.72363,193.18677 c 2.99839,-1.81699 6.02231,-3.59149 9.0709,-5.32294"
       style="fill:none;stroke:#000000;stroke-width:0.57599998;stroke-linecap:round;stroke-linejoin:round;stroke-miterlimit:2;stroke-dasharray:none;stroke-opacity:1"
       id="path184"
       inkscape:connector-curvature="0" /><path
       d="m 144.58191,214.39996 c 3.00171,-1.5495 6.02563,-3.05551 9.07086,-4.51764"
       style="fill:none;stroke:#000000;stroke-width:0.57599998;stroke-linecap:round;stroke-linejoin:round;stroke-miterlimit:2;stroke-dasharray:none;stroke-opacity:1"
       id="path186"
       inkscape:connector-curvature="0" /><path
       d="m 257.96774,209.88232 c 3.04587,1.46082 6.06983,2.96686 9.07086,4.51764"
       style="fill:none;stroke:#000000;stroke-width:0.57599998;stroke-linecap:round;stroke-linejoin:round;stroke-miterlimit:2;stroke-dasharray:none;stroke-opacity:1"
       id="path188"
       inkscape:connector-curvature="0" /><path
       d="m 174.06223,300.93384 c -3.02668,-0.16706 -6.05063,-0.37979 -9.07087,-0.63819"
       style="fill:none;stroke:#000000;stroke-width:0.57599998;stroke-linecap:round;stroke-linejoin:round;stroke-miterlimit:2;stroke-dasharray:none;stroke-opacity:1"
       id="path190"
       inkscape:connector-curvature="0" /><path
       d="m 246.62915,300.29547 c -3.02008,0.26026 -6.04407,0.47296 -9.07086,0.63803"
       style="fill:none;stroke:#000000;stroke-width:0.57599998;stroke-linecap:round;stroke-linejoin:round;stroke-miterlimit:2;stroke-dasharray:none;stroke-opacity:1"
       id="path192"
       inkscape:connector-curvature="0" /><path
       d="m 432.58191,243.78598 c 1.16574,2.18011 2.28384,4.38538 3.35345,6.61423"
       style="fill:none;stroke:#000000;stroke-width:0.57599998;stroke-linecap:round;stroke-linejoin:round;stroke-miterlimit:2;stroke-dasharray:none;stroke-opacity:1"
       id="path194"
       inkscape:connector-curvature="0" /><path
       d="m 386.81296,250.40021 -0.4588,-0.5167 -0.54007,-0.55966 -0.33594,-0.31823 -0.59827,-0.49772 -0.39007,-0.26937 -0.45642,-0.24231 -0.38327,-0.13077 -0.0186,-0.004 -0.33469,-0.0397 -0.0172,1.2e-4 -0.30377,0.0439 -0.27988,0.12588 -0.008,0.005 -0.24191,0.20376 -0.22177,0.29444 -0.008,0.0135 -0.18494,0.37247 -0.15194,0.44348 -0.15094,0.67261 -0.06,0.40375"
       style="fill:none;stroke:#000000;stroke-width:0.57599998;stroke-linecap:round;stroke-linejoin:round;stroke-miterlimit:2;stroke-dasharray:none;stroke-opacity:1"
       id="path196"
       inkscape:connector-curvature="0" /><path
       d="m 483.60553,243.78598 -0.004,-1.11221 -0.0618,-3.49353 -0.0539,-1.51578 -0.16306,-2.96866 -0.15417,-1.93082 -0.25665,-2.37979 -0.29688,-2.06384 -0.0342,-0.20602 -0.33704,-1.77631 -0.0836,-0.38141 -0.37589,-1.49454 -0.16159,-0.55182 -0.40241,-1.18585 -0.25903,-0.64554 -0.42972,-0.90588 -0.39254,-0.67969 -0.44187,-0.62146 -0.088,-0.108 -0.45007,-0.48028 -0.4603,-0.37861 -0.0899,-0.0619 -0.47238,-0.26724 -0.0982,-0.0439 -0.50464,-0.168 -0.52554,-0.0821 -0.11353,-0.006 -0.53998,0.0223 -0.13,0.0175 -0.58057,0.13055 -0.61667,0.22589 -0.20743,0.0945 -0.67913,0.37024 -0.71738,0.4867 -0.0482,0.036 -0.80673,0.65652 -0.63519,0.58759 -0.92054,0.95175 -0.49493,0.5578 -1.03796,1.26511 -0.34,0.44104 -1.15085,1.58276 -0.18698,0.26977 -1.24774,1.88459 -0.0507,0.0796 -1.3609,2.21661 -1.12781,1.95105 -1.5434,2.82233 -0.81979,1.56668 -1.69653,3.38073 -0.56116,1.15763 -1.83768,3.91922 -0.33075,0.72564 -1.96457,4.43024 -0.12704,0.2934"
       style="fill:none;stroke:#000000;stroke-width:0.57599998;stroke-linecap:round;stroke-linejoin:round;stroke-miterlimit:2;stroke-dasharray:none;stroke-opacity:1"
       id="path198"
       inkscape:connector-curvature="0" /><path
       d="m 474.99738,296.82144 -0.60654,0.52286 -0.75769,0.55347 -0.72046,0.43286 -0.79724,0.38308 -0.81064,0.29487 -0.85318,0.21685 -0.87051,0.12979 -0.90213,0.045 -0.0179,0 -0.92389,-0.0436 -0.96557,-0.13315 -1.00711,-0.2269 -0.92572,-0.28284 -1.07856,-0.41479 -0.8764,-0.40115 -1.18207,-0.62564 -0.75897,-0.45069"
       style="fill:none;stroke:#000000;stroke-width:0.57599998;stroke-linecap:round;stroke-linejoin:round;stroke-miterlimit:2;stroke-dasharray:none;stroke-opacity:1"
       id="path200"
       inkscape:connector-curvature="0" /><path
       d="m 432.58191,243.78598 -0.9426,-1.73087 -1.63867,-2.87475 -1.21295,-2.01819 -1.5661,-2.4664 -0.0329,-0.0501 -1.50946,-2.22476 -1.47922,-2.03571 -0.54095,-0.70874 -1.40497,-1.74939 -1.37964,-1.58807 -1.18643,-1.26224 -1.2739,-1.24466 -1.24902,-1.10672 -0.84946,-0.68814 -1.17492,-0.86331 -1.03897,-0.67593 -1.10361,-0.62522 -0.14853,-0.0767 -1.06363,-0.49698 -1.03525,-0.39316 -0.32727,-0.10528 -1.00381,-0.26471 -0.97693,-0.17105 -0.39218,-0.0439 -0.96228,-0.0462 -0.93888,0.0415 -0.93087,0.12973 -0.92545,0.21902 -0.33496,0.1022 -0.89764,0.33686 -0.89756,0.43075 -0.22873,0.12531 -0.88772,0.54864 -0.88678,0.65064 -0.0562,0.0449 -0.88592,0.7651 -0.75675,0.74445 -0.8861,0.98444 -0.58628,0.72171 -0.89358,1.21402 -0.88233,1.34503 -0.7449,1.2576 -0.89102,1.66089 -0.87454,1.81335 -0.31159,0.69342 -0.87298,2.08545 -0.85376,2.26355 -0.0143,0.04 -0.84631,2.49414 -0.63205,2.04419 -0.81165,2.884 -0.45498,1.76086 -0.77139,3.25815 -0.32001,1.46549"
       style="fill:none;stroke:#000000;stroke-width:0.57599998;stroke-linecap:round;stroke-linejoin:round;stroke-miterlimit:2;stroke-dasharray:none;stroke-opacity:1"
       id="path202"
       inkscape:connector-curvature="0" /><path
       d="m 404.22107,296.82144 -0.759,0.45069 -1.18207,0.62564 -0.87637,0.40115 -1.07859,0.41479 -0.92569,0.28284 -1.00714,0.2269 -0.96557,0.13315 -0.92389,0.0436 -0.0179,0 -0.90213,-0.045 -0.87054,-0.12979 -0.85315,-0.21685 -0.81064,-0.29487 -0.79727,-0.38308 -0.72043,-0.43286 -0.75769,-0.55347 -0.60657,-0.52286"
       style="fill:none;stroke:#000000;stroke-width:0.57599998;stroke-linecap:round;stroke-linejoin:round;stroke-miterlimit:2;stroke-dasharray:none;stroke-opacity:1"
       id="path204"
       inkscape:connector-curvature="0" /><path
       d="m 455.13437,250.40021 -0.79462,-0.43329 -1.21426,-0.58002 -1.21921,-0.4866 -1.21576,-0.3924 -1.16836,-0.29132 -1.24155,-0.22036 -1.25433,-0.13187 -1.2385,-0.0429 -1.2666,0.0443 -1.2605,0.13056 -1.29391,0.22232 -1.21637,0.28936 -1.32355,0.40235 -1.34598,0.50125 -1.36569,0.60242 -0.77982,0.38629"
       style="fill:none;stroke:#000000;stroke-width:0.57599998;stroke-linecap:round;stroke-linejoin:round;stroke-miterlimit:2;stroke-dasharray:none;stroke-opacity:1"
       id="path206"
       inkscape:connector-curvature="0" /><path
       d="m 460.94275,296.82144 -0.83249,2.03391 -1.34195,3.10098 -1.06735,2.31726 -1.3356,2.72189 -0.0428,0.0841 -1.32016,2.49957 -1.31949,2.32199 -0.44824,0.75028 -1.2944,2.05929 -1.2919,1.90064 -0.99039,1.35635 -1.2525,1.5921 -1.24967,1.45505 -0.5086,0.55521 -1.20966,1.2355 -1.19525,1.10379 -1.18851,0.98477 -0.0196,0.0153 -1.16574,0.8577 -1.1507,0.74411 -0.28582,0.16916 -1.13529,0.61093 -1.12323,0.50916 -0.52231,0.20468 -1.11294,0.36889 -1.1005,0.27484 -0.6492,0.12012 -1.10885,0.13407 -1.09772,0.0444"
       style="fill:none;stroke:#000000;stroke-width:0.57599998;stroke-linecap:round;stroke-linejoin:round;stroke-miterlimit:2;stroke-dasharray:none;stroke-opacity:1"
       id="path208"
       inkscape:connector-curvature="0" /><path
       d="m 432.58191,328.94745 -1.09772,-0.0444 -1.10888,-0.13407 -0.64917,-0.12012 -1.1005,-0.27484 -1.11294,-0.36886 -0.52234,-0.20471 -1.1232,-0.50916 -1.13529,-0.61093 -0.28583,-0.16916 -1.15069,-0.74411 -1.16577,-0.8577 -0.0195,-0.0153 -1.18851,-0.98474 -1.19525,-1.10382 -1.20966,-1.23547 -0.5086,-0.55524 -1.2497,-1.45505 -1.25247,-1.5921 -0.99039,-1.35635 -1.2919,-1.90064 -1.2944,-2.05929 -0.44827,-0.75028 -1.31946,-2.32199 -1.32019,-2.49957 -0.0428,-0.0841 -1.33563,-2.72189 -1.06735,-2.31726 -1.34192,-3.10098 -0.83249,-2.03391"
       style="fill:none;stroke:#000000;stroke-width:0.57599998;stroke-linecap:round;stroke-linejoin:round;stroke-miterlimit:2;stroke-dasharray:none;stroke-opacity:1"
       id="path210"
       inkscape:connector-curvature="0" /><path
       d="m 248.89688,233.94199 -0.85791,-1.38318 -0.87048,-1.37546 -0.88248,-1.36795 -0.8938,-1.36072 -0.90454,-1.35373 -0.91461,-1.34701 -0.9241,-1.34052 -0.93296,-1.33432 -0.94119,-1.32834 -0.94879,-1.3226"
       style="fill:none;stroke:#000000;stroke-width:0.57599998;stroke-linecap:round;stroke-linejoin:round;stroke-miterlimit:2;stroke-dasharray:none;stroke-opacity:1"
       id="path212"
       inkscape:connector-curvature="0" /><path
       d="m 171.79453,220.42816 -0.94883,1.3226 -0.94119,1.32834 -0.93295,1.33432 -0.92411,1.34052 -0.91461,1.34701 -0.90454,1.35373 -0.8938,1.36072 -0.88244,1.36795 -0.87052,1.37546 -0.85791,1.38318"
       style="fill:none;stroke:#000000;stroke-width:0.57599998;stroke-linecap:round;stroke-linejoin:round;stroke-miterlimit:2;stroke-dasharray:none;stroke-opacity:1"
       id="path214"
       inkscape:connector-curvature="0" /><path
       d="m 239.82602,187.86383 3e-5,6e-5 1.85602,2.16699 1.84845,2.17344 1.84033,2.18032 1.8316,2.18769 1.8223,2.19549 1.81229,2.20374 1.80148,2.21267 1.78958,2.22226 1.77673,2.23249 1.76291,2.24334"
       style="fill:none;stroke:#000000;stroke-width:0.57599998;stroke-linecap:round;stroke-linejoin:round;stroke-miterlimit:2;stroke-dasharray:none;stroke-opacity:1"
       id="path216"
       inkscape:connector-curvature="0" /><path
       d="m 153.65277,209.88232 1.76285,-2.24328 1.77673,-2.23248 1.78961,-2.22226 1.80146,-2.21268 1.81234,-2.2038 7e-5,-6e-5 1.82229,-2.19549 1.83161,-2.18769 1.84033,-2.18033 1.84845,-2.17343 1.85602,-2.16699"
       style="fill:none;stroke:#000000;stroke-width:0.57599998;stroke-linecap:round;stroke-linejoin:round;stroke-miterlimit:2;stroke-dasharray:none;stroke-opacity:1"
       id="path218"
       inkscape:connector-curvature="0" /><path
       d="m 497.55197,400.73486 c -8.8388,28.4589 -35.1702,47.85297 -64.97006,47.85297 m 0,0 c -29.79987,0 -56.13126,-19.39407 -64.97009,-47.85297"
       style="fill:none;stroke:#6673ff;stroke-width:4.80000019;stroke-linecap:round;stroke-linejoin:round;stroke-miterlimit:2;stroke-dasharray:none;stroke-opacity:1;marker-start:url(#Arrow1Sstart)"
       id="path220"
       inkscape:connector-curvature="0" /><path
       d="m 272.86389,395.79449 -0.78631,2.7143 -0.78632,2.71426 -0.39316,1.35715 -0.39316,1.35715 -0.39315,1.35711 -0.19657,0.67859 -0.19659,0.67856 -0.19657,0.67859 -0.0983,0.33926 -0.0983,0.3393 -0.0491,0.16965 -0.0785,0.15884 -0.16678,0.31409 -0.3335,0.62817 -0.33353,0.62817 -0.33349,0.62818 -0.66702,1.25632 -1.33408,2.51269 -0.66702,1.25635 -0.66703,1.25635 -0.33352,0.62817 -0.3335,0.62817 -0.33353,0.62818 -0.16674,0.31408 -0.16675,0.31409 -0.0834,0.15704 -0.0834,0.15705 -0.20209,0.26059 -0.0216,0.0251 -0.23316,0.28095 -0.23315,0.28094 -0.46631,0.56189 -0.46634,0.56186 -0.93262,1.12378 -0.93261,1.12378 -1.86527,2.24753 -0.93265,1.12375 -0.93261,1.12378 -0.46631,0.56189 -0.46631,0.56189 -0.23316,0.28094 -0.11657,0.14047 -0.0601,0.0683 -0.0706,0.0568 -0.14117,0.11353 -0.14118,0.11352 -0.28231,0.22706 -0.5647,0.45413 -0.5647,0.4541 -1.12936,0.90823 -1.1294,0.90821 -1.12936,0.90823 -1.12937,0.90823 -1.12939,0.90821 -1.12936,0.90823 -0.5647,0.4541 -0.56467,0.45413 -0.28235,0.22705 -0.14117,0.11353 -0.14118,0.11353 -0.0706,0.0568 -0.0795,0.0444 -0.16193,0.0847 -0.32391,0.16943 -0.64777,0.33884 -0.64779,0.33883 -1.29557,0.67768 -1.29556,0.67767 -2.59112,1.35535 -1.29557,0.6777 -1.29556,0.67768 -0.64777,0.33883 -0.64779,0.33884 -0.32389,0.16943 -0.32388,0.16941 -0.0232,0.0126 -0.30573,0.14777 -0.1795,0.0532 -0.17951,0.0532 -0.71804,0.21268 -0.71805,0.21267 -0.71802,0.21268 -0.71805,0.21268 -1.43606,0.42535 -1.4361,0.42536 -2.87213,0.85073 -1.4361,0.42536 -0.71805,0.21267 -0.71801,0.21268 -0.71805,0.21268 -0.35901,0.10635 -0.18015,0.0481 -0.1838,0.0177 -0.36765,0.0354 -0.36764,0.0354 -0.73529,0.0708 -0.73526,0.0708 -0.73529,0.0708 -1.47059,0.14163 -2.94113,0.28327 -1.47055,0.14166 -1.47058,0.14163 -0.73529,0.0708 -0.73526,0.0708 -0.73529,0.0708 -0.36765,0.0354 -0.1838,0.0177 -0.18384,0.0177 -0.18387,-0.0173 -0.18387,-0.0172 -0.36773,-0.0345 -0.73548,-0.069 -0.73547,-0.069 -0.73547,-0.069 -1.47095,-0.138 -1.47095,-0.13804 -2.94186,-0.27603 -1.47095,-0.13803 -0.73547,-0.069 -0.73548,-0.069 -0.73547,-0.069 -0.36774,-0.0345 -0.36774,-0.0345 -0.18386,-0.0173 -0.18027,-0.0477 -0.35931,-0.10544 -0.7186,-0.21091 -0.71863,-0.21093 -0.7186,-0.21091 -1.43722,-0.42181 -2.87445,-0.84366 -1.43723,-0.42185 -1.43722,-0.42181 -0.7186,-0.21094 -0.71863,-0.21091 -0.7186,-0.2109 -0.71862,-0.21091 -0.17966,-0.0527 -0.17963,-0.0527 -0.30615,-0.14703 -0.0232,-0.0126 -0.32438,-0.16861 -0.32434,-0.16864 -0.64868,-0.33725 -0.64871,-0.33725 -1.29739,-0.67446 -1.2974,-0.6745 -2.59479,-1.349 -1.29739,-0.6745 -1.29739,-0.67447 -0.64868,-0.33725 -0.64872,-0.33725 -0.32434,-0.16864 -0.16217,-0.0843 -0.0796,-0.0442 -0.0707,-0.0566 -0.14148,-0.11316 -0.14148,-0.11319 -0.28296,-0.22638 -0.56591,-0.4527 -0.56589,-0.45272 -1.13184,-0.90546 -1.13183,-0.90546 -1.13184,-0.90542 -1.13184,-0.90546 -1.13183,-0.90543 -1.13181,-0.90545 -0.56591,-0.45273 -0.56592,-0.45273 -0.28296,-0.22635 -0.14148,-0.11319 -0.14148,-0.11319 -0.0707,-0.0566 -0.0602,-0.0681 -0.11695,-0.1402 -0.23391,-0.28037 -0.46784,-0.56073 -0.46783,-0.56076 -0.93567,-1.12146 -0.93567,-1.12146 -1.87134,-2.24295 -0.93567,-1.12149 -0.93567,-1.12146 -0.46783,-0.56073 -0.46783,-0.56073 -0.23392,-0.28039 -0.23392,-0.28037 -0.0216,-0.025 -0.20282,-0.2601 -0.0838,-0.15683 -0.0838,-0.15683 -0.1676,-0.31369 -0.1676,-0.31366 -0.33524,-0.62735 -0.3352,-0.62735 -0.33521,-0.62735 -0.67044,-1.2547 -0.67041,-1.25473 -1.34085,-2.5094"
       style="fill:none;stroke:#6673ff;stroke-width:4.80000019;stroke-linecap:round;stroke-linejoin:round;stroke-miterlimit:2;stroke-dasharray:none;stroke-opacity:1;marker-start:url(#marker4636)"
       id="path222"
       inkscape:connector-curvature="0" /><path
       d="m 144.33017,411.9433 -0.67044,-1.2547 -0.33521,-0.62735 -0.3352,-0.62735 -0.33524,-0.62735 -0.1676,-0.31369 -0.079,-0.15897 -0.05,-0.17175 -0.1,-0.34357 -0.10004,-0.34353 -0.20004,-0.68708 -0.20005,-0.6871 -0.20004,-0.6871 -0.40011,-1.37418 -0.40009,-1.37417 -0.40012,-1.37418 -0.8002,-2.74835 -0.80017,-2.74839"
       style="fill:none;stroke:#6673ff;stroke-width:4.80000019;stroke-linecap:round;stroke-linejoin:round;stroke-miterlimit:2;stroke-dasharray:none;stroke-opacity:1"
       id="path224"
       inkscape:connector-curvature="0" /><path
       d="m 165.55807,273.61081 12.92792,0 m 3.19919,0 3e-5,0 m 0,0 3.19916,0 m 3.19919,0 12.92791,0 m 3.19919,0 3.19919,0 m 3.19916,0 12.92795,0 m 3.19915,0 4e-5,0 m 0,0 3.19921,0 m 3.19919,0 12.92789,0"
       style="fill:none;stroke:#000000;stroke-width:0.14399999;stroke-linecap:butt;stroke-linejoin:round;stroke-miterlimit:2;stroke-dasharray:none;stroke-opacity:1"
       id="path226"
       inkscape:connector-curvature="0" /><path
       d="m 432.58191,182.33524 0,9.61734 m 0,3.19915 0,3.19919 m 0,3.19919 0,9.61731 m 0,3.19919 0,3.19919 m 0,3.19918 0,9.61731 m 0,3.19922 0,3.19916 m 0,3.19919 0,9.61734 m 0,3.19919 0,3.19918 m 0,3.19919 0,9.61734 m 0,3.19919 0,3.19919 m 0,3.19919 0,9.61731 m 0,3.19922 0,3.19918 m 0,3.19919 0,9.61734 m 0,3.19916 0,3.19919 m 0,3.19919 0,9.61734 m 0,3.19919 0,3.19921 m 0,3.19919 0,9.61731 m 0,3.19901 0,3.19919 m 0,3.19918 0,9.61734"
       style="fill:none;stroke:#000000;stroke-width:0.14399999;stroke-linecap:butt;stroke-linejoin:round;stroke-miterlimit:2;stroke-dasharray:none;stroke-opacity:1"
       id="path228"
       inkscape:connector-curvature="0" /></g></svg>